<?xml version="1.0" encoding="utf-8"?>
<!-- Generator: Adobe Illustrator 26.5.0, SVG Export Plug-In . SVG Version: 6.00 Build 0)  -->
<svg version="1.1" id="Layer_1" xmlns="http://www.w3.org/2000/svg" xmlns:xlink="http://www.w3.org/1999/xlink" x="0px" y="0px"
	 viewBox="0 0 1920 1080" style="enable-background:new 0 0 1920 1080;" xml:space="preserve">
<style type="text/css">
	.st0{fill:#C8C8C8;}
</style>
<g>
	<polygon class="st0" points="422.09,521.21 716.81,371.37 676.74,521.21 690.16,521.21 736.73,346.62 392.83,521.21 	"/>
	<polygon class="st0" points="896.55,736.43 860.96,861.12 600.31,861.12 635.94,736.43 16.19,736.43 61.32,558.29 727.32,219.86 
		1031.92,219.86 950.96,521.21 964.41,521.21 1048.83,206.87 723.33,206.87 50.02,550.28 -0.72,749.42 619.03,749.42 583.4,874.11 
		870.95,874.11 910.57,736.43 	"/>
	<path class="st0" d="M1755.63,206.87h-520.07l-37.4,137.68h412.29c6.07,0.02,18.4-0.02,21.35,3.78c0.71,0.9,0.77,2.46,0.24,4.55
		l-10.58,39.69c-3.16,12.27-9,17.2-20.92,17.61l-295.21,14.88c-52.66,2.86-91.22,14.77-117.8,36.35
		c-17.25,14.02-31.65,34.11-43.17,59.82h14.28c10.22-21.24,22.59-37.96,37.08-49.73c24.07-19.53,61.19-30.8,110.3-33.47
		l295.09-14.85c17.59-0.6,28.36-9.55,32.93-27.29l10.58-39.69c2.01-7.8-0.26-12.91-2.52-15.82c-6.86-8.83-22.06-8.85-32.38-8.81
		h-394.53l30.35-111.69h510.13c100.43,0,151.36,30.48,151.36,90.58c0,15.64-2.46,32.81-7.52,52.43l-37.02,137.83
		c-11.43,41.55-30.18,72.17-55.67,91.05c-22.74,16.82-55.2,26.97-96.41,30.37c-1.56,0.13,1.6,0.26,0,0.36l-4.74,13.02
		c46.93-3.08,82.71-13.93,108.89-33.3c27.91-20.65,48.26-53.62,60.48-98.06l37.04-137.89l0.02-0.06
		c5.34-20.71,7.93-38.94,7.93-55.72C1919.98,263.19,1891.47,206.87,1755.63,206.87"/>
	<path class="st0" d="M1047.07,874.11h729.58l36.01-137.66h-729.13L1047.07,874.11z M1795.85,749.42l-29.24,111.69h-702.68
		l29.58-111.69H1795.85z"/>
	<path class="st0" d="M1681.96,569.64c-5.36-6.97-13.78-10.81-23.72-10.81H1537.5l-0.17,0.64h-0.19l-33.58,126.52h24.15l13.78-51.44
		h97.59c3.46,0,6.35,1.28,8.14,3.63c1.9,2.48,2.42,5.88,1.43,9.55l-10.22,38.26h24.15l9.92-37.21c2.61-9.72,1.39-18.85-3.4-25.99
		c8.53-6.95,14.62-16.03,17.2-25.71C1689.12,586.7,1687.56,576.95,1681.96,569.64 M1662.47,596.04
		c-2.09,7.84-10.15,14.23-17.97,14.23l-1.62,0.28h-95.06l7.29-27.7h97.78c3.46,0,6.35,1.28,8.14,3.63
		C1662.94,588.96,1663.45,592.36,1662.47,596.04"/>
	<path class="st0" d="M953.42,574.81c-7.22-9.6-19.19-15.05-33.75-15.35h-75.59c-25.37,0.49-57.13,17.74-66.92,54.43l-4.55,17.1
		c-4.32,16.2-2.61,30.09,4.96,40.14c7.22,9.62,19.19,15.05,33.75,15.35h75.55h0.02c25.37-0.49,57.13-17.74,66.92-54.43l4.57-17.1
		C962.72,598.73,960.99,584.86,953.42,574.81 M932.33,613.9l-4.55,17.1c-5.45,20.43-22.18,30.24-35.35,30.69h-75.47
		c-6.86-0.24-12.55-2.91-15.96-7.52c-3.93-5.32-4.74-12.97-2.29-22.12l4.55-17.1c5.36-20.13,22.06-29.86,35.31-30.37h75.42
		c6.92,0.28,12.63,2.97,16.05,7.63C933.91,597.47,934.7,604.97,932.33,613.9"/>
	<path class="st0" d="M724.55,558.83H603.79l-33.77,127.16l123.66-0.02l0.02-0.04c19.88-1.03,39.92-17.38,45.2-37.14
		c2.59-9.72,1.39-18.85-3.4-25.99c8.53-6.97,14.62-16.03,17.2-25.71c2.78-10.39,1.22-20.13-4.4-27.42
		C742.93,562.67,734.51,558.83,724.55,558.83 M715.01,647.74c-2.09,7.8-10.11,14.19-17.91,14.23l-96.32,0.04l7.22-27.44h97.41
		c3.46,0,6.35,1.28,8.14,3.63C715.48,640.66,716,644.06,715.01,647.74 M728.8,596.04c-2.09,7.86-10.37,14.51-18.06,14.51h-96.43
		l7.29-27.7h97.61c3.46,0,6.35,1.28,8.16,3.63C729.29,588.96,729.78,592.36,728.8,596.04"/>
	<path class="st0" d="M1149.08,597.08c2.78-10.39,1.22-20.13-4.4-27.42c-5.36-6.97-13.78-10.81-23.72-10.81H1000.2l-33.77,127.16
		l123.66-0.02l0.02-0.04c19.88-1.03,39.92-17.38,45.2-37.14c2.59-9.72,1.39-18.85-3.4-25.99
		C1140.43,615.85,1146.5,606.77,1149.08,597.08 M1111.4,647.74c-2.09,7.8-10.11,14.19-17.91,14.23l-96.32,0.04l7.22-27.44h97.41
		c3.46,0,6.35,1.28,8.14,3.63C1111.9,640.66,1112.39,644.06,1111.4,647.74 M1125.21,596.04c-2.09,7.86-10.37,14.51-18.06,14.51
		h-96.43l7.29-27.7h97.61c3.46,0,6.35,1.28,8.16,3.63C1125.68,588.96,1126.19,592.36,1125.21,596.04"/>
	<path class="st0" d="M1335.43,597.08c2.78-10.39,1.22-20.13-4.4-27.42c-5.36-6.97-13.79-10.81-23.72-10.81h-120.75l-33.77,127.16
		l123.66-0.02l0.02-0.04c19.88-1.03,39.92-17.38,45.2-37.14c2.59-9.72,1.39-18.85-3.4-25.99
		C1326.75,615.85,1332.84,606.77,1335.43,597.08 M1297.75,647.74c-2.09,7.8-10.11,14.19-17.91,14.23l-96.32,0.04l7.22-27.44h97.41
		c3.46,0,6.35,1.28,8.14,3.63C1298.22,640.66,1298.73,644.06,1297.75,647.74 M1311.56,596.04c-2.09,7.86-10.37,14.51-18.06,14.51
		h-96.43l7.29-27.7h97.61c3.46,0,6.35,1.28,8.16,3.63C1312.03,588.96,1312.54,592.36,1311.56,596.04"/>
	<polygon class="st0" points="1373.92,558.83 1367.57,582.85 1391.79,582.85 1391.79,582.85 1481.42,582.85 1510.06,558.83 	"/>
	<polygon class="st0" points="1384.52,610.55 1384.54,610.46 1360.28,610.46 1353.89,634.59 1378.19,634.59 1378.21,634.55 
		1467.61,634.55 1496.25,610.55 	"/>
	<polygon class="st0" points="1371.12,662.01 1346.8,662.01 1343.93,672.34 1340.3,685.99 1340.32,685.99 1340.3,686.08 
		1347.8,685.99 1453.89,685.99 1482.53,661.97 1371.01,661.97 	"/>
	<polygon class="st0" points="319.11,558.83 271.43,582.85 567.22,582.85 573.76,558.83 	"/>
	<polygon class="st0" points="169.59,634.55 553.16,634.55 559.7,610.55 217.6,610.55 	"/>
	<polygon class="st0" points="69.1,685.99 539.16,685.99 545.7,661.97 116.27,661.97 	"/>
</g>
</svg>
