<svg xmlns="http://www.w3.org/2000/svg" viewBox="0 0 92 40"><path d="M51.3 29.8l35.2-.2-1.6 6.2-35.2.1 1.6-6.1zm40.1-18.6L89.5 18c-.5 1.7-1.3 3.6-2.8 4.7-1.5 1.1-3.8 1.5-5.6 1.6l-13.7.5c-.9 0-1.3.8-1.6 1.6l-.6 2.2H51.5l2-7.5c.5-1.8 1.3-3.8 2.7-5 1.5-1.2 3.7-1.6 5.6-1.7l14.4-.7c.7 0 1.1-.4 1.3-1.1l.5-1.9c.3-.8-.7-.8-1.3-.8H57.1l1.6-6.1H84c3.2 0 7.7.6 7.7 4.8.1.8-.1 1.6-.3 2.6M36.3 29.1L34.5 36l-13.7.3 1.9-7.2H.2l2.2-8.5L26.9 4l16.3-.2-4 14.8H25.5l2-7.7-13.4 8.8H46L43.6 29c0 .1-7.3.1-7.3.1z" fill-rule="evenodd" clip-rule="evenodd" fill="#bdbcbc"/></svg>