<svg xmlns="http://www.w3.org/2000/svg" viewBox="0 0 205.445 54.88"><defs><style>.a{fill:#D0D0D0;}</style></defs><path class="a" d="M178.047,21.474v-.056h25.771a1.9,1.9,0,0,0,.009-3.8h-25.1a9.1,9.1,0,0,0-8.687,5.7l-2.482,6.834c-.591,1.626-.854,2.56-3.014,2.56a3.221,3.221,0,0,1-1.91-.559,1.835,1.835,0,0,1-.619-2.352L164.12,24c.642-1.827,1.073-4.817-1.118-5.817-2.266-1.033-4.3.46-5.4,2.37a12.358,12.358,0,0,0-1.109,2.591,15.2,15.2,0,0,0-.581,2.865,11.24,11.24,0,0,0,.04,2.7,5.735,5.735,0,0,0,.887,2.341l-1.428,3.71a8.137,8.137,0,0,1-1.656,2.6,3.525,3.525,0,0,1-2.571,1.206c-1.787,0-2.386-1.667-1.894-3.158l5.035-13.758a2.377,2.377,0,0,0-1.116-3.172,2.244,2.244,0,0,0-.284-.114,2.638,2.638,0,0,0-3.311,1.721c-.017.053-.032.107-.046.162L144.26,35.111c-.709,1.682-1.986,3.24-4.046,3.24a1.763,1.763,0,0,1-1.377-.578,1.89,1.89,0,0,1-.471-1.268,3.174,3.174,0,0,1,.168-1l4.906-13.847a2.378,2.378,0,0,0-1.116-3.174,2.4,2.4,0,0,0-.284-.114,2.639,2.639,0,0,0-3.311,1.722c-.017.054-.032.108-.046.164l-4.676,13.379c-.828,2.374-3.9,4.757-6.419,4.757a3.337,3.337,0,0,1-2.3-.781,2.591,2.591,0,0,1-.9-1.977,3.047,3.047,0,0,1,.222-1.2l4.272-11.964h3.3a2.683,2.683,0,0,0,1.884-.622c1.257-1.162,1.129-3.188-.885-3.188h-2.9l3.173-9.035a2.049,2.049,0,0,0-1.467-2.5,2.129,2.129,0,0,0-.222-.045,2.642,2.642,0,0,0-3.215,1.9c-.006.024-.012.047-.017.07l-3.46,9.6h-2.3a2.728,2.728,0,0,0-1.944.6,2.336,2.336,0,0,0-.7,1.382c-.087.789.283,1.83,1.215,1.83h2.379l-.308.9q-.449,1.3-.915,2.592-.429,1.176-.843,2.357t-.848,2.37a15.9,15.9,0,0,0-1.391,5.213,5.493,5.493,0,0,0,.615,2.631,6.316,6.316,0,0,0,1.666,2,7.563,7.563,0,0,0,2.451,1.273,9.976,9.976,0,0,0,3.006.447,10.881,10.881,0,0,0,6.552-2.315,5.97,5.97,0,0,0,2.805,2.155,6.576,6.576,0,0,0,2.223.372,7.087,7.087,0,0,0,2.893-.594,10.154,10.154,0,0,0,2.957-2.135,7.466,7.466,0,0,0,2.781,2.13,7.732,7.732,0,0,0,2.994.6A9.23,9.23,0,0,0,153.209,42a10.332,10.332,0,0,0,2.728-1.365,11.894,11.894,0,0,0,2.319-2.134,12.529,12.529,0,0,0,1.942-3.571c1.6,1.522,3.485,1.752,5.788,1.475l.111.629a5.672,5.672,0,0,0,.521,1.573A6.261,6.261,0,0,0,168.3,40.68,7.933,7.933,0,0,0,170.782,42a9.372,9.372,0,0,0,2.954.465,10.141,10.141,0,0,0,4.436-.974,7.68,7.68,0,0,0,3.274-3.131,14.46,14.46,0,0,0,.711-1.74c.425-1.109.839-2.223,1.259-3.335.557-1.474,1.114-3.007,1.759-4.445.886-1.973-.018-3.627-2.257-3.409a2.738,2.738,0,0,0-2.3,2.164L177.4,35.835a4.458,4.458,0,0,1-1.535,2.059,3.733,3.733,0,0,1-2.218.757,2.6,2.6,0,0,1-2.028-.731,2.869,2.869,0,0,1-.682-1.552,4.654,4.654,0,0,1,.077-1.6,11.431,11.431,0,0,1,.3-1.122c.416-1.284.882-2.559,1.355-3.822.716-1.918,1.5-3.818,2.3-5.7a3.851,3.851,0,0,1,3.081-2.65" transform="translate(-0.278 -0.058)"/><path class="a" d="M112.786,24.661a2.593,2.593,0,0,0-2.853,1.929,15.287,15.287,0,0,1-3.433,5.651,18.813,18.813,0,0,1-4.791,3.484l-1.5.761,3.284-9.438,1.3-3.686,2.118-6.047a2.342,2.342,0,0,0-1.447-2.98q-.087-.03-.177-.054a2.635,2.635,0,0,0-3.23,1.858c-.007.025-.013.05-.02.076l-5.01,14.638-.034.058a8.165,8.165,0,0,1-2.336,2.716,4.334,4.334,0,0,1-2.324.827,1.774,1.774,0,0,1-1.933-1.6,1.863,1.863,0,0,1,0-.334,4.294,4.294,0,0,1,.254-1.307l4.819-13.587a2.377,2.377,0,0,0-1.116-3.173,2.41,2.41,0,0,0-.284-.115,2.639,2.639,0,0,0-3.308,1.727c-.017.052-.031.1-.045.157l-4.849,13.7-.031.055a10.4,10.4,0,0,1-1.961,2.5,6.4,6.4,0,0,1-4.249,1.887,3.318,3.318,0,0,1-2.3-.781,2.583,2.583,0,0,1-.9-1.976,3.046,3.046,0,0,1,.221-1.2l4.273-11.964h3.3a2.687,2.687,0,0,0,1.884-.623,2.4,2.4,0,0,0,.81-1.386,1.685,1.685,0,0,0-.3-1.286,1.661,1.661,0,0,0-1.4-.516H82.314L85.487,5.6a1.624,1.624,0,0,0-.219-1.573A2.6,2.6,0,0,0,83.8,3.054a2.891,2.891,0,0,0-1.886.2,2.678,2.678,0,0,0-1.346,1.772l-3.459,9.6h-2.3a2.74,2.74,0,0,0-1.945.6,2.336,2.336,0,0,0-.7,1.382,1.958,1.958,0,0,0,.307,1.336.988.988,0,0,0,.908.5h2.379l-.309.9q-.447,1.3-.915,2.592-.428,1.176-.843,2.356t-.847,2.37q-.465,1.281-.906,2.57a9.6,9.6,0,0,1-3.179,4.438,3.045,3.045,0,0,1-1.842.7,1.443,1.443,0,0,1-1.256-.625,2.1,2.1,0,0,1-.33-1.178,3.489,3.489,0,0,1,.213-1.183l2.555-7.1a8.474,8.474,0,0,0,.3-1.141,5.611,5.611,0,0,0,.1-1.027,3.593,3.593,0,0,0-.707-2.257A7.354,7.354,0,0,0,65.9,18.125a13.128,13.128,0,0,0-2.392-1.217c-.707-.271-1.429-.532-2.156-.74l-.678-.194c.692-2.076-.1-4.551-2.693-4.551a3.077,3.077,0,0,0-1.912.6c-1.777,1.341-1.845,4.506-.553,6.107l.24.3c-.527,1.423-.841,2.23-1.4,3.7-.917,2.389-2.12,2.96-4.263,2.976-1.078.008-2.47-.3-2.041-2.123.343-1.46.779-3.917.144-5.425a5.648,5.648,0,0,0-1.6-2.109,7.378,7.378,0,0,0-2.506-1.369,9.9,9.9,0,0,0-3.107-.487,10.177,10.177,0,0,0-2.786.386,9.631,9.631,0,0,0-2.513,1.114,8.631,8.631,0,0,0-2.031,1.791A7.97,7.97,0,0,0,32.3,19.263l-3.506,9.653a13.711,13.711,0,0,0-.391,1.523,7.425,7.425,0,0,0-.14,1.388,6.025,6.025,0,0,0,.621,2.753,6.261,6.261,0,0,0,1.683,2.076,7.962,7.962,0,0,0,2.48,1.318A9.445,9.445,0,0,0,36,38.439a10.159,10.159,0,0,0,4.435-.974A7.774,7.774,0,0,0,44.373,32.8l1.842-5.048a18.352,18.352,0,0,0,2.887.673c4.362.538,7.288-.437,8.808-4.51l1.146-3.13.619.207c.359.119.721.231,1.083.339a3.859,3.859,0,0,1,1.232.606,2.523,2.523,0,0,1,.854,1.118,2.586,2.586,0,0,1-.058,1.752L60.879,30.1a8.023,8.023,0,0,0-.484,2.555,5.557,5.557,0,0,0,.46,2.3,5.038,5.038,0,0,0,1.263,1.723,6.155,6.155,0,0,0,1.9,1.133,6.386,6.386,0,0,0,2.3.411c2.535,0,4.442-1.264,6.237-2.9A10.462,10.462,0,0,0,73.742,36.5a7.574,7.574,0,0,0,2.451,1.273,9.985,9.985,0,0,0,3.006.447A10.858,10.858,0,0,0,85.755,35.9a6.306,6.306,0,0,0,3.684,2.373L92.5,38.9l-3.047.7c-1.036.237-2.062.511-3.081.814A15.825,15.825,0,0,0,83.462,41.6a9.5,9.5,0,0,0-2.35,1.741,5.757,5.757,0,0,0-1.394,2.381A6.088,6.088,0,0,0,79.612,49a5.765,5.765,0,0,0,1.457,2.547,7.584,7.584,0,0,0,2.611,1.711,8.585,8.585,0,0,0,3.239.623,10.856,10.856,0,0,0,2.961-.408,8.919,8.919,0,0,0,2.66-1.247,10.021,10.021,0,0,0,2.235-2.135,11.252,11.252,0,0,0,1.652-3.083q.48-1.4.977-2.781.549-1.521,1.089-3.048a40.907,40.907,0,0,0,4.881-1.87,20.053,20.053,0,0,0,4.217-2.644,19.358,19.358,0,0,0,3.625-3.941,21.5,21.5,0,0,0,2.729-5.653,1.7,1.7,0,0,0-1.159-2.408ZM43.842,20.776a3.882,3.882,0,0,0-1.73.13,3.363,3.363,0,0,0-1.2.725,3.578,3.578,0,0,0-.838,1.206,3.755,3.755,0,0,0-.313,1.51c.054,1.352.9,2.05,1.848,2.865-.881,2.564-2.334,7.415-5.7,7.415a2.6,2.6,0,0,1-2.028-.73,2.874,2.874,0,0,1-.681-1.552,4.627,4.627,0,0,1,.076-1.6,11.1,11.1,0,0,1,.3-1.123c.415-1.284.881-2.558,1.354-3.822.717-1.918,1.5-3.817,2.3-5.7a3.791,3.791,0,0,1,1.442-1.989,3.844,3.844,0,0,1,2.228-.706,2.885,2.885,0,0,1,2.075.775,3.148,3.148,0,0,1,.862,2.6ZM90.67,46.9a4.5,4.5,0,0,1-1.617,2.138,3.964,3.964,0,0,1-2.267.725,2.05,2.05,0,0,1-1.59-.617c-1.548-1.747.431-4.054,2-4.79a21.932,21.932,0,0,1,3.715-1.3l1.236-.327Z" transform="translate(-0.278 -0.058)"/><path class="a" d="M18.071,21.429,7.4,51.439a2.4,2.4,0,0,0,1.07,3.221,2.456,2.456,0,0,0,.4.159c1.708.538,3.017-.818,3.54-2.312l10.9-31.073,1.271-.017h2.7a2.008,2.008,0,0,0,1.518-3.29,1.724,1.724,0,0,0-1.359-.51H24.71L28.689,6.4a3.452,3.452,0,0,1,1.036-1.58,2.344,2.344,0,0,1,1.661-.56,1.848,1.848,0,0,1,1.62,1.06,2.777,2.777,0,0,1,0,1.89c-.42,1.388-.082,2.449,1.46,2.813,1.678.4,2.894-.806,3.218-2.372a6.51,6.51,0,0,0,.024-2.971A5.965,5.965,0,0,0,31.838.059a9.31,9.31,0,0,0-2.569.365,8.179,8.179,0,0,0-4.354,3.012A10.162,10.162,0,0,0,23.5,6.2L19.46,17.619H2.182a1.9,1.9,0,0,0-.009,3.8h.009q7.467,0,14.931.011Z" transform="translate(-0.278 -0.058)"/></svg>