<?xml version="1.0" encoding="UTF-8"?>
<!-- Creator: CorelDRAW -->
<svg xmlns="http://www.w3.org/2000/svg" xmlns:xlink="http://www.w3.org/1999/xlink" xmlns:xodm="http://www.corel.com/coreldraw/odm/2003" xml:space="preserve" width="154px" height="136px" version="1.1" style="shape-rendering:geometricPrecision; text-rendering:geometricPrecision; image-rendering:optimizeQuality; fill-rule:evenodd; clip-rule:evenodd" viewBox="0 0 154.66 136.48">
 <defs>
  <style type="text/css">
   <![CDATA[
    .str0 {stroke:yellow;stroke-width:7.31;stroke-miterlimit:22.9256}
    .fil0 {fill:yellow;fill-rule:nonzero}
   ]]>
  </style>
 </defs>
 <g id="Layer_x0020_1">
  <metadata id="CorelCorpID_0Corel-Layer"></metadata>
  <g id="_2383422679776">
   <g id="_2383537007344">
    <path class="fil0 str0" d="M63.35 38.39c0,-8.69 6.52,-15.2 15.2,-15.2 8.68,0 15.2,6.51 15.2,15.2 0,8.68 -6.52,15.19 -15.2,15.19 -8.68,0 -15.2,-6.51 -15.2,-15.19zm34.74 0c0,-10.86 -8.69,-19.54 -19.54,-19.54 -10.85,0 -19.54,8.68 -19.54,19.54 0,10.85 8.69,19.54 19.54,19.54 10.85,0 19.54,-8.69 19.54,-19.54z"></path>
    <path class="fil0 str0" d="M9.08 128.48l37.99 -49.93 10.86 0 18.45 39.08c1.08,0 1.08,1.08 2.17,1.08 1.09,0 1.09,-1.08 2.17,-1.08l17.37 -39.08 10.85 0 35.82 49.93 -135.68 0 0 0zm43.42 -106.37c5.43,-8.69 14.11,-14.12 23.88,-15.2 1.08,0 1.08,0 2.17,0 0,0 1.09,0 2.17,0 9.77,1.09 18.45,6.51 23.88,15.2 5.43,8.68 6.51,20.62 2.17,30.39l-28.22 59.7 -28.22 -59.7c-4.34,-9.77 -3.26,-21.71 2.17,-30.39l0 0zm97.69 107.46l-37.99 -54.28c0,0 -1.09,-1.08 -2.17,-1.08l-9.77 0 9.77 -20.63c5.43,-10.85 4.34,-22.79 -2.17,-33.65 -5.43,-9.76 -16.28,-16.28 -27.14,-16.28 -1.08,0 -3.26,0 -4.34,0 -10.85,0 -21.71,6.52 -27.14,16.28 -6.51,10.86 -7.59,22.8 -2.17,33.65l9.77 20.63 -10.85 0c-1.09,0 -1.09,0 -2.17,1.08l-40.17 54.28c0,1.08 0,1.08 0,2.17 0,1.08 1.09,1.08 2.17,1.08l143.28 0c0,0 1.09,0 1.09,-1.08 1.09,-1.09 1.09,-1.09 0,-2.17z"></path>
   </g>
  </g>
 </g>
</svg>
