<svg xmlns="http://www.w3.org/2000/svg" width="64.773" height="36.273" viewBox="0 0 64.773 36.273">
    <defs>
        <style>
            .prefix__cls-1{fill:#fff}
        </style>
    </defs>
    <g id="prefix__Group_2680" data-name="Group 2680" transform="translate(418.726 -201.474)">
        <path id="prefix__Path_3574" d="M-363.428 241.4a3.669 3.669 0 0 0 2.441.756 3.361 3.361 0 0 0 2.943-1.308 3.734 3.734 0 0 0 .533-2.41v-6.656h-2.134v6.555a5.324 5.324 0 0 1-.065 1.054c-.129.62-.566.921-1.326.921a1.263 1.263 0 0 1-1.423-1.053 9 9 0 0 1-.033-1.391h-1.956v.418c.001 1.688.248 2.441 1.02 3.114z" class="prefix__cls-1" data-name="Path 3574" transform="translate(-41.63 -23.242)"/>
        <path id="prefix__Path_3575" d="M-287.264 242.124l1.252-6.065.366-2.005.366 2.005 1.252 6.065h2.013l2.941-10.371h-2.3l-1.369 5.939-.3 1.653-.3-1.619-1.171-5.973h-2.266l-1.171 5.973-.3 1.619-.3-1.653-1.369-5.939h-2.3l2.941 10.371z" class="prefix__cls-1" data-name="Path 3575" transform="translate(-97.029 -23.223)"/>
        <path id="prefix__Path_3576" d="M-327.359 239.992h3.871l.7 2.132h2.267l-3.7-10.371h-2.407l-3.7 10.371h2.267zm1.935-5.868l1.346 4.081h-2.692z" class="prefix__cls-1" data-name="Path 3576" transform="translate(-67.798 -23.223)"/>
        <path id="prefix__Path_3577" d="M-237.5 242.124l.7-2.132h3.871l.7 2.132h2.267l-3.7-10.371h-2.407l-3.7 10.371zm2.638-8l1.346 4.081h-2.692z" class="prefix__cls-1" data-name="Path 3577" transform="translate(-137.255 -23.223)"/>
        <path id="prefix__Path_3578" d="M-293.248 292.8a5.9 5.9 0 0 0-5.893-5.893 5.9 5.9 0 0 0-5.893 5.893 5.9 5.9 0 0 0 5.893 5.893 5.9 5.9 0 0 0 5.893-5.893zm-5.893 4.512a4.517 4.517 0 0 1-4.512-4.512 4.517 4.517 0 0 1 4.512-4.512 4.517 4.517 0 0 1 4.512 4.512 4.517 4.517 0 0 1-4.512 4.508z" class="prefix__cls-1" data-name="Path 3578" transform="translate(-87.198 -65.521)"/>
        <path id="prefix__Path_3579" d="M-291.249 297.191a3.5 3.5 0 0 0-3.5 3.5 3.5 3.5 0 0 0 3.5 3.5 3.5 3.5 0 0 0 3.5-3.5 3.5 3.5 0 0 0-3.5-3.5zm0 5.61a2.117 2.117 0 0 1-2.114-2.114 2.117 2.117 0 0 1 2.114-2.114 2.117 2.117 0 0 1 2.114 2.114 2.116 2.116 0 0 1-2.114 2.113z" class="prefix__cls-1" data-name="Path 3579" transform="translate(-95.09 -73.412)"/>
        <path id="prefix__Path_3580" d="M-355.918 213.375q-.272-.417-.58-.824a18.593 18.593 0 0 0-2.986-3.081q-.437-.362-.9-.711a26.979 26.979 0 0 0-2.516-1.659q-.537-.315-1.1-.615-.281-.15-.569-.3a36.746 36.746 0 0 0-3.668-1.614q-.323-.122-.652-.24-.986-.354-2.019-.668l-.693-.2a49.157 49.157 0 0 0-5.113-1.169q-1.521-.265-3.1-.447-.791-.091-1.595-.159c-1.608-.138-3.255-.209-4.932-.209s-3.324.071-4.932.209q-.8.069-1.595.159-1.581.181-3.1.447a49.138 49.138 0 0 0-5.113 1.169l-.693.2q-1.033.314-2.019.668-.329.118-.652.24a36.79 36.79 0 0 0-3.668 1.614q-.287.146-.569.3-.562.3-1.1.615a26.942 26.942 0 0 0-2.509 1.662q-.466.349-.9.711a18.586 18.586 0 0 0-2.986 3.081q-.307.407-.58.824a11.314 11.314 0 0 0-1.965 6.236 11.315 11.315 0 0 0 1.965 6.236q.273.417.58.824a18.586 18.586 0 0 0 2.986 3.081q.437.362.9.711a26.9 26.9 0 0 0 2.509 1.662q.536.315 1.1.615.281.15.569.3a36.853 36.853 0 0 0 3.668 1.614q.323.122.652.24.985.354 2.019.668l.693.2a49.138 49.138 0 0 0 5.113 1.169q1.521.265 3.1.447.791.091 1.595.16c1.608.137 3.255.209 4.932.209s3.324-.071 4.932-.209q.8-.069 1.595-.16 1.581-.181 3.1-.447a49.157 49.157 0 0 0 5.113-1.169l.693-.2q1.033-.314 2.019-.668.329-.118.652-.24a36.809 36.809 0 0 0 3.668-1.614q.288-.146.569-.3.562-.3 1.1-.615a26.936 26.936 0 0 0 2.509-1.662q.466-.349.9-.711a18.593 18.593 0 0 0 2.986-3.081q.307-.407.58-.824a11.313 11.313 0 0 0 1.965-6.236 11.313 11.313 0 0 0-1.958-6.239zm.033 6.236c0 4.114-3.018 8.07-8.5 11.138-5.833 3.267-13.631 5.066-21.957 5.066s-16.124-1.8-21.957-5.066c-5.48-3.069-8.5-7.024-8.5-11.138s3.018-8.07 8.5-11.139c5.833-3.267 13.631-5.066 21.957-5.066s16.123 1.8 21.957 5.066c5.485 3.069 8.5 7.028 8.5 11.139z" class="prefix__cls-1" data-name="Path 3580"/>
        <path id="prefix__Path_3581" d="M-365.158 298.429q.112-.322.254-.628.071-.153.149-.3.078-.149.163-.294l-7.018.835-10.506 1.247c-.883.093-.361.623.092 1.015a3.166 3.166 0 0 0 2.653.822l14.213-2.694z" class="prefix__cls-1" data-name="Path 3581" transform="translate(-27.711 -73.422)"/>
        <path id="prefix__Path_3582" d="M-375.2 289.649c.081-.1.165-.19.25-.282l.075-.077.2-.2.082-.077q.106-.1.217-.193l.068-.058c.1-.081.2-.159.3-.234h-22.842c-.818.045-.108 1.186.191 1.559a2.791 2.791 0 0 0 2.331.99l11.313-.848z" class="prefix__cls-1" data-name="Path 3582" transform="translate(-16.479 -66.769)"/>
        <path id="prefix__Path_3583" d="M-330.347 318.65v-.007l-.1-.3v-.011q-.044-.153-.081-.308v-.01c-.025-.105-.048-.211-.068-.317l-6.327 2.534c-.765.359.388.685.784.795a3.4 3.4 0 0 0 2.767-.164l.892-.554 2.246-1.353q-.066-.155-.113-.305z" class="prefix__cls-1" data-name="Path 3583" transform="translate(-62.542 -89.136)"/>
        <path id="prefix__Path_3584" d="M-309.158 329.827l-.08-.057q-.1-.074-.2-.151l-.106-.083c-.064-.052-.127-.106-.189-.16l-.045-.039c-.058-.051-.114-.1-.171-.157l-.052-.05q-.082-.079-.161-.161l-.049-.052c-.054-.056-.107-.113-.158-.172l-.035-.04a6.964 6.964 0 0 1-.668-.9l-1.637 1.235c-.6.374.157.691.686.773a31.648 31.648 0 0 0 3.163.213q-.15-.095-.3-.2z" class="prefix__cls-1" data-name="Path 3584" transform="translate(-81.141 -96.891)"/>
        <path id="prefix__Path_3585" d="M-348.2 308.872c0-.1 0-.208.008-.312 0-.038 0-.076.006-.113q.006-.1.015-.192c0-.045.008-.09.013-.135q.014-.132.033-.262l-11.155 2.61c-1.629.442-.018 1.126.748 1.391a3.269 3.269 0 0 0 2.079 0l8.256-2.891c-.003-.033-.003-.068-.003-.096z" class="prefix__cls-1" data-name="Path 3585" transform="translate(-45.056 -81.593)"/>
        <path id="prefix__Path_3586" d="M-236.631 299.286l-10.506-1.247-7.018-.835q.085.145.163.294c.052.1.1.2.149.3q.142.307.254.628l14.213 2.694a3.166 3.166 0 0 0 2.653-.822c.454-.389.975-.919.092-1.012z" class="prefix__cls-1" data-name="Path 3586" transform="translate(-126.221 -73.422)"/>
        <path id="prefix__Path_3587" d="M-239.148 288.531H-261.9c.1.075.2.154.3.234l.068.058q.111.094.217.193l.082.077.2.2.074.077c.086.092.17.185.25.282l7.82.583 11.313.848a2.791 2.791 0 0 0 2.331-.99c.3-.372 1.009-1.514.191-1.559-.035-.005-.064-.004-.094-.003z" class="prefix__cls-1" data-name="Path 3587" transform="translate(-120.278 -66.769)"/>
        <path id="prefix__Path_3588" d="M-245.422 320.227l-6.327-2.534c-.02.107-.043.212-.067.317v.01q-.037.156-.081.308v.011q-.044.153-.1.3v.007c-.035.1-.071.2-.11.3l2.246 1.353.892.554a3.4 3.4 0 0 0 2.767.164c.392-.105 1.544-.431.78-.79z" class="prefix__cls-1" data-name="Path 3588" transform="translate(-127.789 -89.136)"/>
        <path id="prefix__Path_3589" d="M-260.171 329.038l-1.637-1.235a6.96 6.96 0 0 1-.668.9l-.035.04c-.052.058-.1.116-.158.172l-.049.052q-.079.082-.162.161l-.052.05c-.056.053-.113.106-.171.157l-.045.039c-.062.054-.125.108-.189.16l-.106.083q-.1.077-.2.151l-.079.057q-.145.1-.3.2a31.649 31.649 0 0 0 3.163-.213c.531-.083 1.287-.4.688-.774z" class="prefix__cls-1" data-name="Path 3589" transform="translate(-118.655 -96.891)"/>
        <path id="prefix__Path_3590" d="M-239.24 310.467l-11.155-2.61q.019.13.033.262c0 .045.008.09.012.135q.009.1.015.192c0 .038 0 .076.006.113 0 .1.008.207.008.312v.1l8.256 2.891a3.269 3.269 0 0 0 2.078 0c.765-.268 2.376-.953.747-1.395z" class="prefix__cls-1" data-name="Path 3590" transform="translate(-129.105 -81.593)"/>
    </g>
</svg>
