<?xml version="1.0" encoding="utf-8"?>
<!-- Generator: Adobe Illustrator 24.1.2, SVG Export Plug-In . SVG Version: 6.00 Build 0)  -->
<svg version="1.1" id="Layer_1" xmlns="http://www.w3.org/2000/svg" xmlns:xlink="http://www.w3.org/1999/xlink" x="0px" y="0px"
     width="80px" height="40px" viewBox="0 0 80 40" style="enable-background:new 0 0 80 40;" xml:space="preserve">
<style type="text/css">
	.st0{fill:#D0D0D0;}
</style>
<g>
	<path class="st0" d="M10.1,4.5c0.6,0,0.9,0.5,1,1.4v11.5c0-0.1-0.1-0.1-0.1-0.2l0,0c-0.1,0.3,0,0.4,0.1,0.4c0,0,0,0,0,0
		c0,0,0,0,0,0v0.7c0,0,0,0-0.1,0c0,0.1,0.1,0.1,0,0.2c0,0.1,0,0.2,0.1,0.2v7.8h0v0.1h0V27H11v0.3c0,0.1,0,0.2,0.1,0.3V28
		c0,0.7-0.1,1.4-0.3,2.1h0c0,0,0,0-0.1,0v0.2h0.1c0,0,0,0.1,0,0.1c-0.1,0.4-0.2,0.6-0.3,0.8c0.1-0.3,0-0.5-0.3-0.5
		c0,0.4,0.1,0.5,0.2,0.5c-0.2,0.4-0.4,0.8-0.7,1.2l0,0c-0.1,0.2-0.2,0.4-0.4,0.5l-0.1,0.1c-0.4,0.5-0.8,0.8-1.4,1.1l-0.1-0.1
		c-0.1,0-0.1,0.1,0,0.2l-0.4,0.3c0-0.1-0.1-0.1-0.1-0.2c0,0.1,0,0.1,0,0.2l-0.9,0.4c0.1-0.1,0-0.3-0.1-0.6c0,0.1-0.1,0.1-0.1,0.2
		l0,0.1v0.1L6,35.2l-0.7,0.2l0,0v0.1c-0.2,0-0.3,0-0.5,0.1c-0.2,0-0.4,0.1-0.6,0.1c0-0.1,0-0.2-0.1-0.3c0.1,0.1,0.1,0.1,0,0.3
		c-0.3,0.1-0.7,0.1-1,0C3,35.5,3,35.3,3,35.2H2.9c0,0.1,0.1,0.3,0,0.4l-1.1-0.1l0,0v0l-0.4-0.1c0.1-0.2,0-0.5-0.1-0.7
		c0,0.1,0,0.1-0.1,0c0.1,0.1,0.1,0.2,0.1,0.4v0.3c-0.1,0-0.1,0-0.2,0c-0.2,0-0.3-0.1-0.5-0.2c-0.1-0.1-0.2-0.2-0.2-0.3
		c0-0.1,0-0.2,0-0.3c0-0.2,0-0.3,0.1-0.5c0-0.2,0.1-0.3,0.1-0.5c0.1,0.1,0.1,0.1,0.1,0.1c0.2-0.2,0.2-0.4-0.1-0.6
		c0.1-0.2,0.1-0.5,0.1-0.7c0,0,0-0.1,0-0.1v0c0-0.1,0-0.3,0-0.4c0-0.2,0.1-0.3,0.1-0.4l0.1-0.3c0-0.1,0.1-0.2,0.1-0.2
		c0.1-0.1,0.1-0.1,0.2-0.2c0.1-0.1,0.2-0.1,0.3-0.1c0,0.3,0,0.4,0,0.4c-0.1,0,0,0.1,0.1,0.2l0,0l0.1-0.1l0.1,0
		c-0.1-0.1-0.1-0.1-0.1-0.2c0-0.1,0-0.2-0.1-0.2c0.1,0,0.2,0,0.3,0l0.3,0l0,0v0h0.4v0.3c0,0.1,0,0.2,0,0.3c0,0,0.1,0,0.2,0
		c0-0.1,0-0.3,0-0.4l-0.1-0.2c0.2,0,0.4,0,0.6,0c0.4-0.1,0.7-0.2,1.1-0.3c0,0.1,0,0.1,0,0.2l0.1,0c0.1-0.1,0.2-0.2,0.1-0.4
		c0.1,0,0.2-0.1,0.4-0.3c0,0.1,0,0.1,0.1,0v-0.1c0.2-0.2,0.3-0.4,0.4-0.6l0.2,0.1c0.1-0.2,0.1-0.3,0-0.5c0.1-0.4,0.1-0.7,0.1-1.1
		c0-0.4,0-0.9,0-1.5c0.2,0.1,0.3,0.1,0.4-0.1l-0.1-0.4H6c0-0.1,0-0.1,0-0.1l-0.1,0v0c0,0,0,0,0,0c0,0,0,0,0,0v-0.1c0,0,0,0,0-0.1
		l-0.1,0v-0.5c0.1,0,0.2,0,0.2,0L6,24.7c0.1,0,0.1-0.1,0-0.2c-0.1-0.1-0.1-0.1-0.2-0.1v-0.3c0,0,0-0.1,0-0.1c0,0,0,0,0,0
		c0,0,0,0,0,0v-0.3c0.2,0,0.3,0,0.3-0.1c-0.1,0-0.1-0.1-0.1-0.1c0,0,0,0,0,0c-0.1,0-0.2-0.1-0.2-0.2v-0.7C5.9,22.4,6,22.3,6,22.3
		c0,0,0,0,0-0.1c0,0,0-0.1,0-0.2h0v-3.1l0,0h0v-2.9C5.9,16,6,16,6.1,15.9v-0.1l0-0.1L6,15.5H5.9v-0.4c0.1,0,0.1,0,0.2,0
		c0-0.1,0-0.1-0.1-0.1c-0.1,0-0.1,0-0.1,0v-0.4H6c0,0,0,0,0-0.1l0-0.1l0,0.1v-0.1c0.1-0.1,0.1-0.1,0-0.1v-0.2c0.1,0,0.1,0,0.1,0
		c0-0.1,0-0.1-0.1-0.1v-0.5c0.1,0.1,0.1,0.1,0.1,0l-0.1-0.4h0v-0.8c0,0,0.1,0,0.1,0c0,0,0,0,0,0c-0.1,0-0.1,0-0.1-0.1
		c0-0.1,0-0.1,0-0.2h0V7.3l0,0c0,0,0.1,0,0.1,0c0,0,0,0,0,0c0.1-0.1,0-0.1-0.1-0.2c0,0,0,0.1-0.1,0.1V5.7c0-0.1,0-0.2,0-0.4
		c0-0.1,0-0.2,0.1-0.3C6,5,6,4.9,6.1,4.8c0.1-0.1,0.1-0.1,0.2-0.2c0.1-0.1,0.2-0.1,0.2-0.1c0.1,0,0.2,0,0.3,0
		C7.9,4.4,9,4.4,10.1,4.5z M0.7,34.7l0-0.2l-0.1-0.1l-0.1-0.1l0-0.1l-0.1,0l0,0.1v0.2l0,0.2L0.7,34.7z M1.1,31.6l0.1,0.2l0,0
		L1.1,31.6l0-0.2l0,0L1.1,31.6z M1.3,34l0.1-0.2l-0.1-0.2l-0.1,0L1.3,34L1.3,34z M1.2,32.7L1.2,32.7l0,0.1h0V32.7z M1.8,32.9
		l-0.1,0.2l0.1,0.2l0.1-0.1v-0.3L1.8,32.9z M1.9,34.7l0-0.1l0-0.2l-0.1-0.2l-0.1,0.1l0,0.2L1.9,34.7L1.9,34.7z M2.2,31.2v0.2l0,0.3
		l0.1,0l0-0.3L2.2,31.2z M2.2,32.5v0.1l0,0.1l0,0.1l0-0.1L2.2,32.5L2.2,32.5z M2.3,33.7L2.3,33.7v0.2V33.7L2.3,33.7z M2.4,35.1
		L2.4,35.1l0-0.2l0,0L2.4,35.1z M2.7,31.8l0,0.1l0.1,0.2l0.1,0l0-0.3L2.7,31.8z M2.9,33.3L2.9,33.3l0-0.3l-0.1,0.1L2.9,33.3z
		 M3.3,31.5l0,0.1l0.1-0.1v-0.2l-0.1,0L3.3,31.5z M3.4,32.6l0.1,0.2h0.1v-0.2l-0.1-0.2l-0.1,0V32.6z M3.5,33.9L3.5,33.9L3.5,33.9
		l0.1,0v-0.1l0,0l0,0.1L3.5,33.9z M3.7,35.1L3.7,35.1L3.6,35h0L3.7,35.1L3.7,35.1z M3.8,30.5v0.2l0.1,0.1l0-0.2L3.8,30.5L3.8,30.5z
		 M4,31.9L4,31.9l0-0.1L4,31.9L4,31.9z M4.1,34.4v-0.1L4,34.2L4.1,34.4L4.1,34.4z M4.4,31.1v0.2l0.1,0.1l0-0.1L4.4,31.1L4.4,31.1z
		 M4.5,32.4l0,0.1v0.1l0,0l0.1,0l0.1-0.1l0-0.2L4.5,32.4L4.5,32.4L4.5,32.4z M4.6,33.7l0,0.2l0.1,0l0-0.2l-0.1-0.1L4.6,33.7z
		 M4.9,35.2L4.9,35.2l0-0.3H4.7l-0.1,0.1l0.1,0.1L4.9,35.2z M5.1,31.8l0,0.1l0.1,0L5.1,31.8L5.1,31.8z M5.2,32.9L5.2,32.9v0.3l0.1,0
		l0-0.1L5.2,32.9L5.2,32.9z M5.4,34.3l0-0.1l-0.1-0.2l-0.1,0l0,0.2L5.4,34.3z M5.6,30.1L5.6,30.1h0.2l0-0.2l-0.1-0.2l0,0l0,0.2
		L5.6,30.1z M5.8,32.6L5.8,32.6L6,32.4l-0.1-0.1l-0.1,0v-0.1l0,0v0.2L5.8,32.6z M5.9,15.7c0.1,0.1,0.1,0.2,0,0.2V15.7z M6,33.8v-0.2
		l0-0.2l-0.1,0l0,0.2L6,33.8L6,33.8z M6,17.1l0.1,0l0.1-0.1l0-0.1l-0.1,0H6l0,0v0L6,17L6,17.1L6,17.1L6,17.1z M5.9,26.5v0.2L6,27
		l0.2,0.1l0-0.2l-0.1-0.2l0-0.2l0-0.2H6L5.9,26.5z M6.3,28.1l-0.1-0.2l0-0.1v-0.2l0,0l0,0.1L6,28l0.1,0.3l0.2,0.1l0.1-0.1L6.3,28.1z
		 M6.1,17.9l0,0.2l0,0.2l0.1,0l0-0.1l0,0v0L6.1,17.9L6.1,17.9z M6.1,29.6l0.1,0l0.1-0.1l0-0.2l0-0.2H6.1l0,0.3L6.1,29.6z M6.1,19.2
		l0.1,0.2h0v-0.1l0-0.1l-0.1-0.3v0l-0.1,0.1V19.2z M6.1,20.2v0.2l0,0.2h0.1l0.1,0l-0.1-0.2v-0.1L6.1,20.2L6.1,20.2z M6.2,30.5l0,0.2
		l0,0l0.1-0.2l0-0.2l-0.1-0.1H6.1v0.1L6.2,30.5z M6.2,21.5L6.2,21.5l0,0.2l0,0.1l0.2,0v-0.2l-0.1-0.2l0,0v0l-0.1-0.1l0,0.1L6.2,21.5
		z M6.3,13.9L6.3,13.9l0,0.2l0.1,0h0L6.3,13.9z M6.5,22.1L6.5,22.1L6.5,22.1H6.3l0,0l0,0L6.5,22.1z M6.4,22.5L6.4,22.5l0-0.2l0,0
		l0,0.1v0.2L6.4,23h0l0.1-0.1l0-0.1v-0.2L6.4,22.5z M6.4,31.8l0,0.1l0.1,0L6.4,31.8L6.4,31.8z M6.4,23.8L6.4,23.8l0,0.3l0.1,0.1l0,0
		l0-0.3L6.4,23.8z M6.4,32.9L6.4,32.9V33l0.1,0.1h0l0-0.1L6.4,32.9z M6.4,24.9v0.2l0,0.2l0.1,0.1l0-0.1v-0.2l-0.1-0.2v-0.1l0,0v0
		l-0.1-0.1l0,0.1L6.4,24.9z M6.6,34.3l0-0.1L6.5,34H6.4l0,0.2L6.6,34.3z M6.5,16.3L6.5,16.3l0,0.1L6.5,16.3L6.5,16.3L6.5,16.3z
		 M6.5,17.2L6.5,17.2v0.2v0.1l0.1,0l0.1-0.1L6.5,17.2L6.5,17.2z M6.5,26.1v0.2l0.1,0.3h0.1v-0.2l-0.1-0.2L6.5,26.1L6.5,26.1z
		 M6.6,7.8L6.6,7.8L6.6,7.8L6.6,7.8L6.6,7.8z M6.6,27.5l0,0.2v0.1l0.1-0.1v-0.3l-0.1-0.1l0,0L6.6,27.5L6.6,27.5z M6.6,18.5l0,0.2
		v0.1l0-0.1L6.6,18.5L6.6,18.5L6.6,18.5z M6.6,28.6l0,0.3l0.1,0.3l0.1,0v-0.3l-0.1-0.3v-0.3l-0.1,0.1L6.6,28.6z M6.8,10.1V10l-0.1,0
		L6.8,10.1L6.8,10.1L6.8,10.1z M6.8,19.7L6.8,19.7l-0.1,0l0,0.2L6.8,20l0.1,0V19.7z M6.8,22L6.8,22l0,0.2l0.1-0.1v-0.4H6.8l0,0.1
		L6.8,22L6.8,22z M6.8,29.7l0,0.2l0,0.2l0.1,0.1l0,0V30L6.8,29.7L6.8,29.7z M6.8,12.1v0.1l0,0.2l0,0L6.8,12.1L6.8,12.1z M6.8,21.1
		L6.8,21.1L6.9,21l0-0.2l0,0l-0.1,0.1V21.1z M6.9,30.8L6.8,31l0,0.2l0.1,0.2H7v-0.2l0-0.3L6.9,30.8z M7,32.5L7,32.5l0-0.3l-0.1,0.1
		L7,32.5z M7,14.6L7,14.6l-0.1-0.1L7,14.6L7,14.6z M6.9,23v0.2L7,23.4l0-0.1l0-0.1L6.9,23L6.9,23z M7.1,24.7l0.1,0.1l0-0.1L7,24.3
		H6.9v0.2L7.1,24.7z M7,25.4L7,25.4L7,25.4L7,25.4L7,25.4z M7.1,33.7v-0.1l0,0L7.1,33.7L7.1,33.7z M7.1,15.9L7.1,15.9l0.1-0.2l0-0.2
		l0,0V15.9L7.1,15.9z M7.1,17h0.1l0-0.2l0-0.1l0,0l-0.1,0L7.1,17z M7.1,9.4L7.1,9.4l0,0.2l0,0l0-0.2L7.1,9.4L7.1,9.4z M7.1,17.7
		L7.1,17.7l0.1,0.1L7.1,17.7z M7.3,18.2l0.1-0.1L7.2,18l-0.1,0v0.1l0,0.1H7.3z M7.1,26.9l0,0.2l0.1,0v-0.2l-0.1-0.1h0V26.9z
		 M7.2,8.4L7.2,8.4L7.2,8.4L7.2,8.4L7.2,8.4z M7.3,10.6l0-0.1l-0.1,0H7.2v0L7.3,10.6L7.3,10.6z M7.2,20.3v0.1l0.1,0.1l0.1,0.1l0.1,0
		l0-0.2l-0.1-0.2l-0.1,0L7.2,20.3z M7.2,28l0,0.2l0.1,0l0-0.2L7.2,28L7.2,28z M7.2,19.3L7.2,19.3L7.2,19.3l0.1,0L7.2,19.3L7.2,19.3z
		 M7.3,29.4l0,0.1l0.1-0.1v-0.3L7.3,29h0v0.2L7.3,29.4z M7.4,19.2L7.4,19.2V19V19.2L7.4,19.2z M7.3,21.4L7.3,21.4l0.1,0.1l0,0.1v0
		l0.1,0l0-0.2l0-0.2l0-0.1l-0.1,0v0l0,0L7.3,21.4L7.3,21.4z M7.4,30.4l0,0.2l0.1,0.1l0-0.2L7.4,30.4z M7.6,22.8l0-0.2l-0.1-0.2
		l-0.1-0.1l0,0.1l0,0.1l0,0.1l0,0.1l0,0.1l0,0.1L7.6,22.8L7.6,22.8z M7.5,14L7.5,14L7.5,14L7.5,14l0-0.2h0L7.5,14z M7.5,32l0.1-0.1
		l0-0.1l-0.1,0L7.5,32L7.5,32z M7.7,23.9l-0.1-0.2l-0.1-0.1v0.3l0,0.3l0,0L7.7,24V23.9z M7.6,15.9L7.6,15.9L7.6,15.9l0,0.4l0.1,0
		l0-0.2L7.6,15.9z M7.6,33l0.1,0.1L7.6,33L7.6,33z M7.7,25.3l0-0.3v-0.1l0,0.1V25.3L7.7,25.3z M7.9,17.4L7.9,17.4l-0.2,0l0,0.1
		l0.1,0L7.9,17.4z M7.7,18.6L7.7,18.6h0.1v-0.1l0-0.1l0,0L7.7,18.6L7.7,18.6z M7.7,27.2L7.7,27.2l0.1,0.2v0L7.7,27.2L7.7,27.2z
		 M7.9,19.5L7.9,19.5l-0.1,0.3l0.1,0l0,0.1V19.5z M7.9,28.9L7.9,28.9v-0.3h0L7.9,28.9L7.9,28.9z M8,21L8,21l0-0.3l0,0l0,0v0L8,21
		L8,21l0,0.1L8,21z M7.9,21.8L7.9,21.8v0.3H8v-0.1L7.9,21.8z M7.9,22.3L7.9,22.3L7.9,22.3L7.9,22.3L7.9,22.3L7.9,22.3L7.9,22.3z
		 M8,23L8,23v0.3h0.1v-0.2L8,23z M7.9,30v0.1V30L7.9,30L7.9,30z M8,24.1l0,0.1l0,0.2l0.1,0.2l0,0v-0.3l0-0.1L8,24.1z M8,31.2L8,31.2
		l0.1,0.1l0,0L8,31.2l0-0.1L8,31.2z M8.1,15.4v0.1l0,0.2h0.1l0-0.2L8.1,15.4z M8.1,32.1l0,0.2h0L8.1,32.1L8.1,32.1z M8.2,25.5
		l-0.1,0.1l0.1,0.2l0.1,0l0-0.1l0-0.2L8.2,25.5z M8.3,16.9v-0.2l-0.1-0.1l0,0.1L8.3,16.9L8.3,16.9z M8.2,26.9L8.2,26.9l0.2-0.1
		l-0.1,0L8.2,26.9z M8.2,33.5L8.2,33.5L8.2,33.5L8.2,33.5z M8.3,18v-0.1l0-0.1l0,0v0.1L8.3,18l0,0.1L8.3,18z M8.4,19.1L8.4,19.1
		L8.3,19v0.3l0.1,0L8.4,19.1z M8.3,20.2l0.1,0.2l0,0v-0.1L8.3,20.2L8.3,20.2z M8.3,29.3l0,0.2l0,0.1l0-0.1L8.3,29.3L8.3,29.3
		L8.3,29.3z M8.4,11.6v0.1l0,0.1L8.4,11.6L8.4,11.6z M8.4,21.1v0.1l0,0.3l0.1,0.1v-0.2L8.4,21.1L8.4,21.1z M8.5,13.7L8.5,13.7l0,0.2
		l0,0.1h0l0-0.1L8.5,13.7z M8.6,30.7v-0.2l-0.1-0.1l0,0.1L8.6,30.7L8.6,30.7z M8.6,22.6l0,0.2l0,0.1l0.1,0L8.6,22.6L8.6,22.6z
		 M8.6,23.9l0,0.2l0.1,0l0-0.1v-0.2l0-0.1v-0.1l-0.1,0L8.6,23.9z M8.7,16L8.7,16L8.7,16L8.7,16z M8.7,25.9L8.7,25.9l0,0.3v0.3l0.1,0
		l0-0.1l0-0.2l0-0.1L8.7,25.9L8.7,25.9L8.7,25.9z M8.9,25.1l0-0.2l-0.1,0v0.2l0.1,0.1L8.9,25.1z M8.7,33.1L8.7,33.1l0-0.2l-0.1,0
		L8.7,33.1z M8.8,18.2L8.8,18.2L8.8,18.2L8.8,18.2L8.8,18.2L8.8,18.2z M8.8,18.5v0.1l0,0L8.8,18.5L8.8,18.5l0-0.1L8.8,18.5z
		 M8.8,27.4l0.1,0.2H9v-0.2l0-0.2l0,0l0,0V27l0,0l-0.1,0.2V27.4z M8.9,15.5L8.9,15.5L8.9,15.5L8.9,15.5L8.9,15.5z M9.1,20.7
		L9.1,20.7l-0.2,0.1l0,0l0.1,0L9.1,20.7z M8.9,28.6v0.2l0.1,0l0.1-0.2L8.9,28.6L8.9,28.6z M9,12L9,12l0,0.2l0,0L9,12L9,12z M9,13.1
		L9,13.1v0.1l0,0.1h0v-0.1L9,13.1z M9,22.2L9,22.2l0.1-0.3h0L9,22L9,22.2z M9.1,29.7L9.1,29.7L9,30l0.1,0l0-0.2L9.1,29.7z M9.1,30.5
		L9.1,30.5L9,30.6l0,0.1L9.1,30.5L9.1,30.5z M9,31.1l0,0.2l0,0.1l0.1-0.1v-0.2l-0.1-0.1L9,31.1z M9.3,23.3l0-0.1V23l-0.1,0l0,0.2
		L9.3,23.3l0,0.1L9.3,23.3L9.3,23.3z M9.3,32.4v-0.2l-0.1-0.1l-0.1,0.1L9.3,32.4L9.3,32.4z M9.2,7.1L9.2,7.1L9.2,7.1L9.2,7.1
		L9.2,7.1L9.2,7.1z M9.3,8.1L9.3,8.1v0.1V8.1L9.3,8.1L9.3,8.1z M9.3,24.6L9.3,24.6l-0.1-0.1L9.3,24.6L9.3,24.6z M9.3,15.5L9.3,15.5
		l-0.1,0.2l0-0.1L9.3,15.5z M9.4,9.2L9.4,9.2L9.4,9.2L9.3,9.4h0.1V9.2L9.4,9.2z M9.3,10.4L9.3,10.4l0.1,0.1L9.3,10.4L9.3,10.4
		L9.3,10.4z M9.3,25.7L9.3,25.7L9.3,25.7l0-0.2h0V25.7z M9.4,26.8l-0.1-0.1L9.4,26.8l0,0.1L9.4,26.8z M9.3,27.7l0,0.2l0.1,0.1v-0.1
		L9.3,27.7L9.3,27.7z M9.5,18.1L9.5,18.1l0-0.1L9.5,18.1L9.5,18.1z M9.4,18.9v0.2l0.1,0.1l0-0.1L9.4,18.9L9.4,18.9z M9.5,29.2
		l0.1,0.3l0.1,0l0-0.2L9.5,29L9.5,29.2z M9.5,12.9L9.5,12.9l0.1-0.1l-0.1-0.2L9.5,12.9z M9.6,13.6L9.6,13.6v0.2l0.1,0L9.6,13.6
		L9.6,13.6z M9.7,22.4L9.7,22.4l0,0.2l0.1,0.2l0,0v-0.1L9.7,22.4z M9.6,30.4L9.6,30.4l0.1,0l-0.1-0.1L9.6,30.4z M9.7,6.6L9.7,6.6
		L9.7,6.6L9.7,6.6L9.7,6.6z M9.7,14.8L9.7,14.8L9.7,15v0.1l0,0L9.8,15L9.7,14.8L9.7,14.8z M9.7,23.5L9.7,23.5L9.7,23.5l0,0.2h0
		L9.7,23.5L9.7,23.5z M9.8,31.9L9.8,31.9v-0.3l0,0l0,0v0.1L9.8,31.9z M10,17.3L9.8,17h0v0.2l0.1,0.2l0.1,0.1L10,17.3L10,17.3z
		 M9.9,23.9L9.9,23.9H9.8H9.9l0,0.1L9.9,23.9L9.9,23.9z M10,25l-0.1-0.2l-0.1-0.1V25l0.1,0.2l0.1-0.1L10,25z M9.8,26l0,0.2l0.1,0.2
		H10l0.1-0.2l0-0.2L9.8,26L9.8,26l0.1-0.1l0-0.1v-0.1l-0.1,0l-0.1,0.1V26z M9.9,16.2V16l0,0L9.9,16.2L9.9,16.2z M9.9,18.4l0,0.1
		L9.9,18.4l0.1,0L9.9,18.4L9.9,18.4z M9.9,27.6H10l0.1-0.2L10,27.2l-0.1-0.1C9.9,27.1,9.9,27.6,9.9,27.6z M10.2,19.8l-0.1-0.1
		L10,19.4l0-0.1v0.1l0,0.1l0.1,0.2L10.2,19.8L10.2,19.8z M10,28.6v0.3l0,0l0.1,0l0-0.1l0-0.2L10,28.6L10,28.6z M10.2,29.9l0.1-0.2
		l-0.1,0l-0.1,0.2L10.2,29.9z M10.2,18.4L10.2,18.4l0,0.3l0.1,0l0-0.1V18.4L10.2,18.4L10.2,18.4z M10.2,21.9l0-0.2l0,0.1v0.3l0,0.1
		l0,0L10.2,21.9z M10.2,23.7L10.2,23.7l0.2,0l0,0L10.2,23.7L10.2,23.7z M10.3,15.6L10.3,15.6l0.1,0.1L10.3,15.6L10.3,15.6z
		 M10.4,24.2L10.4,24.2v0.2l0,0L10.4,24.2z M10.4,16.8L10.4,16.8l-0.1-0.2v0.1L10.4,16.8L10.4,16.8z M10.4,25.6L10.4,25.6l0.1,0
		l-0.1-0.1L10.4,25.6z M10.5,17.9v-0.1l-0.1-0.1v0.1L10.5,17.9L10.5,17.9z M10.5,26.7L10.5,26.7v0.2l0,0l0-0.1L10.5,26.7z
		 M10.6,19.1l0-0.2l-0.1-0.1l0-0.1v0.2L10.6,19.1L10.6,19.1z M10.5,27.4v0.1V27.4L10.5,27.4L10.5,27.4z M10.5,27.9L10.5,27.9l0,0.2
		l0.1,0V28L10.5,27.9L10.5,27.9z M10.6,20.1l0.1,0.1L10.6,20.1L10.6,20.1L10.6,20.1z M10.8,29.3v-0.1l0,0l0-0.1v-0.2h-0.1l0,0.2v0.2
		H10.8L10.8,29.3z M10.6,12.5v0.2l0,0.1h0l0,0v0L10.6,12.5L10.6,12.5L10.6,12.5z M10.7,21.3L10.7,21.3L10.7,21.3l0-0.1v-0.1l0,0
		V21.3L10.7,21.3z M10.8,22.3L10.8,22.3l-0.1,0L10.8,22.3L10.8,22.3L10.8,22.3z M10.7,13.9L10.7,13.9L10.7,13.9v-0.1V13.9L10.7,13.9
		z M10.8,6.3v0.1l0,0.1h0V6.4L10.8,6.3L10.8,6.3z M10.8,14.7v0.2l0.1,0L10.8,14.7L10.8,14.7L10.8,14.7z M11,23.6l-0.1-0.1l0,0l0,0.1
		v0.2l0,0.2l0,0.1l0,0l0-0.2V23.6z M11,25.1v-0.2l0-0.2v-0.2h-0.1l0,0.2l0.1,0.1v0.1l0,0.1L11,25.1L11,25.1L11,25.1z M10.9,16.2
		L10.9,16.2l0-0.3h-0.1v0.2L10.9,16.2z"/>
	<path class="st0" d="M31.7,32.6c0.3,1.2,0.2,2-0.1,2.4c-0.2,0.2-1.5,0.3-3.9,0.3c-0.3,0-0.6-0.1-0.9-0.3c-0.3-0.7-0.5-1.5-0.5-2.2
		c0,0,0-0.1,0-0.1l-0.1,0l-0.1-1c0.1-0.1,0.1-0.1,0-0.2v0c0-0.1,0-0.1,0-0.2v-0.2c0,0,0-0.1,0-0.3s-0.1-0.4-0.1-0.5
		c0-0.2-0.1-0.4-0.2-0.6c-0.1-0.2-0.2-0.4-0.3-0.6c-0.1-0.2-0.3-0.3-0.5-0.4c-0.2-0.1-0.4-0.2-0.6-0.2h-0.1l0.1-0.2c0,0-0.1,0-0.1,0
		l-0.1,0c0-0.3,0-0.5-0.1-0.5c-0.1,0.2-0.1,0.3,0,0.4c-0.1,0.1-0.1,0.2,0,0.4l-0.1,0h-0.9V28H23c0,0,0,0-0.1,0v0.3
		c-0.5,0-1,0.2-1.3,0.5C21.2,29.4,21,30,21,30.7l-0.6,3.5c-0.1,0.5-0.5,0.9-1,1l0,0v0h0c-0.3,0-0.6,0-0.9,0h0c-1.2,0-2.1,0-2.5,0
		c-0.2,0-0.3-0.1-0.5-0.1l0,0c0,0-0.1-0.1-0.3-0.2C15,34.4,14.9,34,15,33.6l0.1,0.1c0-0.1,0-0.2-0.1-0.3c0-0.1,0-0.2,0-0.3
		c0-0.1,0-0.1,0-0.2l0-0.4c0,0,0.1,0,0.1,0v-0.1c-0.1-0.1-0.1,0-0.1,0c0-0.1,0-0.3,0.1-0.4c0-0.2,0.1-0.3,0.1-0.5
		c0-0.1,0.1-0.3,0.1-0.5c0-0.1,0-0.3,0-0.4c0.2,0,0.2-0.2,0.1-0.5l0.4-1.9c0,0.1,0,0.1,0.1,0.1c0,0,0,0,0,0c0-0.1,0-0.2-0.1-0.3
		c0-0.1,0.1-0.2,0-0.3c0-0.1,0.1-0.2,0.1-0.3h0v-0.3l0.1,0c0,0.1,0,0.1,0,0c0,0,0-0.1,0-0.1h-0.1c0,0-0.1,0-0.1,0
		c0-0.2,0.1-0.4,0.1-0.8c0.1-0.3,0.1-0.6,0.1-0.8h0.2c0.1-0.2,0.1-0.4-0.1-0.4l0.3-1.8c0-0.1,0.1-0.7,0.3-1.8c0,0,0.1-0.4,0.2-1.1
		c0,0.1,0.1,0.2,0.2,0.3c0.1-0.2,0.1-0.4,0-0.6c0,0-0.1,0-0.1-0.1l0.4-2.5c0.2,0.1,0.3,0,0.3-0.1c0-0.1-0.1-0.2-0.1-0.4h-0.1
		c0.1-1,0.3-1.9,0.5-2.6v0c0-0.1,0.1-0.4,0.1-0.9s0.1-0.8,0.1-0.9c0,0,0.1,0,0.1,0h0c0,0,0,0,0-0.1c0.1-0.1,0-0.1,0-0.1
		c0.1,0,0.1,0,0.1,0v-0.2h-0.1l0.2-1.3c0-0.4,0.1-0.9,0.2-1.3c0.1,0,0.1-0.1,0.2,0l-0.1-0.2l0.3-1.5c0,0,0.1,0.1,0.2,0c0,0,0,0,0,0
		c-0.1-0.1-0.1-0.1-0.1-0.2c0-0.1,0-0.2,0-0.2c0,0,0-0.1,0-0.1V7.4l0.2-1.3c0-0.5,0.2-0.9,0.5-1.3c0.3-0.3,0.7-0.4,1.1-0.4
		c0.1,0,0.1,0.1,0,0.1l0,0c0,0,0.1,0,0.1,0c0,0,0-0.1,0-0.1h1l0,0.1h0l0.1,0c-0.1-0.1-0.1-0.1,0-0.1l0.1,0l0,0h0.9
		c0,0,0,0.1,0.1,0.1V4.4h1l0,0v0h1.1c0.3,0,0.6,0.1,0.9,0.2c0.2,0.1,0.3,0.3,0.4,0.5l0,0c0,0.1,0,0.1,0.1,0.2V5.3l0.1,0.4
		c0.1,0.4,0.1,0.7,0.2,0.8l0.3,1.7c0,0.3,0.1,0.6,0.2,1c0.1,0.2,0.1,0.5,0.1,0.7c0,0-0.1,0-0.1,0l0,0.3c0.1,0,0.1,0,0.1,0l0,0.1v0.1
		l-0.1-0.1c0,0.2,0,0.4,0.1,0.5v-0.1c0.1,0.4,0.2,0.8,0.2,1.2c0.1,0.6,0.1,1,0.2,1.3l0.4,2.5l0,0.3c0.1,0.1,0.1,0.1,0.1,0
		c0.1,0.6,0.3,1.6,0.5,3c0.3,1.9,0.5,2.9,0.5,3v0l0,0.2l0,0.2c0,0,0,0.1,0,0.2l1.1,6.4c0,0.1,0,0.2,0.1,0.3c0.1,0.5,0.2,1.1,0.3,1.9
		C31.6,31.8,31.7,32.3,31.7,32.6z M15.7,31.7l-0.1,0.2l0.1,0.1l0-0.2L15.7,31.7z M15.8,34.5l0-0.2l0-0.1L15.7,34l-0.1,0v0.1
		L15.8,34.5L15.8,34.5z M15.8,33l0-0.1L15.8,33L15.8,33z M16,28.6L16,28.6L16,28.6L16,28.6z M16.1,29.9v-0.3L16,29.5l0,0.3
		L16.1,29.9L16.1,29.9z M16.3,31.1L16.3,31.1v0.2V31.1z M16.4,32.5l0.1,0L16.4,32.5l-0.1-0.3l-0.1,0.1L16.4,32.5z M16.3,33.7
		L16.3,33.7L16.3,33.7L16.3,33.7L16.3,33.7z M16.5,26.5l-0.1,0.2l0.2,0.1l0-0.1l0-0.1L16.5,26.5z M16.7,27.7l-0.3-0.2l0.1,0.5
		L16.7,27.7z M16.5,28.6v0.5l0.3,0.2v-0.2L16.7,29l0-0.2l0-0.1L16.5,28.6L16.5,28.6L16.5,28.6L16.5,28.6z M16.6,30.2L16.6,30.2
		l0,0.4l0.1-0.2L16.6,30.2z M16.6,31.6l0.1,0.3l0.1,0.1l0.1-0.3L16.6,31.6z M16.7,32.7l0,0.3l0,0.2H17l0-0.3L16.7,32.7z M16.9,23.4
		L16.9,23.4l0,0.3l0.1-0.1L16.9,23.4z M16.9,34.2l0.1,0.2L16.9,34.2L16.8,34L16.9,34.2z M17.1,24.8l0-0.2L17,24.5h0v0.2l0,0v0.1
		L17.1,24.8z M17.2,25.9l-0.1-0.3L17,25.5v0.2l0.1,0.2H17.2z M17.2,27.2l-0.2,0l0.1,0.3l0.1,0L17.2,27.2z M17.1,27.9l0,0.1
		L17.1,27.9L17.1,27.9z M17.4,28.5l-0.1-0.2l-0.1,0v0.2l0,0.2l0.1,0L17.4,28.5z M17.2,29.4L17.2,29.4l0,0.3v0.2h0l0-0.1l0.1-0.1
		L17.2,29.4L17.2,29.4z M17.3,30.5l-0.1,0.3l0.1,0.4l0.1,0l0.1-0.1l0-0.3L17.3,30.5z M17.4,32.3l0,0.1l0.1-0.3L17.3,32L17.4,32.3z
		 M17.4,21.4v0.4l0,0.1h0.1l0-0.2L17.4,21.4L17.4,21.4z M17.5,33.3l0,0.2l0,0.1l0.1,0.1l0-0.2L17.5,33.3z M17.7,24.1l0-0.2l-0.1,0
		h-0.1V24l0.2,0.3L17.7,24.1z M17.6,35l0-0.1l0-0.3l-0.1-0.1l0,0.3L17.6,35z M17.7,18.3L17.7,18.3v0.2l0.4,0.4l0-0.4l-0.2-0.1
		l0.1-0.2l0-0.1l-0.2,0.1V18.3z M17.8,25.3l0-0.2l-0.1-0.2v0.3l0.1,0.3L17.8,25.3z M17.7,26.4l0.1,0.3l0.1-0.2l-0.2-0.3V26.4z
		 M18,19.4l-0.1-0.1l0-0.1h-0.1l-0.1,0.4l0.2,0.5l0.2-0.1v-0.1L18,19.7l-0.2-0.2L18,19.4z M17.8,20.8l0,0.4l0.1,0.1l0.1-0.1l0-0.1
		L18,20.7L17.8,20.8z M18,28.7l-0.2,0l0.1,0.4l0.1,0.1L18,28.7z M17.9,22.1l0.1,0.2l0,0.1l0.2-0.3l-0.3-0.2V22.1L17.9,22.1z M18,30
		l-0.1,0.2l0.2,0.2v-0.2L18,30z M17.9,31.4l0,0.4l0.1,0.2l0-0.4v-0.3H18L17.9,31.4z M18.1,23.3l0,0.2l0,0.1l0.2-0.2L18.1,23.3z
		 M18.3,34.3l0-0.1l0-0.1l0-0.2v-0.2l-0.2,0.4L18.3,34.3z M18.3,15.4l-0.2,0.1l0.2,0.3l0.1,0l0-0.1L18.3,15.4z M18.3,24.7L18.3,24.7
		l-0.2-0.2v0.1L18.3,24.7L18.3,24.7z M18.2,25.6l-0.1,0.1l0.1,0.2l0.1,0v-0.2L18.2,25.6z M18.4,16.7l-0.1-0.3v0l0.1,0h0l-0.1-0.1
		l-0.1,0l0,0.4l0.1,0.4l0.1,0L18.4,16.7z M18.4,18.3l0.1-0.3l-0.1-0.2l-0.1-0.1l-0.1,0.1l0,0.3L18.4,18.3z M18.2,26.9v0.4l0.2,0.2
		l0.1-0.3l-0.2-0.3l0-0.2l-0.1,0L18.2,26.9z M18.3,28.3l0.3,0.1l-0.1-0.4L18.3,28.3z M18.5,19.5l0.1-0.4L18.3,19l0,0.2h0.1l0,0.1
		L18.5,19.5L18.5,19.5z M18.4,29.6l0.1,0.3l0-0.2L18.4,29.6L18.4,29.6z M18.6,20.2L18.5,20l0.1-0.2l-0.2,0l0,0.3v0.6l0.2,0.2
		l0.1-0.2L18.6,20.2z M18.6,13.4l-0.1,0.1l0,0.1l0,0l0,0.1l-0.1,0l0.1,0.1l0.1-0.2L18.6,13.4l0.2,0L18.6,13.4L18.6,13.4z M18.5,21.6
		l0.1,0.2l0.1,0v-0.2l-0.1-0.4l-0.1,0.1V21.6z M18.5,30.9l0,0.2l0,0.1h0.1L18.5,30.9L18.5,30.9z M18.5,32.2l0.1,0.1l0.1,0v-0.2
		L18.6,32L18.5,32.2z M18.8,22.4l-0.2,0.3l0.1,0.4l0-0.3L18.8,22.4z M18.8,24l-0.2-0.2l0,0.3L18.8,24z M18.8,15.2l0.1-0.2l-0.1-0.2
		v-0.1l-0.1-0.1l0,0l0,0.3L18.8,15.2z M18.9,16l-0.2-0.2l0,0.2l0.3,0.4H19l-0.1-0.1L18.9,16z M18.8,17.1L18.8,17.1l0-0.1L18.8,17.1
		L18.8,17.1z M18.8,34.6L18.8,34.6l0,0.1L18.8,34.6z M18.9,35L18.9,35h-0.2H18.9z M18.8,15.7L18.8,15.7L18.8,15.7L18.8,15.7
		L18.8,15.7z M18.8,25.2v0.2V25.2L18.8,25.2L18.8,25.2z M18.9,18.4L18.9,18.4v0.4l0.1,0.1l0.1-0.2L18.9,18.4L18.9,18.4z M18.8,26.6
		l0,0.1l0.1-0.1H18.8z M19,11.9L18.9,12l0,0.1l0.1,0v0.1l0.2,0l0.1-0.1l-0.1-0.3l-0.1-0.2l0,0L19,11.9L19,11.9z M19.1,19.7l-0.2-0.2
		l0,0.2l0,0.3L19.1,19.7z M19.1,10.9h-0.2l0,0.1l0,0L19.1,10.9L19.1,10.9z M19,27.9l0-0.2L19,27.6l0,0.2L19,27.9z M19,20.9l0.1,0.4
		h0.1l0.1-0.2l-0.1-0.4L19,20.5L19,20.9z M19.2,10.6l-0.1,0l0,0.1h0.1V10.6z M19.3,13.2V13l-0.1-0.2h0l0-0.1l-0.1,0l0.1,0.1L19.1,13
		l0,0.1l0.1,0l0,0.1l-0.1,0.1l0.1,0L19.3,13.2z M19.2,19.3L19.2,19.3L19.2,19.3L19.2,19.3z M19.2,22.2L19.2,22l0,0.2l0,0.3
		L19.2,22.2z M19.2,31.5L19.2,31.5v0.4V31.5z M19.4,14l-0.1-0.1L19.2,14l0.1,0v0.1l0,0.1l0,0.1l0,0.2l0.1,0l0-0.1l0-0.2V14z
		 M19.2,15.2l0.1,0.4v0.2l0.1,0v-0.4L19.2,15.2z M19.3,23.3l-0.1,0.2l0,0.1h0.1l0-0.2L19.3,23.3z M19.2,24.4L19.2,24.4l0.2,0
		L19.2,24.4z M19.4,25.8v-0.1l-0.2,0L19.4,25.8z M19.4,34.2L19.4,34.2V34l-0.1,0l0,0l0,0L19.4,34.2L19.4,34.2L19.4,34.2L19.4,34.2z
		 M19.3,24.6v0.2l0.2,0L19.3,24.6z M19.5,9.1L19.5,9.1l0,0.2l0.1-0.2l-0.1-0.1L19.5,9.1z M19.4,16.7V17V16.7L19.4,16.7z M19.5,10
		l0,0.1l-0.1,0l0,0.1h0.1l0,0v-0.1L19.5,10z M19.5,18.2l0-0.2v0.1L19.5,18.2z M19.6,26.9L19.5,27h0.1V26.9z M19.5,28l0,0.3l0,0.2
		l0.1,0l0-0.2V28L19.5,28z M19.5,18.9V19l0.1,0L19.5,18.9z M19.6,27.1L19.6,27.1l0,0.1L19.6,27.1L19.6,27.1z M19.6,11.7L19.6,11.7
		v-0.2v-0.2l0-0.1l0,0.2l0,0.2L19.6,11.7L19.6,11.7z M19.6,29.6l-0.1-0.2L19.6,29.6l0,0.2l0,0.1L19.6,29.6z M19.7,12.5l-0.1-0.2l0,0
		L19.7,12.5l-0.1,0.1l0,0.1l0-0.1V12.5L19.7,12.5z M19.6,20.4L19.6,20.4v-0.3V20.4z M19.6,31L19.6,31l0.1-0.2v-0.2l-0.1-0.1V31z
		 M19.7,13.8L19.7,13.8v-0.3l-0.1,0L19.7,13.8L19.7,13.8z M19.7,21.4l0,0.3l0.1,0.1L19.7,21.4L19.7,21.4z M19.6,31.8L19.6,31.8
		L19.6,31.8L19.6,31.8L19.6,31.8L19.6,31.8z M19.8,13.9L19.8,13.9L19.8,13.9L19.8,13.9L19.8,13.9L19.8,13.9z M19.9,15l0-0.1
		l-0.1-0.2l0,0l-0.1,0v0.2L19.9,15z M19.7,32.5L19.7,32.5l0.2-0.2l-0.2-0.2v0.2L19.7,32.5z M19.7,15.6L19.7,15.6h0.1H19.7L19.7,15.6
		z M19.9,16.3l0-0.3l0.1-0.1l0,0l-0.1,0l-0.1-0.1l0.1,0.3L19.9,16.3z M19.8,22.7l0,0.2l0,0.1h0.1l0,0L19.8,22.7L19.8,22.7z
		 M19.9,7.1L19.9,7.1l0,0.2l0.1,0.1V7.4L19.9,7.1z M19.9,23.8l-0.1-0.1L19.9,23.8V24V23.8z M20,25.1L19.8,25L20,25.1L20,25.1z
		 M20,17.6l0.1,0L20,17.2l-0.1,0.1L20,17.6z M20,34.8v-0.1l-0.1-0.1l0,0l0,0.1l0,0.1L20,34.8z M20,8.2h-0.1l0,0.3L20,8.6V8.2z
		 M20.1,9.7l0-0.2H20l0-0.1L20.1,9.7l0,0.1L20.1,9.7z M20,26.5l0.1,0.2l0.1-0.2l-0.1-0.3l-0.1,0V26.5z M20.2,10.9v-0.2l0,0l0-0.1
		l0,0v0.2l0.1,0.2L20.2,10.9z M20.1,20.8l0,0.3v0.1h0.1l-0.1-0.3L20.1,20.8z M20.2,12l0-0.2v0l-0.1,0v0.2L20.2,12z M20.2,12.8l0,0.2
		l0.1,0.2l0.1,0L20.2,12.8L20.2,12.8L20.2,12.8z M20.1,27.8L20.1,27.8l0.1-0.1l0-0.1l-0.1,0L20.1,27.8z M20.2,5.4L20.2,5.4v0.1
		l0,0.1l0.1,0L20.2,5.4l0-0.1L20.2,5.4z M20.3,22.1l-0.1,0l0.1,0.4V22.1z M20.3,29.2l0-0.4l-0.1-0.4v0.3L20.3,29.2L20.3,29.2z
		 M20.2,29.9l0,0.2l0.1,0.1l0-0.1L20.2,29.9z M20.2,14.2l0,0.3l0.1,0v-0.3L20.2,14.2z M20.2,31.3l0,0.2v0.2l0.1,0v-0.4L20.2,31.3
		L20.2,31.3z M20.3,15.3l0,0.3l0.1,0.1l0-0.1l0-0.2l0-0.1v-0.1l-0.1-0.1L20.3,15.3z M20.3,7.8h0.1l-0.1-0.2V7.8z M20.3,32.9l0.1-0.1
		l-0.1-0.1L20.3,32.9z M20.6,16.6l-0.2-0.1l-0.1,0.2l0.2,0.2l0.1-0.1V16.6z M20.5,24.5l-0.1,0.2l0.2,0L20.5,24.5L20.5,24.5z
		 M20.4,17.7L20.4,17.7l0.1,0.1L20.4,18l0.1,0.1h0.1v-0.2l-0.1-0.2l0,0v-0.1l-0.1-0.1l0,0.1V17.7z M20.6,8.9L20.6,8.9L20.6,8.9
		l0,0.1l0,0.1l0.1,0.1V8.9z M20.6,25.8v-0.2l0,0v-0.1l-0.1,0v0.1L20.6,25.8L20.6,25.8L20.6,25.8z M20.6,10L20.6,10l0-0.2l0,0V10
		L20.6,10z M20.5,19.1l0.1,0.3l0.1-0.2l0-0.3l-0.1-0.1l0.1,0l0-0.1l0-0.1l-0.1,0.1L20.5,19.1z M20.6,7.1L20.6,7.1L20.6,7.1v0.2V7.1
		L20.6,7.1z M20.6,10L20.6,10l0,0.4l0,0V10z M20.6,20.1l0,0.3l0.3-0.1L20.6,20.1z M20.6,12.5L20.6,12.5l0.1,0.1l0-0.1l0-0.1
		L20.6,12.5z M20.6,28.6l0.1-0.3v-0.2l0-0.1l0,0V28.6z M20.7,4.7L20.7,4.7L20.7,4.7l0,0.2l0.1,0.1V4.7L20.7,4.7z M20.8,29.7
		L20.8,29.7l0,0.2L20.8,29.7z M20.9,13.8v-0.2l0-0.1l-0.1,0.1l0,0.2L20.9,13.8L20.9,13.8z M20.9,21.8l0-0.3l-0.2-0.1L20.9,21.8z
		 M20.7,22.5l0.1,0.3v0.1l0.1,0l0-0.3L20.7,22.5z M20.8,30.7L20.8,30.7v0.2V30.7z M20.9,14.9l0.2,0.1l0,0v0h0l0,0l0-0.2l0-0.1
		l-0.1,0.1L20.9,14.9z M20.9,15.5l-0.1,0L20.9,15.5L20.9,15.5L20.9,15.5z M20.9,22.4L20.9,22.4l0-0.3l0,0l-0.1,0.1L20.9,22.4
		L20.9,22.4z M21.1,24L21,23.7l-0.1-0.1l0,0.1l0,0.4L21.1,24z M21,24.7L21,24.7l0,0.2v-0.1L21,24.7z M21,6.2L21,6.2L21,6.2L21,6.2z
		 M21,15.8L21,15.8L21,15.8L21,15.8z M21,16.2L21,16.2l0-0.2L21,16.2L21,16.2z M21,25.3l0.2-0.1L21,25.1L21,25.3z M21,7.1v0.2l0,0.1
		l0,0V7.1L21,7.1z M21,16.7h0.1v-0.1l0,0L21,16.7z M21,17.1l0,0.2l0.1,0.2l0.1-0.1L21,17.1L21,17.1z M21.1,18.6l0.1-0.2L21,18.3
		L21.1,18.6z M21,26.2v0.3l0.1,0.1l0.1-0.1l-0.1-0.2L21,26.2z M21.2,27.7l0.1,0l0-0.2l-0.2,0L21.2,27.7z M21.2,9.6L21.2,9.6v0.2
		l0.1,0L21.2,9.6L21.2,9.6z M21.1,19.3v0.4h0.1L21.1,19.3z M21.3,10.9v-0.2l-0.1-0.1v0L21.3,10.9L21.3,10.9z M21.2,20.7l0.1,0.3
		l0.1,0.1l0-0.3L21.2,20.7z M21.4,5.2l-0.1,0.1l0,0.1l0.1,0V5.2z M21.3,12L21.3,12l0-0.1L21.3,12z M21.4,5.7L21.4,5.7L21.4,5.7
		L21.4,5.7z M21.5,6.5L21.5,6.5L21.5,6.5L21.5,6.5l-0.2,0.2l0,0.1l0.1,0l0-0.1V6.5L21.5,6.5z M21.4,13.9l0,0.2l0.1,0.3l0.1,0.1v0
		l0.1,0l-0.1-0.3L21.4,13.9z M21.3,21.9l0,0.3l0.1-0.2L21.3,21.9z M21.4,15.2L21.4,15.2l0.1,0.2v-0.1L21.4,15.2L21.4,15.2z
		 M21.4,23.2v0.1l0.1,0.2l0.1,0l0-0.1L21.4,23.2L21.4,23.2z M21.5,7.9L21.5,7.9L21.6,8l0-0.1H21.5z M21.7,16.5l-0.2-0.2L21.7,16.5
		l-0.1,0.4l0.2,0.1L21.7,16.5z M21.7,8.8l-0.1-0.2l-0.1-0.1l0,0.1l0.1,0.3l0.1,0.1V8.8z M21.7,15.5h-0.1l0,0.2l0.1,0.1l0.1-0.1
		L21.7,15.5z M21.5,25.7l0.2,0.3l0.1-0.2l-0.2-0.3L21.5,25.7z M21.7,7.9L21.7,7.9l0-0.3l-0.1,0L21.7,7.9L21.7,7.9z M21.6,17.6l0,0.3
		l0.1,0.3l0.1-0.1l0-0.3l-0.1,0L21.6,17.6L21.6,17.6l0.2-0.1l-0.1-0.1l-0.1,0.1V17.6z M21.7,10.3l0.1-0.1l-0.1-0.2l-0.1,0L21.7,10.3
		z M21.7,18.9l0,0.3l-0.1,0l0,0.1l0.2-0.1l0-0.3l-0.1-0.2l-0.1,0L21.7,18.9z M21.8,11.5l0.1,0L21.8,11.5l0-0.3L21.7,11l0,0.1
		l0.1,0.2L21.8,11.5z M21.7,20.1l0,0.3v0.2h0.1l0.1,0v-0.3L21.7,20.1z M21.7,12.2L21.7,12.2h0.1H21.7L21.7,12.2z M22,10.1L22,10.1
		l-0.2,0.1l0.2,0.2l0-0.1L22,10.1L22,10.1L22,10.1z M21.9,12.5l-0.1,0.1L21.9,12.5L21.9,12.5L21.9,12.5z M22,28.4v-0.3l-0.2,0
		L22,28.4L22,28.4z M21.9,13.8L21.9,13.8L21.9,13.8l0-0.4l-0.1-0.1v0.2L21.9,13.8z M22,6l-0.1,0L22,6L22,6z M22,15.3L22,15.3v0.1
		V15.3l0.1,0L22,15.3z M22.1,7.3L22.1,7.3L22,7.2v0.2L22.1,7.3L22.1,7.3z M22,15.8l0,0.1l0,0.3l0.1-0.2L22,15.8z M22,23.7l0.1,0.4
		l0.1-0.3L22,23.4L22,23.7z M22.2,8.5l0-0.2h0L22.2,8.5L22.2,8.5z M22.2,17.2l-0.1-0.1l0,0.3L22.2,17.2z M22.3,9.5V9.3l-0.1,0
		L22.3,9.5L22.3,9.5L22.3,9.5z M22.3,18.4l-0.2-0.1l0,0.2l0.1,0.1l0.1,0L22.3,18.4z M22.1,24.9v0.2h0.2L22.1,24.9L22.1,24.9z
		 M22.2,26.3l0.1,0.3l0.1-0.2l-0.1-0.2l-0.1,0V26.3z M22.4,10.5L22.4,10.5L22.4,10.5l-0.1,0l0,0.3l0.1,0.2V10.5z M23.9,23.3
		c0.5,0,0.8-0.1,0.9-0.3c0.1-0.3,0.1-0.6,0-0.9V22h0c0.1-0.1,0.1-0.2,0-0.3c-0.1,0-0.1-0.1,0-0.2h-0.1c-0.3-1.7-0.5-2.6-0.5-2.7
		c0-0.2-0.1-0.5-0.3-0.7c-0.1-0.2-0.3-0.3-0.5-0.3c-0.3,0.1-0.4,0.4-0.5,0.9c0-0.1,0-0.1,0-0.2h-0.1c0,0.1,0.1,0.2,0,0.3v0.3
		c-0.1,0.2-0.1,0.7-0.3,1.3v-0.1h-0.1c-0.1,0.2-0.1,0.4,0,0.6c0,0.2-0.1,0.6-0.2,1.3c0,0.2,0,0.4,0,0.6c0,0.2,0.1,0.4,0.4,0.4l0,0.2
		c0.1,0,0.1-0.1,0-0.1c0.3,0,0.6,0.1,0.9,0h0.1v0.1L23.9,23.3L23.9,23.3z M22.3,19l0,0.1l0,0V19L22.3,19z M22.3,19.5L22.3,19.5v0.2
		l0.1,0.1l0,0L22.3,19.5L22.3,19.5z M22.3,27.7l0.2-0.1l-0.1-0.2l0,0V27.7z M22.4,11.6v0.2l0.1,0L22.4,11.6z M22.5,12.9L22.5,12.9
		v-0.1l-0.1,0.1L22.5,12.9L22.5,12.9L22.5,12.9z M22.4,14L22.4,14l0.2-0.1h-0.1L22.4,14L22.4,14z M22.5,5.4L22.5,5.4l0,0.2l0.1,0
		V5.6L22.5,5.4z M22.5,13.1L22.5,13.1L22.5,13.1L22.5,13.1z M22.6,6.5L22.6,6.5l0-0.2l0-0.1l0,0.2L22.6,6.5L22.6,6.5z M22.6,15.1
		l-0.1,0.1l0.1,0.3l0,0.2l0-0.1l0-0.3v-0.2L22.6,15.1L22.6,15.1z M22.7,7.9l0-0.2l-0.1-0.2l-0.1,0.2L22.7,7.9L22.7,7.9z M22.6,16.3
		l0,0.1l-0.1,0.2l0,0.1l0.1,0l0.1-0.2L22.6,16.3l0-0.3l-0.1,0.1L22.6,16.3z M22.6,24.4l0.1,0l-0.1-0.2L22.6,24.4z M22.8,9L22.8,9
		l0-0.3l-0.1,0.2L22.8,9L22.8,9z M22.7,25.8L22.7,25.8l0.1,0v-0.2h-0.1l0,0.1l0,0L22.7,25.8z M22.8,10.1l0.1-0.1l-0.1-0.3V10.1z
		 M23,18L23,18h-0.2H23L23,18z M22.9,27.2L23,27l-0.1-0.2v0.2L22.9,27.2z M22.9,11.7L22.9,11.7L22.9,11.7L22.9,11.7z M22.9,12.2
		l0,0.1l0.1,0l0,0l0.1,0.1l0,0L22.9,12.2L22.9,12.2z M22.9,13.4L22.9,13.4L22.9,13.4L22.9,13.4L22.9,13.4z M23.1,4.6L23,4.8l0.2,0
		L23.1,4.6L23.1,4.6z M23.1,14.4L23.1,14.4v0.2l0,0L23.1,14.4z M23.1,6L23.1,6L23.1,6L23.1,6L23.1,6z M23.1,14.7l0,0.2l0,0l0.1,0
		h0.1l0,0L23.1,14.7L23.1,14.7z M23.4,7.2l0-0.2l-0.2,0l0.1,0.2H23.4z M23.1,15.8L23.1,15.8l0.1,0.2l0.1-0.1L23.1,15.8L23.1,15.8z
		 M23.3,24L23.3,24v-0.2l0-0.1l0-0.2l-0.1,0.1l0,0.4H23.3z M23.3,7.9l-0.1,0l0.1,0.1L23.3,7.9L23.3,7.9z M23.3,17.1l-0.1,0.1l0,0.2
		l0,0l0-0.1L23.3,17.1z M23.4,7.6L23.4,7.6h-0.1H23.4z M23.4,8.3L23.4,8.3l0-0.1l0-0.1l-0.1,0l0,0.2l0,0.2l0.1,0L23.4,8.3z
		 M23.3,9.4L23.3,9.4L23.3,9.4L23.3,9.4z M23.5,10.5l-0.1-0.3l-0.1,0.1v0.3l0.1,0.2L23.5,10.5z M23.5,26.5L23.5,26.5L23.5,26.5
		L23.5,26.5L23.5,26.5z M23.5,17.3L23.5,17.3L23.5,17.3L23.5,17.3z M23.5,11.9L23.5,11.9L23.5,11.9l0.2,0l0-0.1l-0.1-0.1V11.9
		L23.5,11.9z M23.5,13.1L23.5,13.1l0,0.1l0.1-0.1l0-0.1l-0.1,0L23.5,13.1z M23.7,5.3l-0.2,0l0,0.2h0.1V5.4L23.7,5.3L23.7,5.3z
		 M23.6,12.8L23.6,12.8L23.6,12.8L23.6,12.8z M23.6,13.8L23.6,13.8l0,0.4l0,0.1l0-0.2L23.6,13.8L23.6,13.8z M23.8,6.7V6.6l-0.1-0.2
		l0,0v0.2L23.8,6.7z M23.8,7.7L23.8,7.7l-0.1-0.2h-0.1l0,0.1l0.1,0.1l0.1,0.1h0L23.8,7.7L23.8,7.7L23.8,7.7z M23.7,14.9l0,0.2v0.1
		l0.1,0.1l0,0.1v0.2l0-0.1v-0.4L23.7,14.9L23.7,14.9z M23.7,24.4l0.1,0l0-0.1l-0.1-0.1L23.7,24.4z M23.8,8.6L23.8,8.6l0-0.2
		L23.8,8.6z M23.9,16.3l-0.1,0.2l0.1,0.3l0-0.1V16.3z M23.8,8.8l0.1,0.2V9l0-0.1V8.7L23.8,8.8z M23.9,25.4l-0.1,0.1l0.1,0.1
		L23.9,25.4z M23.9,10.2L24,9.9l-0.2-0.2l0,0.3L23.9,10.2z M23.8,17.6v0.3l0,0l0-0.1L23.8,17.6L23.8,17.6z M24.1,27v-0.3l-0.2,0l0,0
		V27L24.1,27L24.1,27z M23.9,12.1L23.9,12.1l0.1,0.3l0.1,0v-0.2L24,12L23.9,12.1z M24.1,11.1l0-0.1L24.1,11.1H24l0,0.2l0.1,0.2
		l0.1-0.2L24.1,11.1z M23.9,24.4L23.9,24.4L23.9,24.4L23.9,24.4z M24,12.4L24,12.4l0,0.1l0.1,0L24,12.4z M24.2,13.5l-0.2,0l0.1,0.3
		L24.2,13.5z M24.1,4.8l0,0.1h0.1L24.1,4.8L24.1,4.8z M24.1,5.9L24.1,5.9l0-0.1L24.1,5.9L24.1,5.9z M24.1,6L24.1,6l0.1,0.1L24.1,6
		L24.1,6z M24.1,14.8l0.1,0L24.1,14.8l0.1,0.1l0.1,0l-0.1-0.1l0-0.2l-0.1-0.1l0,0l0,0.1V14.8z M24.4,7L24.4,7h-0.2H24.4l0,0.1l0,0.1
		h0.1V7z M24.2,15.6l0,0.3l0,0.1l0.1,0.1l0.1,0v-0.2L24.2,15.6L24.2,15.6z M24.3,17l0,0.1v0.2l0.1-0.1L24.3,17L24.3,17z M24.5,8.1
		l0-0.1l-0.1,0.1v0.2l0.1,0h0.1l-0.1,0L24.5,8.1z M24.3,23.8l0.1,0.1l0-0.2l0-0.1l-0.1-0.1V23.8z M24.5,18.2h-0.2l0,0.1l0,0
		L24.5,18.2z M24.4,25h0.2l0-0.3L24.4,25z M24.5,9.4L24.5,9.4L24.5,9.4v0.1l0.1,0L24.5,9.4L24.5,9.4L24.5,9.4L24.5,9.4L24.5,9.4z
		 M24.6,10.6h-0.1l0.1,0.2L24.6,10.6z M24.5,11.8l0.1-0.2l-0.1-0.2l0,0.1l0.1,0v0L24.5,11.8z M24.5,19.7l0.3,0.1v-0.2l-0.1-0.1
		l-0.1-0.2l0,0V19.7z M24.8,12.9l0-0.2v-0.1l-0.1,0.2l0,0.2L24.8,12.9z M24.7,5.3L24.7,5.3v0.2V5.3L24.7,5.3z M24.8,20.7L24.8,20.7
		h-0.1l0,0.2L24.8,20.7z M24.7,6.3l0.1,0L24.7,6.3l0-0.2l-0.1,0L24.7,6.3L24.7,6.3l0,0.1L24.7,6.3z M25,7.4L25,7.4L25,7.4h-0.3h0.1
		v0.1l0,0.2l0,0.1l0-0.1h0l0,0l-0.1,0h0L25,7.4L25,7.4z M24.7,14.1l0,0.2h0l0-0.1L24.7,14.1L24.7,14.1z M24.8,15.3L24.8,15.3
		l0.1,0.2h0l0.1,0l-0.1-0.2l0-0.2h0l0,0L24.8,15.3z M24.8,22.1L24.8,22.1L24.8,22.1L24.8,22.1z M24.8,24.1l0,0.2v0.1l0,0.1H25l0,0
		v-0.2l-0.1,0L24.8,24.1L24.8,24.1z M24.9,8.7L24.9,8.7v0.1l0,0.1h0.2V8.8L24.9,8.7L24.9,8.7z M25,9.6l-0.1,0.1l0,0.2l0.1,0.2l0.1,0
		l0.1-0.1l0-0.1v0l0-0.1H25l0,0h0.1L25,9.6L25,9.6z M25,25.7l0.1-0.1l-0.2-0.1L25,25.7z M25,16.8l0-0.2l0-0.1L25,16.8L25,16.8z
		 M24.9,17.5v0.1V17.5L24.9,17.5z M25.2,10.6L25.2,10.6l-0.2-0.1h0l0-0.1H25l0,0.1l0,0l0,0.2v0h0.1L25.2,10.6z M25,18.7v0.2l0.1,0.2
		l0-0.1L25,18.7L25,18.7L25,18.7z M25.2,11.4l0.1-0.1l0-0.1l-0.1,0l0,0l0-0.1L25,11.1l0,0.2L25.2,11.4z M25.2,12.2L25.2,12v-0.1
		L25,11.8v0.3l0.2,0.3L25.2,12.2L25.2,12.2z M25.2,19.8L25.1,20l0.1,0.2h0l0-0.2L25.2,19.8z M25.1,27L25.1,27l0.1,0l0-0.3l-0.1,0.1
		L25.1,27z M25.1,4.6L25.1,4.6l0.1,0.1l0,0l0,0.1h0.1l0-0.2L25.1,4.6L25.1,4.6z M25.2,13.2L25.2,13.2l0,0.2L25.2,13.2L25.2,13.2z
		 M25.2,27.9L25.2,27.9l0,0.1v0.1l0,0L25.2,27.9z M25.5,7l-0.1-0.2V6.7l-0.1,0l0,0.2L25.3,7l0,0v0.2l0.1,0.1L25.5,7z M25.3,14
		L25.3,14L25.3,14L25.3,14L25.3,14z M25.2,14.7l0,0.1l0.2,0l0.1-0.1l-0.1-0.2l-0.1,0L25.2,14.7z M25.2,21.2l0,0.3l0.1,0l0-0.1v-0.2
		l0,0l0-0.1L25.2,21L25.2,21.2z M25.5,6l-0.1-0.1h-0.1V6H25.5L25.5,6z M25.4,15.8l0,0.1h0.1L25.4,15.8l0.1,0.1l0-0.1l-0.1-0.2v-0.1
		l0,0.1V15.8z M25.4,22.4l0,0.2h0.2L25.4,22.4L25.4,22.4z M25.4,23.5v0.1l0.1,0.2l0.1,0v-0.2l0-0.2L25.4,23.5z M25.5,8.2l0-0.3
		l-0.1,0v0.1l0,0.2l0,0L25.5,8.2z M25.5,15.9L25.4,16l0.1,0.1V15.9z M25.6,9.4l0-0.2l-0.1-0.1l-0.1,0l0,0.1L25.6,9.4L25.6,9.4z
		 M25.6,16.9l-0.2,0l0.1,0.3L25.6,16.9z M25.5,24.9l0,0.1l0.1,0v-0.2L25.5,24.9L25.5,24.9z M25.7,9.4L25.7,9.4l-0.2,0L25.7,9.4
		L25.7,9.4L25.7,9.4z M25.8,19.4l-0.3-0.2l0.2,0.4L25.8,19.4z M25.7,26.1l-0.2,0l0.1,0.3L25.7,26.1z M25.7,17.9L25.7,17.9L25.7,17.9
		L25.7,17.9L25.7,17.9L25.7,17.9z M25.6,27.5l0.1,0.2l0,0l0.1-0.2l0-0.1l-0.1,0l0-0.1l-0.1-0.1L25.6,27.5z M25.8,12.8L25.8,12.8
		L25.8,12.8l0.1,0.1v-0.1l0-0.2L25.8,12.8z M25.9,28.2L25.9,28.2l-0.1,0L25.9,28.2L25.9,28.2z M25.9,30L25.9,30v-0.3l-0.1,0.1
		L25.9,30z M26.1,14.1l0-0.1l0,0h-0.1l-0.2,0l0,0.1l0.2,0.2V14.1z M25.9,21.8L25.9,21.8l-0.1,0.3L26,22L25.9,21.8z M26,23.2l0,0.1
		l0.1,0L26,23l-0.1,0l0,0.2L26,23.2z M26,28.9v-0.1l0-0.2l0-0.1l0,0v0.4L26,28.9L26,28.9L26,28.9z M26,7.4L26,7.4v0.2v0.2l0-0.1
		L26,7.4z M26,15.2L26,15.2l0,0.2l0.1-0.1L25.9,15L26,15.2z M26.1,9l0-0.3l-0.2,0l0,0.2l0.1,0L26.1,9L26.1,9z M26,16.1l0,0.3
		l0.2,0.3l0-0.1l0-0.1v0l0.1,0l-0.1-0.1L26,16.1l0.1,0L26,16.1L26,16.1z M26.2,21.4l-0.1,0L26.2,21.4L26.2,21.4z M26.2,10.1l0-0.3
		l-0.2-0.2v0.1l0.1,0.2L26.2,10.1z M26.1,17.4l0.1,0.3l0.1,0.1v-0.5L26.1,17.4z M26.3,25.7L26.3,25.7L26.3,25.7l-0.1-0.3l-0.1,0
		L26.3,25.7z M26.3,10.9l0-0.2l-0.1,0L26.3,10.9L26.3,10.9L26.2,11l0,0.1l0.1,0l0,0l0.1,0.1l0-0.1V10.9z M26.3,18.7l-0.1,0l0.1,0.3
		h0.1v0L26.3,18.7z M26.2,26.8l0.1,0l-0.1-0.2L26.2,26.8z M26.3,12.1l0.2-0.1l-0.2,0V12.1z M26.3,20.1l0,0.1l0,0h0.1v-0.1l0-0.2
		l0-0.3l-0.1,0l0,0.2L26.3,20.1L26.3,20.1z M26.3,4.6v0.2l0,0l0.1,0h-0.1L26.3,4.6L26.3,4.6z M26.5,13.3l-0.2,0.1l0.1,0.3L26.5,13.3
		z M26.3,12.3L26.3,12.3v-0.1V12.3z M26.3,14.3l0.1,0.3l0.1,0.2h0.1l0-0.1l0-0.2l0-0.1L26.3,14.3L26.3,14.3z M26.5,21.5l0.1-0.2
		L26.5,21l-0.1,0.1L26.5,21.5L26.5,21.5z M26.5,29.3L26.5,29.3v0.2V29.3z M26.5,6.8L26.5,6.8L26.5,6.8l0,0.1L26.5,6.8z M26.4,15.6
		v0.1V15.6l0.1,0L26.4,15.6L26.4,15.6z M26.4,30.4v0.2l0.2,0L26.4,30.4L26.4,30.4z M26.6,7.1L26.6,7.1L26.6,7.1L26.6,7.1L26.6,7.1
		L26.6,7.1z M26.6,26.9L26.6,26.9L26.6,26.9L26.6,26.9L26.6,26.9z M26.6,16L26.6,16L26.6,16l0-0.1v-0.1h-0.1L26.6,16L26.6,16z
		 M26.6,8.2L26.6,8.2L26.6,8.2l-0.1,0.2l0.1,0V8.2z M26.6,22.7L26.6,22.7l0-0.2L26.6,22.7L26.6,22.7z M26.6,23.6l0-0.1L26.6,23.6
		L26.6,23.6z M26.7,32.2V32h-0.1L26.7,32.2L26.7,32.2z M26.8,10l-0.1,0.1l0,0.1L26.8,10z M26.7,18.2l0,0.1l0.1-0.2L26.7,18
		L26.7,18.2z M26.8,24.9L26.8,24.9l0-0.2L26.8,24.9L26.8,24.9L26.8,24.9z M27,11.7l-0.1-0.2l-0.1,0v0.1l0,0.2h0.1l0,0L27,11.7z
		 M27,27.6L27,27.6l-0.1-0.2L27,27.6L27,27.6z M27,6.3v0.1V6.3L27,6.3z M27.1,14.1v-0.3H27L27.1,14.1z M27,14.6L27,14.6v0.1V14.6
		L27,14.6z M27.2,15L27,15.1l0.2,0.4l0.1-0.1l0-0.1L27.2,15z M27.1,21.9L27.1,21.9l0,0.3L27.1,21.9z M27.1,7.4l0,0.1l0.1,0.2V7.5
		L27.1,7.4z M27,22.9l0,0.3l0.2-0.2l-0.1-0.3L27,22.9z M27.3,8.7l-0.1-0.3l-0.1-0.2v0.1l0,0v0.2l0.1,0.2L27.3,8.7l0,0.1L27.3,8.7z
		 M27.2,14.5L27.2,14.5h-0.1H27.2L27.2,14.5z M27.1,16.5l0.1,0.1l0-0.2l-0.1-0.3l0-0.2l0,0C27.1,16,27.1,16.5,27.1,16.5z M27.2,17.2
		L27.2,17.2L27.2,17.2l0.1,0.1l0-0.1L27.2,17.2z M27.1,9.5L27.1,9.5l0.1,0.3l0.1,0.1V9.6l-0.1-0.2L27.1,9.5L27.1,9.5z M27.2,24.3
		l0,0.2l0,0l0-0.2H27.2z M27.3,16.8L27.3,16.8l0,0.1L27.3,16.8L27.3,16.8z M27.3,25.5v0.2l0.1,0L27.3,25.5l0-0.2L27.3,25.5z
		 M27.4,11L27.4,11l-0.1,0.1l0.1,0.1l0-0.1l0-0.2l0-0.1l0,0L27.4,11l0-0.1L27.4,11z M27.4,11.7L27.4,11.7v-0.1V11.7L27.4,11.7z
		 M27.4,17.6l-0.1-0.2L27.4,17.6l0,0.2L27.4,17.6z M27.4,33.8L27.4,33.8l0-0.1l-0.1,0L27.4,33.8L27.4,33.8z M27.4,11.8L27.4,11.8
		L27.4,11.8L27.4,11.8z M27.4,18.5v0.3l0.1,0.3v-0.3L27.4,18.5L27.4,18.5z M27.5,12l-0.1,0.2l0.2,0L27.5,12z M27.4,26.8l0-0.2l0-0.1
		l0-0.1v0.3L27.4,26.8z M27.5,13.4l0.1,0.2l-0.1-0.4l0-0.4l-0.1,0.4L27.5,13.4z M27.5,20l-0.1,0.1h0.2L27.5,20z M27.5,21.3l0.1,0.1
		l0.1,0l0.1-0.2l-0.1-0.1l-0.1-0.1l0,0.1L27.5,21.3z M27.7,14.4l-0.1-0.1L27.7,14.4v0.2l0.1,0l0-0.1l0,0h-0.1V14.4z M27.6,15.7
		l0.1,0.2v-0.3l-0.1-0.2V15.7z M27.7,22.2l0,0.2l0.1,0.3l0.1-0.3l0-0.2L27.7,22.2z M27.9,17L27.9,17h-0.1H27.9L27.9,17z M27.7,23.5
		v0.2l0.3,0l-0.1-0.1L27.7,23.5z M27.8,24.7l0,0.2l0.1,0.1l0.1,0v-0.2L27.8,24.7z M27.9,18l0,0.2v0.1l0.1,0l0-0.1L27.9,18L27.9,18z
		 M28,11.4L28,11.4l0,0.3l0.2,0.1v-0.2L28,11.4L28,11.4z M28,26.3l0-0.2L28,26v0l0,0.1L28,26.3L28,26.3z M28.1,19.1l-0.1,0l0,0.2
		l0.1,0.2l0.1-0.1v-0.1L28.1,19.1z M28.1,12.7L28.1,12.7v-0.2v-0.1l0,0l0,0.2L28.1,12.7z M28,19.1L28,19.1l0-0.1h0V19.1z M28.2,20.5
		L28.2,20.5L28.2,20.5L28.2,20.5z M28.2,14L28.2,14v-0.2v-0.1l0,0.1L28.2,14z M28.3,28.5l-0.2,0l0.1,0.2l0.1,0V28.5z M28.3,23l0-0.1
		l-0.1,0L28.3,23L28.3,23L28.3,23z M28.4,15.2l0-0.3v-0.1l-0.1-0.1v0.3l0.1,0.3L28.4,15.2z M28.3,29.7l0,0.2l0.2,0L28.3,29.7z
		 M28.5,16.3l-0.1-0.2l-0.1,0.2l0,0.2l0.1,0L28.5,16.3z M28.3,31.4l0.1,0v-0.1l0-0.2L28.3,31V31.4z M28.4,17.8l0.1-0.2l0-0.2
		l-0.1,0.1l0,0.2L28.4,17.8z M28.5,24.2L28.5,24.2l0,0.2L28.5,24.2z M28.4,18.7L28.4,18.7l0.2,0.2v-0.2H28.4L28.4,18.7z M28.4,32.4
		l0.1,0.1v-0.1L28.4,32.4L28.4,32.4l0-0.2L28.4,32.4z M28.6,20.2l0.1-0.3l-0.1-0.3l-0.1,0.1l0,0.3l0,0.1L28.6,20.2L28.6,20.2z
		 M28.5,34.9l0.2,0.2l0-0.2L28.5,34.9z M28.8,22.4v0.2H29L28.8,22.4L28.8,22.4z M29.1,23.6l-0.2-0.2l0,0.3L29.1,23.6z M28.9,30.4
		L28.9,30.4L28.9,30.4L28.9,30.4l0-0.3L28.9,30.4L28.9,30.4z M28.9,16.7l0,0.2l0,0.1l0,0l0-0.2L28.9,16.7L28.9,16.7z M29,18.2
		l0.1-0.2l-0.2,0L29,18.2L29,18.2z M29.1,24.9l0.1-0.2l-0.1-0.1L29,24.7L29.1,24.9z M29,31.8h0.1l0-0.2L29,31.6L29,31.8z M29.1,19.1
		l0,0.3v-0.7l0,0l0,0.2L29.1,19.1z M29.1,32.9L29.1,32.9v0.2l0,0L29.1,32.9L29.1,32.9z M29.1,26.1L29.1,26.1l0.1-0.2L29.1,26.1z
		 M29.2,34.6l0-0.2l0-0.3l0-0.1l-0.1,0.1l0,0.3L29.2,34.6z M29.2,27.1v0.1l0.1,0v-0.1L29.2,27.1z M29.3,21.6l0,0.2l0.2,0.1v-0.3
		H29.3L29.3,21.6z M29.3,28.6l0.1,0.1l0.1-0.1l-0.1-0.2l-0.1,0V28.6z M29.5,29.7L29.5,29.7l0,0.2L29.5,29.7L29.5,29.7z M29.5,22.9
		L29.5,22.9l0,0.2l0.1,0L29.5,22.9z M29.7,24l-0.2,0.1l0.2,0.1L29.7,24z M29.5,31.1L29.5,31.1l0-0.2h-0.1L29.5,31.1z M29.6,25.4v0.2
		l0.1,0L29.6,25.4L29.6,25.4z M29.8,26.6L29.8,26.6h-0.1H29.8z M29.8,33.7v-0.1V33.7L29.8,33.7z M29.9,28.1l0.2-0.1l-0.2-0.1l0,0
		L29.9,28.1z M30.1,23.6L30.1,23.6L30.1,23.6l0-0.1L30.1,23.6z M30.2,24.8l0.1-0.2l-0.1-0.1L30.2,24.8z M30.4,26.1L30.4,26.1l0-0.1
		L30.4,26.1L30.4,26.1z M30.5,27.3L30.5,27.3v-0.2V27.3z M30.7,29.5l-0.1,0.2l0.1,0.2l0,0l0-0.1L30.7,29.5z M30.8,31.1L30.8,31.1
		l-0.1-0.3l0,0L30.8,31.1L30.8,31.1l0,0.2L30.8,31.1L30.8,31.1L30.8,31.1z M30.9,33.6L30.9,33.6l0-0.2l-0.1,0l0,0.1V33.6z
		 M31.2,31.7l0.2,0.1l0-0.2l-0.1-0.2l-0.1,0v0.1l0,0V31.7z M31.6,34.3L31.6,34.3L31.6,34.3L31.6,34.3z"/>
	<path class="st0" d="M59.2,5.1c0.1,0.2,0.1,0.5,0,0.7v0l-0.2-0.1c0,0,0,0,0,0s0,0,0,0l0,0.1c-0.1,0.1-0.1,0.1-0.1,0L59.1,6
		c0,0.1,0,0.1,0,0c0,0.1,0,0.2,0,0.3h0c0,0.1,0,0.2,0,0.3c0,0.1,0,0.2,0,0.3c-0.1,0.7-0.1,1.3-0.3,2l-0.2-0.2c0,0.1,0,0.2,0,0.4v0.3
		l0.1,0l-0.4,2.5l0,0c-0.1,0.1-0.1,0.2,0,0.3c-0.1,0.4-0.2,1-0.3,1.8l-0.2-0.2c-0.1,0.1-0.1,0.2,0,0.2c0,0,0,0.1,0,0.1l0,0
		c0,0.3,0.1,0.4,0.1,0.4H58l0,0.4h0l0,0.5L57.6,17l-0.1,0c-0.1,0.1-0.2,0.3-0.1,0.4c0,0,0,0,0,0h0l-0.1,0.7l-0.1,0.7
		c0,0.1,0,0.2,0,0.3c0,0.1,0,0.2,0,0.2c-0.1-0.3-0.2-0.5-0.3-0.4c0.1,0.4,0.1,0.5,0.1,0.6H57c0,0,0.1,0,0.1,0
		c-0.1,0.3-0.1,0.6-0.1,0.8c0-0.1-0.1-0.1-0.1-0.1c0,0.1,0,0.2,0.1,0.4l-0.3,1.8l-0.1-0.1l0,0c0,0-0.1,0-0.1,0c0,0,0,0,0,0
		c0,0,0,0.1,0,0.1v0.1c0,0,0.1,0,0.1,0l-0.1,0.8v0.2c-0.1,0.3-0.3,2-0.8,5.1c0,0,0,0-0.1,0l0,0.1v0.4c-0.1,0.7-0.2,1.5-0.4,2.3
		l-0.4,2.2c0,0.2,0,0.4,0,0.5c0,0.4-0.1,0.8-0.4,1.1c-0.3,0.2-0.7,0.3-1,0.3c-1,0.1-2,0-3,0c-0.5,0-1-0.4-1-0.9c0,0,0,0,0-0.1
		c-0.1-1.3-0.4-3-0.8-5c0.1,0,0.1-0.1,0-0.3c-0.1-0.4-0.2-1-0.3-1.8c0-0.8-0.2-1.6-0.5-2.3c0-0.2-0.2-0.3-0.4-0.3
		c-0.2,0-0.4,0.1-0.5,0.2c-0.2,0.4-0.4,0.9-0.4,1.3c0,0.1-0.1,0.4-0.1,0.8l-0.1,0.9v0l0,0.3c-0.1,0.1-0.1,0.1,0,0.1
		c-0.2,1.3-0.4,3.1-0.7,5.1c0,0.7-0.2,1.3-0.6,1.9c-0.6,0.3-1.3,0.4-1.9,0.3h-1.1c-0.1,0-0.3,0-0.5,0c-0.2,0-0.3,0-0.5-0.1
		c-0.1-0.1-0.3-0.1-0.4-0.2c-0.1-0.1-0.3-0.2-0.3-0.3c-0.1-0.1-0.1-0.3-0.2-0.5c-0.2-1-0.4-2.1-0.6-3.4l-1-6c-0.1-0.8-0.5-2.8-1-6h0
		l0-0.1l-0.4-2.1l-0.4-2.1c0,0,0.1,0,0.1,0c0,0,0-0.1-0.1-0.1h0.1v0c0,0-0.1-0.1-0.1-0.1c0-0.1,0-0.1,0-0.2c0-0.1,0-0.1-0.1-0.2v0.2
		l-0.5-2.8h0c0-0.1,0-0.1,0-0.2L36,9.9c0-0.2-0.1-0.3-0.1-0.5c0-0.2-0.1-0.4-0.1-0.5c0-0.1,0-0.2-0.1-0.4c0.1-0.1,0.1-0.1,0-0.3
		c-0.1-0.3-0.1-0.6-0.1-0.9h0.2c-0.1-0.1,0-0.1,0-0.2l0-0.1v0c0-0.1,0-0.1,0.1,0c0,0,0-0.1,0-0.1V6.9c0,0-0.1,0-0.1,0l0,0.1V6.9
		h-0.1c0,0.2,0,0.3,0,0.5c0-0.1,0-0.1,0-0.2c0-0.1,0-0.1,0-0.2c0-0.1,0-0.2,0-0.4c-0.2-1-0.1-1.7,0.3-1.9h0c0.3-0.1,0.6-0.2,0.9-0.2
		c0,0,0,0,0.1,0v0h1.1v0.1l-0.1,0l0.1,0.1c0,0,0.1,0,0.1,0c0,0,0-0.1,0-0.1H38l0,0c0.1,0,0.3,0,0.4,0l-0.1,0c0,0.1,0,0.1,0,0.1
		c0-0.1,0.1-0.1,0.1-0.1V4.6H39c0,0.1,0,0.1,0.1,0.1c0,0,0-0.1,0-0.1c0.1,0,0.3,0,0.4,0v0.1c0,0,0,0,0,0c0,0,0,0,0,0l0.1,0
		c0.2,0,0.3,0,0.5,0.1c0,0,0,0.1,0,0.1c0,0,0,0,0,0c0,0,0.1,0,0.1,0c0.3,0.2,0.5,0.5,0.5,0.8v0.2c0,0.1,0,0.1,0,0.2h0
		c0,0.1-0.1,0.2,0,0.3c0,0.1,0,0.2,0,0.3l0.2,0l0.1,0.6c0,0.1,0,0.2,0,0.3c0,0.1,0,0.1,0,0.2c0,0,0,0.1,0,0.1l-0.1-0.1
		c0,0,0,0,0-0.1c0,0,0,0.1-0.1,0.1c0.1-0.1,0-0.2,0-0.3c0,0,0.1,0,0.1,0c0,0,0,0,0,0c0,0,0,0,0,0c0-0.1,0-0.1,0-0.1V7.2
		c0,0-0.1,0-0.1,0h-0.1c0,0,0,0.1,0,0.1v0.1c0,0.1,0,0.2,0,0.3c0.1,0,0.2,0,0.4,0l0.1-0.1c0.1,0.4,0.1,0.7,0.2,1.1V9l0,0l0,0.2
		l0.1,0.1v0.1l0,0.1c0,0.1,0.1,0.1,0,0.2c0,0.1,0,0.2,0,0.3c0,0.1,0.1,0.4,0.1,0.7c0,0.3,0.1,0.6,0.2,0.9l0.2,1.6l0,0
		c0,0.1,0,0.1-0.1,0c0,0.1,0,0.1,0,0.2c0,0.1,0,0.2,0,0.3c0,0,0,0,0.1,0c0,0,0,0.1,0,0.1v0.2c0,0.3,0.2,0.6,0.4,0.7
		c-0.1,0.1-0.1,0.2,0,0.4c0,0.1,0,0.2,0,0.4c0,0,0.1,0,0.1,0h0.1c0-0.2,0-0.3,0.1-0.3c0,0-0.1-0.1-0.2-0.4c0.2,0,0.4-0.1,0.5-0.3
		l0.1,0.1v-0.3c0.1-0.1,0.1-0.3,0.2-0.5c0-0.1,0.1-0.8,0.3-2.2c0.1,0,0.1,0,0.2,0.1c0-0.2-0.1-0.3-0.2-0.5l0.2-1.1
		c0-0.3,0.1-0.6,0.1-0.9v0.2c0,0.3,0.1,0.5,0.2,0.5c0,0,0,0,0,0l0.1,0c0.1-0.2,0-0.4-0.1-0.6c0.1-0.1,0.1-0.2-0.1-0.3
		c0,0,0,0.1,0,0.1c0-0.2,0.1-0.4,0.3-0.5v0l0,0c0.1,0,0.1,0,0.1,0l0.1-0.1c0,0-0.1,0-0.1,0c-0.1,0-0.1,0-0.1,0
		c0-0.1-0.1-0.2-0.1-0.3c0.1-0.2,0.1-0.4,0.1-0.7h0V7.5l0.3-1.8l0-0.2c0,0.1,0,0.2,0,0.2c0.1,0,0.2,0,0.3,0v0c0,0,0-0.1,0-0.1
		c0.1,0.1,0.1,0.1,0.1,0c-0.1-0.1-0.1-0.2,0-0.3c0,0-0.1,0-0.2-0.1C44.7,5,44.8,4.8,45,4.7c0.1,0,0.1,0.1,0,0.3l0.2-0.2
		c0,0,0-0.1,0-0.1c0,0,0-0.1-0.1-0.1c0.3-0.1,0.7-0.1,1.1-0.1l0,0.2c0,0,0,0,0,0c0,0,0,0,0,0c0,0-0.1,0-0.1,0c0,0.1,0.1,0.2,0.2,0.2
		V4.8c0-0.1,0-0.2,0-0.3h0.9c0,0.2,0.1,0.3,0.2,0.3L47.3,5c0.1-0.1,0.2-0.1,0.2,0c0.1,0,0.1-0.1-0.1-0.4h1c0.1,0.1,0.1,0.2,0.1,0.4
		c0.1,0,0.1,0,0.2,0v0c0,0-0.1,0-0.1,0V4.6h0.2c0.1,0,0.1,0,0.2,0c0.2,0,0.4,0,0.5,0.1c0,0,0,0.1,0.1,0.1l0.1,0.1h0.1
		C49.9,5.1,50,5.4,50,5.6c0,0.1,0,0.3,0.1,0.4c0,0,0,0.1,0,0.1v0.1l0.1,0.1v0.1c-0.1-0.1-0.1,0-0.1,0c0,0,0.1,0,0.1,0.1
		c0,0.1,0,0.1,0.1,0.1l0.1,0.5c-0.1,0-0.1,0-0.1,0c0,0,0,0,0,0c0,0,0,0,0,0c0.1,0,0.1,0.1,0,0.2v0.1c0,0,0,0,0,0c0,0,0,0,0,0
		l0.2,0.2V7.7l0.6,3.7c-0.1,0.2-0.1,0.4,0,0.7L51,12c0.1,0.7,0.2,1.5,0.4,2.2c0,0.1,0,0.2,0.1,0.3c0,0,0,0.1,0,0.1l0.1,0
		c0,0,0,0,0,0c0,0,0,0,0,0c-0.1,0.3-0.1,0.5,0.1,0.5c0.1-0.2,0.1-0.3,0-0.5c0.1,0.1,0.3,0.1,0.6-0.1c0.1,0.1,0.1,0.1,0.2,0
		c0-0.1,0-0.1,0-0.2c0,0,0.1,0,0.1-0.1c0,0,0,0,0,0l0-0.2l0.1-0.5v0.3c0.1,0,0.2,0,0.3,0l-0.2-0.6l0,0c0-0.3,0.1-0.5,0.1-0.8l0,0
		v-0.2c0-0.1,0-0.3,0-0.4c0-0.2,0.1-0.4,0.1-0.6s0.1-0.4,0.1-0.7l0,0v0.1c0,0,0.1,0,0.1,0c0.1-0.1,0-0.2-0.1-0.4l0.4-2.8h0.1l0,0
		l-0.1-0.5h0l0.2-1.1l0.1-0.6c0,0.2,0.1,0.4,0.2,0.4c0.1-0.1,0.1-0.3,0-0.4c-0.1-0.3,0-0.7,0.3-0.8c0,0,0,0,0.1,0l0,0.3
		c0,0.1,0,0.2,0,0.3c0.2,0,0.3,0,0.3,0c-0.1,0-0.1,0,0-0.1C55,5,55,4.9,54.8,4.9c-0.1-0.1-0.1-0.1-0.1-0.1l-0.1-0.1c0,0,0.1,0,0.1,0
		c0.1,0,0.1,0,0.2,0c0.1,0,0.1,0,0.2,0c0,0,0,0.1,0,0.1c0.1,0,0.1,0,0.2,0v0h0.3l0,0c0,0,0,0,0,0s-0.1,0-0.1,0l0.1,0.6
		c0-0.1,0.1-0.1,0.2-0.1c0,0,0-0.1,0.1-0.1c0,0,0,0,0,0C56,4.9,55.9,4.7,56,4.6l0.3,0v0c0,0,0.1,0,0.1,0c0,0,0,0,0,0h0.1v0h0.4
		l0,0.1l0,0.6C57,5.2,57,5.1,57,5.2V4.9L57,4.8c0,0,0-0.1-0.1-0.1c0,0,0-0.1,0-0.1c0.4,0,0.7,0,1,0c0,0.1,0,0.2,0,0.3v0.3l0.2,0
		L58.1,5c0,0,0-0.1-0.1-0.1c0.1,0,0.1-0.1,0-0.3h0.3c0.3,0,0.6,0.1,0.9,0.3v0.2L59.2,5.1z M35.7,5.9V5.7l-0.1-0.1l0,0.1l0,0.2
		L35.7,6L35.7,5.9z M36.1,6.3v0.1l0.1,0L36.1,6.3L36.1,6.3z M36.1,7.5L36.1,7.5l0.1-0.1l0-0.1l0,0V7.5z M36.2,7.8L36.2,7.8L36.2,7.8
		L36.2,7.8l0-0.2h0V7.8z M36.3,10.3L36.3,10.3l0-0.2l0,0L36.3,10.3L36.3,10.3z M36.3,9.1V8.9l-0.1-0.1v0.2L36.3,9.1L36.3,9.1z
		 M36.8,4.7L36.8,4.7l0,0.1L36.8,4.7z M36.7,6.1L36.7,6.1L36.7,6.1V5.9V6.1z M36.8,11.9L36.8,11.9L36.8,11.9L36.8,11.9l0-0.1
		L36.8,11.9z M36.8,7.2L36.8,7.2l0-0.2h0V7.2z M36.8,8.3L36.8,8.3l0,0.1l0,0V8.3z M36.9,9.6L36.9,9.6L36.9,9.6L36.9,9.6L36.9,9.6
		L36.9,9.6z M37.3,8.5l0,0.2l0.1,0.2l0-0.1L37.3,8.5L37.3,8.5z M37.4,13.8l0-0.1l0-0.2l-0.1-0.1l0,0l0,0v0.1l0.1,0.2L37.4,13.8z
		 M37.3,7.7L37.3,7.7l0.1,0.1L37.3,7.7L37.3,7.7L37.3,7.7z M37.3,10.1l0,0.2L37.3,10.1V10V10.1z M37.3,12.3L37.3,12.3l0,0.1l0,0.2h0
		l0-0.1v-0.1L37.3,12.3z M37.4,16.3l0-0.1l-0.1-0.1L37.4,16.3L37.4,16.3z M37.5,15L37.5,15l-0.1-0.2L37.5,15z M38.1,7.2l0-0.1l0,0
		V7.2L38,7.1l-0.1-0.2l-0.1-0.1V7l0.1,0.2L38.1,7.2z M37.8,7.7L37.8,7.7L37.8,7.7L37.8,7.7L37.8,7.7L37.8,7.7z M38.1,8.4L38.1,8.4
		L38.1,8.4L38,8.2l0-0.2l-0.1-0.1v0l0,0.1l0,0.2l0.1,0.1L38.1,8.4z M38,14.4l0-0.2l0,0L38,14.4L38,14.4L38,14.4z M37.9,13.1
		L37.9,13.1L37.9,13.1L38,13l-0.1,0V13.1z M38,18.2L38,18.2V18l-0.1-0.1V18L38,18.2z M38.1,15.4L38,15.6v0l0,0.1l0,0V15.4z
		 M38.1,19.5v-0.1V19.5L38.1,19.5L38.1,19.5z M38.3,5.2L38.3,5.2l0.2,0V5.1l0-0.1l-0.1,0l0,0V5.2z M38.4,6L38.4,6v0.1V6L38.4,6z
		 M38.4,8.3l0,0.2l0.1,0.3l0.1,0.1l0,0V8.6l0-0.3L38.4,8.3L38.4,8.3z M38.4,12.2v0.2l0.1,0.2h0v-0.2L38.4,12.2L38.4,12.2z M38.6,7.6
		l0-0.1l0-0.1l0,0.1L38.6,7.6v0.1V7.6z M38.5,10.2L38.5,10.2L38.5,10.2V10V10.2z M38.5,18.5l0.1,0.2h0.1l0-0.2l-0.1-0.1L38.5,18.5z
		 M38.6,21L38.6,21l0,0.3l0-0.1L38.6,21z M38.7,22.6l0-0.2l-0.2-0.2v0.1l0,0.2L38.7,22.6L38.7,22.6z M39,6.7v0.2L39,7L39,6.7z
		 M39.1,9.6l0-0.1L39.1,9.6L39.1,9.6L39.1,9.6z M39.1,14.3L39.1,14.3l0-0.4l-0.1,0l0,0.3L39.1,14.3z M39.1,8.2L39.1,8.2L39.1,8.2
		L39.1,8.2L39.1,8.2z M39,9.2L39,9.2l0.1,0.1L39,9.2L39,9.2L39,9.2z M39.3,10.6v-0.1h-0.1L39,10.6v0.1l0.1,0.1h0L39.3,10.6z
		 M39.2,16.8l0-0.1l-0.1-0.2l-0.1,0v0.2L39.2,16.8z M39.1,11.7L39.1,11.7L39.1,11.7L39.1,11.7z M39.1,15.1L39.1,15.1L39.1,15.1
		L39.1,15.1L39.1,15.1z M39.2,18.1v-0.2l-0.1-0.1l0,0.1v0.2H39.2L39.2,18.1z M39.4,6.3l0.2,0.2l0.1,0V6.4l-0.1-0.3l-0.1-0.2l0,0
		l0,0.1L39.4,6.3z M39.5,5L39.5,5v0.2l0.1,0.1L39.5,5z M39.5,10.1L39.5,10.1h0.2l0-0.4l-0.1-0.2l0,0.1l0,0.2l0.1,0.1L39.5,10.1z
		 M39.7,7.6L39.7,7.6l0.1-0.3l-0.1,0l-0.1,0.1L39.7,7.6L39.7,7.6z M39.6,8.3L39.6,8.3L39.6,8.3l0.1-0.1h0L39.6,8.3z M39.6,8.6
		L39.6,8.6l0,0.2l0.1,0L39.6,8.6L39.6,8.6L39.6,8.6z M39.7,11.2L39.7,11.2L39.7,11.2l0,0.2h0V11.2z M39.7,12.4L39.7,12.4v0.1
		l0.2,0.1v-0.1L39.7,12.4L39.7,12.4L39.7,12.4z M39.7,13.5L39.7,13.5L39.7,13.5L39.7,13.5L39.7,13.5L39.7,13.5z M39.7,14.8
		L39.7,14.8L39.7,14.8L39.7,14.8L39.7,14.8z M39.7,16.2L39.7,16.2L39.7,16.2l0-0.4h-0.1v0.2L39.7,16.2z M39.7,17.3L39.7,17.3
		L39.7,17.3L39.7,17.3z M39.7,18.5v0.2l0.1,0.1l0.1,0v-0.2l-0.1-0.1L39.7,18.5z M39.7,19.7L39.7,19.7l0,0.4l0.1,0.1l0.1,0v0l0-0.1
		L39.7,19.7z M39.7,22.3v0.2l0.1,0.1h0.1v-0.1l0-0.1L39.7,22.3L39.7,22.3z M39.9,25L39.9,25L39.9,25l0,0.2l0,0V25z M40,26.5v-0.1
		l0-0.1l0-0.1h0l0,0.1v0.1L40,26.5l-0.1-0.1L40,26.5L40,26.5L40,26.5z M40,5.3L40,5.3L40,5.3L40,5.3L40,5.3L40,5.3z M40.2,5.7l0-0.1
		L40.2,5.7l-0.1,0.1l0,0L40.2,5.7z M40.2,6.7L40.2,6.7L40.2,6.7L40.2,6.7z M40.3,7.9l-0.1,0l0,0l0.1,0.2l0.1,0L40.3,7.9L40.3,7.9z
		 M40.2,10.2l0,0.1l0.1,0.1l0.1,0l0-0.1L40.2,10.2L40.2,10.2L40.2,10.2z M40.2,11.6L40.2,11.6L40.2,11.6v-0.1V11.6L40.2,11.6z
		 M40.2,15.2l0,0.2l0.1,0.1l0-0.2L40.2,15.2z M40.3,9.2L40.3,9.2L40.3,9.2l0,0.2h0V9.2z M40.3,14.1L40.3,14.1L40.3,14.1l0,0.1
		L40.3,14.1z M40.3,17.7l0,0.1l0,0.3h0l0-0.2L40.3,17.7L40.3,17.7z M40.3,20.4L40.3,20.4L40.3,20.4L40.3,20.4L40.3,20.4z M40.5,23.1
		V23l0-0.1l0,0l0,0.2v0.1L40.5,23.1L40.5,23.1z M40.7,8.4l0,0.2l0.1,0.2l0,0.1v0l0.1-0.1l0-0.2l-0.1-0.1V8.4L40.7,8.4L40.7,8.4z
		 M40.7,10.9L40.7,10.9l0,0.4l0,0.1l0,0l0-0.2L40.7,10.9L40.7,10.9z M40.9,10l0-0.2l0-0.2l-0.1-0.1l0,0.1V10l0,0.1l0,0L40.9,10z
		 M40.8,15.9L40.8,15.9L40.8,15.9L40.8,15.9z M40.7,16.9L40.7,16.9l0.1,0.1v-0.1L40.7,16.9L40.7,16.9z M40.8,12.3L40.8,12.3l0.1,0
		l-0.1-0.1L40.8,12.3z M40.8,13.5L40.8,13.5l0,0.1l0.1,0L40.8,13.5z M40.8,14.8l-0.1-0.1L40.8,14.8l0,0.1l0.1,0.1l0-0.1L40.8,14.8z
		 M40.8,13L40.8,13L40.8,13L40.8,13L40.8,13z M40.8,16.2L40.8,16.2l0.1,0L40.8,16.2L40.8,16.2z M40.8,20.9l0,0.3L40.8,20.9l0-0.3
		L40.8,20.9z M40.9,18L40.9,18L40.9,18l0,0.1L40.9,18z M41.1,19.9l0-0.3l-0.1-0.2l-0.1,0.2l0,0.3L41.1,19.9L41.1,19.9z M41,18.7
		l0-0.2l-0.1,0.1v0.2l0.1,0L41,18.7z M40.9,23.6l0,0.1l0.1,0l0.1,0v-0.1H40.9L40.9,23.6z M41.1,26.5L41.1,26.5v-0.1L41,26.3l0,0
		l0,0.1L41.1,26.5z M41.1,27.6L41.1,27.6L41,27.4L41.1,27.6L41.1,27.6z M41.3,10.3l0,0.2l0,0.2l0.1,0.1h0l0-0.1l0-0.3L41.3,10.3
		L41.3,10.3z M41.3,12.7v0.3l0.1,0.1l0.1-0.1l0-0.2L41.3,12.7L41.3,12.7z M41.5,11.9L41.5,11.9l0-0.3l-0.1-0.1v0.2L41.5,11.9
		L41.5,11.9z M41.4,15.2l0,0.2l0,0L41.4,15.2L41.4,15.2z M41.4,16.8l0-0.2v-0.1h0V16.8z M41.4,17.7L41.4,17.7L41.4,17.7v0.1V17.7z
		 M41.5,20.4l0-0.1l0-0.2L41.4,20v0l0,0.1L41.5,20.4L41.5,20.4z M41.6,28.1l0.1,0l0-0.1h0L41.6,28.1z M41.8,14.4v0.2l0.1,0.2l0.1,0
		v-0.3L41.8,14.4L41.8,14.4L41.8,14.4z M42.1,15.8l-0.1-0.1l0,0.2v0.2l0.1,0l0.1-0.1L42.1,15.8z M42,17l-0.1-0.1L42,17l0,0.1L42,17z
		 M41.9,18.2v0.2l0.1,0.3l0-0.2L41.9,18.2L41.9,18.2z M42.1,19.8l0-0.2L42,19.5l0,0.2l0,0.3h0.1L42.1,19.8z M42,20.8L42,20.8
		l0.1,0.2l0,0L42,20.8L42,20.8z M42.1,21.1L42.1,21.1L42.1,21.1L42.1,21.1L42.1,21.1z M42.1,22.2L42.1,22.2v0.2V22.2L42.1,22.2z
		 M42.1,24.7L42.1,24.7L42.1,24.7V25V24.7z M42.1,26.1l0,0.2l0.1,0v-0.3l0-0.2L42.1,26.1z M42.2,27.6L42.2,27.6L42.2,27.6l0,0.1
		L42.2,27.6z M42.2,28.9L42.2,28.9l0-0.3l-0.1,0L42.2,28.9z M42.5,16.2L42.5,16.2l0,0.2l0.1,0.1v-0.1L42.5,16.2z M42.6,18.9
		L42.6,18.9L42.6,18.9L42.6,18.9z M42.6,18L42.6,18L42.6,18L42.6,18z M42.6,21.6l0.1,0.1l0,0l0-0.1l0-0.1l-0.1,0V21.6z M42.7,19.3
		L42.7,19.3L42.7,19.3L42.7,19.3L42.7,19.3z M42.7,22.8v-0.1l0,0L42.7,22.8L42.7,22.8z M42.8,28.2l0-0.1l-0.1,0l0,0.1L42.8,28.2z
		 M43.1,17.1v0.2l0,0.1l0.1-0.1v-0.2H43.1L43.1,17.1z M43.2,19.7l-0.1-0.1l0.1,0.4l0,0L43.2,19.7z M43.3,21l0-0.2l-0.1-0.1l0,0V21
		H43.3L43.3,21z M43.2,21.9l0,0.3l0.1,0.3l0.2,0l0.1-0.1l-0.1-0.2L43.2,21.9L43.2,21.9z M43.3,18.6v-0.2l0-0.2l0,0.1L43.3,18.6
		L43.3,18.6L43.3,18.6z M43.2,24.7l0.1,0.2l0-0.1v-0.1l-0.1-0.2h0V24.7z M43.3,27.5l0,0.2l0.1,0l0,0v-0.3l-0.1-0.1h0L43.3,27.5z
		 M43.4,26.2l0-0.1l0,0L43.4,26.2L43.4,26.2L43.4,26.2z M43.4,28.8L43.4,28.8l0.1,0L43.4,28.8L43.4,28.8z M43.5,30.1L43.5,30.1
		l0-0.1h-0.1L43.5,30.1z M43.6,16.6l0.1,0.1l0.1-0.2l-0.1-0.2l-0.1,0l-0.1,0.1L43.6,16.6z M43.7,12.6L43.7,12.6v0.3l0.1,0L43.7,12.6
		L43.7,12.6z M43.9,14.1l-0.1-0.2l0-0.1l0,0l0,0.2l0,0.2l0.1,0L43.9,14.1z M43.9,19.3v-0.1L43.9,19h0l0,0.2L43.9,19.3L43.9,19.3z
		 M43.9,21.6l0.1-0.1l-0.1-0.1L43.9,21.6L43.9,21.6z M43.9,20.5l0-0.2l-0.1-0.1l0,0.1L43.9,20.5L43.9,20.5z M43.9,24.2l0-0.2v-0.1
		l0,0.1L43.9,24.2v0.1V24.2z M43.9,25.4L43.9,25.4l0-0.1L43.9,25.4L43.9,25.4z M44.1,10.7l0,0.2l0.1,0.2l0.1,0l0.1-0.2l-0.1-0.2
		L44.1,10.7z M44.2,11.7l-0.1,0.1l0,0.2l0.1,0.2h0.1v-0.1l-0.1-0.2L44.2,11.7L44.2,11.7z M44.2,13.2l0,0.2l0.1,0.2l0.1-0.1l0-0.3
		l-0.1-0.1h-0.1L44.2,13.2z M44.4,14.4l0-0.2l-0.1-0.1l0,0.3l0,0.4l0.1-0.3L44.4,14.4z M44.3,15.8l0.1,0.1l0.1-0.1l0-0.2l0-0.1
		l0,0.1L44.3,15.8z M44.3,17L44.3,17L44.3,17L44.3,17z M44.3,20.7l0,0.2l0.1,0.1l0.1-0.1l0-0.2H44.3L44.3,20.7z M44.4,18.6
		L44.4,18.6l0-0.3L44.3,18l0,0.3L44.4,18.6z M44.5,19.8l0-0.3l0-0.2l-0.1,0.1l0,0.4l0,0.1l0.1,0V19.8z M44.3,21.8v0.4l0.1,0.3l0,0.1
		l0.1,0v-0.6l0-0.1L44.3,21.8L44.3,21.8z M44.6,23.7L44.6,23.7l0-0.4l-0.1-0.1l0,0.2l0,0.2L44.6,23.7L44.6,23.7z M44.4,24.7l0.1,0.1
		l0-0.2l-0.1-0.1L44.4,24.7z M44.6,26.3l0-0.2l-0.1-0.2l-0.1,0L44.4,26l0,0.2L44.6,26.3z M44.6,27.6l0-0.1l0-0.2l-0.1,0.1L44.6,27.6
		L44.6,27.6z M44.6,6.5l0,0.2l0.1,0.2l0.1,0l0.1-0.1l0-0.3l-0.1-0.3l-0.1-0.1v0.1L44.6,6.5L44.6,6.5z M44.6,28.6v-0.1V28.6l0,0.1
		L44.6,28.6z M44.6,7.9l0,0.2l0.1,0.1l0.1-0.1l0-0.2V7.7l-0.1-0.2l-0.1,0l0,0v0.1L44.6,7.9z M44.6,8.9l0,0.1l0.1,0.2l0.1,0l0-0.2
		l-0.1-0.2H44.6z M44.9,10.3l-0.1-0.2l0,0V9.8h0l0,0.1l0,0.2v0.2l0.1,0.3l0.1,0.1l0.1-0.2L44.9,10.3z M44.7,11.3l-0.1,0.1l0,0.2h0.1
		l0-0.2L44.7,11.3z M44.7,12.4v0.2l0,0.2l0,0.1l0.1,0l0-0.2l-0.1-0.3L44.7,12.4z M44.8,13.7L44.8,13.7v0.4l0.1,0.1l0-0.2L44.8,13.7
		L44.8,13.7z M44.9,14.9L44.9,14.9l0-0.2l0,0l0,0.1l0,0.2l0.1,0.2l0.1,0L44.9,14.9z M44.8,17.7l0,0.1l0,0.2H45l0-0.1v-0.2l-0.1-0.1
		L44.8,17.7L44.8,17.7z M44.9,20L44.9,20l0,0.3H45L44.9,20L44.9,20z M45,19L45,19l-0.1,0.1l0.1,0L45,19z M45,21.3L45,21.3v0.3l0.1,0
		l0-0.1L45,21.3z M45.1,22.9L45.1,22.9l0-0.1l-0.1,0v0L45.1,22.9L45.1,22.9z M45.1,26.8L45.1,26.8l0-0.2H45L45.1,26.8L45.1,26.8z
		 M45.1,5.5l0,0.1h0.1L45.1,5.5L45.1,5.5z M45.1,5.8V6l0,0.2h0.1V6L45.1,5.8L45.1,5.8z M45.1,8.3v0.1l0.1,0.2h0.1V8.4l0-0.2l0.1-0.1
		V7.9l-0.1-0.1l-0.1,0l0,0.1V8.3L45.1,8.3z M45.4,9.7l-0.1-0.3V9.2l-0.1,0l0,0.2l0,0.4l0.1,0.2l0.1,0V9.7z M45.3,7.4l0-0.2l-0.1,0
		v0.2l0.1,0.1h0V7.4z M45.5,11l-0.1-0.2l-0.1-0.1l-0.1,0.1l0,0.2l0.2,0.1L45.5,11z M45.3,12.9l-0.1,0.3l0.1,0.3l0.1,0.1l0-0.1l0-0.4
		L45.3,12.9z M45.3,14.1l0,0.1v0.3l0.1,0.2l0.1,0l0-0.4L45.4,14l0,0L45.3,14.1L45.3,14.1z M45.4,15.5l0,0.2l0-0.1L45.4,15.5
		L45.4,15.5z M45.4,16.8l0,0.3l0.1,0.1l0-0.1L45.4,16.8L45.4,16.8z M45.4,18.2l0,0.1v0.2l0,0.1l0-0.1L45.4,18.2L45.4,18.2z
		 M45.4,20.6v0.2l0.1,0.1l0-0.1l0-0.2l-0.1-0.1L45.4,20.6z M45.4,19.9L45.4,19.9h0.1l-0.1-0.4l0-0.1V19.9z M45.6,22.2l0-0.2l-0.1,0
		v0.2L45.6,22.2L45.6,22.2z M45.5,23.3l0,0.1l0.1,0.1L45.5,23.3L45.5,23.3l0-0.2l0,0L45.5,23.3z M45.6,5l0,0.1h0.1L45.8,5l0-0.1
		L45.6,5L45.6,5z M45.7,24.9L45.7,24.9l0-0.3l-0.1-0.1l0,0.1l0,0.1L45.7,24.9L45.7,24.9z M45.8,5.6l0-0.2l-0.1-0.1l-0.1,0l0,0.1v0.2
		l0,0.1L45.8,5.6z M45.9,6.8L45.9,6.8L45.9,6.8l0-0.1l0-0.1V6.4l0-0.1V6h-0.1v0l-0.1,0v0l0,0.1l0,0.1l0,0.2v0.3L45.9,6.8L45.9,6.8z
		 M45.8,7.7L45.8,7.7l0-0.3l0-0.1l0,0.1v0.4L45.8,8l0-0.2L45.8,7.7z M45.7,8.8V9l0.1,0.2h0V9L45.7,8.8z M46,11.4l-0.1-0.1l-0.1,0.1
		l0.1,0.1L46,11.4z M45.8,12.5l0,0.3l0.1,0.1l0-0.2L45.8,12.5L45.8,12.5z M45.9,10.5l0-0.3l0-0.4h0l0,0.3L45.9,10.5L45.9,10.5z
		 M46,13.8l0-0.1L46,13.8l0,0.1L46,13.8z M45.9,14.9v0.2l0.1,0.1L45.9,14.9L45.9,14.9z M46,16.6l0-0.1v-0.2L46,16.2l0,0.2L46,16.6z
		 M46,17.5h-0.1l0,0.3l0.1,0V17.5z M45.9,18.7l0,0.2v0.2h0l0-0.2L45.9,18.7L45.9,18.7z M46.1,20.2L46.1,20.2L46.1,20.2L46.1,20.2z
		 M46.1,12L46.1,12v0.2l0.2,0l0.1,0l-0.1,0l0,0L46.1,12z M46,21.1v0.1l0.1,0.1h0.1v0l0-0.2L46,21.1L46,21.1z M46.1,22.6l0,0.3
		l0.1,0.1l0.1-0.1v-0.2L46.1,22.6L46.1,22.6z M46.1,24l0.1,0.2l0-0.2l0-0.2l0,0L46.1,24z M46.2,5.7l0,0.2l0,0.2l0.1,0V5.9L46.2,5.7
		L46.2,5.7z M46.3,22.2L46.3,22.2L46.3,22.2l-0.1,0.1h0.1V22.2z M46.4,7.2l-0.1-0.2L46.2,7v0.4h0.1L46.4,7.2z M46.2,8.4L46.2,8.4
		h0.1l0-0.2h-0.1V8.4z M46.4,9.9l0-0.2l-0.1-0.2l-0.1-0.1l-0.1,0l0,0.1v0.2l0,0.1L46.4,9.9z M46.3,10.4L46.3,10.4L46.3,10.4
		L46.3,10.4L46.3,10.4L46.3,10.4z M46.5,11.1l0-0.1v-0.1l-0.1-0.1l-0.1,0l-0.1,0.1l0.1,0.2L46.5,11.1z M46.5,12l-0.1-0.1l-0.1,0
		l0,0.1H46.5z M46.3,26.7L46.3,26.7v-0.2l0,0L46.3,26.7z M46.5,13.2L46.4,13h-0.1v0.2l0.1,0.2l0.1,0L46.5,13.2z M46.4,14.1l0,0.3
		l0.1,0.3l0.1,0v0l0,0l0,0l-0.1-0.1L46.4,14.1z M46.5,15.9L46.5,15.9l0-0.2h-0.1L46.5,15.9z M46.6,16.9l-0.1-0.1l0,0.1l0.1,0.2h0.1
		V16.9z M46.4,18.2l0,0.2l0.1,0.1l0.1-0.1l0-0.2l-0.1-0.1L46.4,18.2z M46.7,19.5L46.7,19.5l-0.2,0.1l0,0.2l0,0h0.1L46.7,19.5z
		 M46.6,20.6l-0.1,0.1l0.1,0.2h0.1v-0.2L46.6,20.6z M46.7,22.3l0-0.1l0-0.2l-0.1-0.1l-0.1,0l0,0.1V22L46.7,22.3L46.7,22.3z M46.7,5
		l0,0.1l0,0.3l0.1,0l0-0.2V5.1L46.7,5L46.7,5z M46.9,6.8l0-0.2l-0.1-0.4l-0.1-0.1l0,0v0.1l0,0.2v0.3L46.9,6.8z M46.8,24.4l0-0.2v0
		L46.8,24.4l0,0.3l0,0V24.4z M46.9,7.7l-0.1-0.2l0,0.2V8h0.1L46.9,7.7z M46.8,8.7l0,0.2L46.9,9L47,9.1V8.8L46.8,8.7L46.8,8.7z
		 M46.9,10l0,0.2l0.1,0.3h0.1l0-0.1l0-0.2L46.9,10z M47,11.5L47,11.5l0.1-0.3l0-0.2l0-0.1l-0.1,0.1v0.2L47,11.5z M47.1,12.5l-0.1,0
		l0,0.1l0.1,0.1L47.1,12.5z M47,13.8l0.1,0.2l0.1,0.1l0-0.1v-0.2l0,0l-0.1-0.1l-0.1,0l-0.1,0v0L47,13.8z M47.2,15.2l0-0.3l-0.1-0.1
		l0,0.2L47.2,15.2L47.2,15.2z M47,16.6L47,16.6l0.2,0l0-0.1v-0.2l-0.1-0.1l-0.1,0l0,0.1V16.6L47,16.6z M47.2,17.7l0-0.1l-0.1-0.2
		l-0.1-0.1v0.2L47.2,17.7z M47.3,18.8l0-0.2v-0.4h-0.1l0,0.2l0,0.4l0.1,0.3h0V18.8z M47.3,21.6l0.1-0.3l-0.1-0.2l-0.2,0v0.2l0.1,0.2
		L47.3,21.6z M47.1,20v0.2l0.1,0l0-0.2l-0.1-0.2l0,0L47.1,20z M47.2,22.7L47.2,22.7l0.1-0.1l0-0.3l0-0.1l0,0.1L47.2,22.7z
		 M47.3,23.9L47.3,23.9l0-0.2l-0.1,0.1L47.3,23.9z M47.4,5.9l-0.2-0.1L47.4,6l0.1,0.1L47.4,5.9z M47.3,6.6l0,0.3l0,0.2v0.1l0,0.2
		l0.1,0h0.1l0,0h0V7.3L47.5,7l-0.1-0.2L47.3,6.6L47.3,6.6z M47.5,7.7L47.5,7.7l-0.2,0.4l0,0.4h0.1V7.9L47.5,7.7z M47.4,9.6l0.1,0.1
		V9.5l-0.1-0.3l0,0l0,0.2L47.4,9.6z M47.6,10.8L47.6,10.8l-0.1-0.2h0l0,0.2l0.1,0.1V10.8z M47.5,11.8L47.5,11.8l0,0.1L47.5,11.8z
		 M47.5,6.6L47.5,6.6l0.2,0.1l0-0.1H47.5z M47.6,13L47.6,13l0,0.4h0.1l0.1-0.2L47.6,13z M47.5,14.3l0,0.3l0.1,0.1l0.1,0v-0.2
		l-0.1-0.2l-0.1-0.1L47.5,14.3z M47.7,15.1L47.7,15.1L47.7,15.1L47.7,15.1z M47.6,15.5v0.2l0,0.2h0.1v-0.1l0.1-0.1h0l0,0v-0.1
		L47.6,15.5L47.6,15.5z M47.7,18.1l0,0.2l0,0.2v0l0-0.2L47.7,18.1L47.7,18.1z M47.7,19.5l0.1,0.1l0-0.1l-0.1-0.1L47.7,19.5z
		 M47.8,20.8L47.8,20.8v-0.1V20.8z M47.8,21.6L47.8,21.6l0,0.2l0-0.1V21.6z M47.9,24.7L47.9,24.7l0-0.3l-0.1-0.1l0,0.2L47.9,24.7z
		 M47.9,22.1L47.9,22.1L47.9,22.1L47.9,22.1L47.9,22.1z M47.9,6.4L47.9,6.4l0,0.2l0.1,0l0-0.3L48,6.2h-0.1L47.9,6.4L47.9,6.4
		L47.9,6.4z M48,5.3L48,5.3v0.2h0L48,5.3z M48.1,7.7L48,7.4l0,0.1l0,0.4l0.1,0V7.7z M48,8.7L48,8.7v0.2l0.1,0L48,8.7z M48.1,10
		L48,10.2l0.1,0.1V10L48.1,10z M48.1,12.3v0.2l0.1,0.2h0.1v-0.2l0-0.1l0-0.1L48.1,12.3L48.1,12.3z M48.2,11.4l0-0.2l0-0.1l0-0.1v0.1
		L48.2,11.4L48.2,11.4z M48.2,13.7L48.2,13.7l0,0.2l0,0.1l0.1,0v-0.1L48.2,13.7z M48.2,14.9v0.2h0.1l0-0.2H48.2L48.2,14.9z
		 M48.4,16.2l-0.1-0.3l0-0.2l0,0.1l0,0.3l0,0.3l0,0.1l0-0.1V16.2z M48.2,17.3l0,0.2l0.1,0l0.1-0.2L48.3,17l0,0.1L48.2,17.3z
		 M48.3,18.9l0.1,0.2l0,0.1l0.1-0.1v-0.2l-0.1-0.3l-0.1-0.2l0,0l0,0.2V18.9z M48.4,19.9l0,0.2h0.1V20L48.4,19.9L48.4,19.9z
		 M48.5,21.1L48.5,21.1l-0.1,0.2l0,0.1l0,0.1l0-0.1l0-0.2L48.5,21.1z M48.4,22.4l0,0.2l0.1,0.1l0.1,0L48.4,22.4L48.4,22.4z
		 M48.5,5.8l-0.1,0.1L48.5,6h0.1L48.5,5.8L48.5,5.8z M48.5,25.3L48.5,25.3V25l0,0l0,0.2L48.5,25.3z M48.8,7.3L48.6,7l-0.1-0.2l0-0.2
		v0.5l0.1,0.2L48.8,7.3L48.8,7.3z M48.5,8.2l0,0.2h0.1V8.2l-0.1-0.1L48.5,8.2z M48.5,24L48.5,24l0-0.2l0-0.1l0,0.1L48.5,24z
		 M48.5,26.7L48.5,26.7l0-0.1l0-0.1l0,0.1L48.5,26.7z M48.6,9.3l0,0.2l0,0.3l0.1,0.1l0-0.2l0-0.3L48.6,9.3z M48.6,27.8v-0.1h-0.1
		L48.6,27.8L48.6,27.8z M48.6,10.6v0.2l0,0.2l0.1,0v-0.3L48.6,10.6L48.6,10.6z M48.7,12.9v0.2l0,0.2l0.1,0v-0.1L48.7,12.9L48.7,12.9
		z M48.7,14.4l0,0.3l0.1,0l0-0.2l-0.1-0.3h-0.1L48.7,14.4z M48.8,11.8L48.8,11.8l0,0.1l0,0.1V11.8z M48.9,15.5l-0.1-0.2l0,0.1
		l0.1,0.2L48.9,15.5z M48.9,16.6l-0.1,0.2l0.1,0.3l0.1,0.1l0-0.1l0-0.2L48.9,16.6L48.9,16.6z M48.9,17.9L48.9,18l0,0.2l0.1,0.2
		l0.1,0v-0.2L48.9,17.9L48.9,17.9z M48.9,19.2v0.2l0.1,0.1l0.1-0.1l0-0.3L49.1,19H49L48.9,19.2z M49,20.4l0,0.3H49l0.1-0.2v-0.2h0
		L49,20.4z M49.1,4.7L49.1,4.7l0,0.2L49.1,4.7L49.1,4.7z M49,23.1l0,0.2l0.1,0.1l0-0.1l-0.1-0.2H49L49,23.1z M49.1,5.5V5.3l0-0.1
		l0,0L49.1,5.5L49.1,5.5z M49.2,6.3L49.2,6.3h-0.1l0,0.2v0.2l0.1,0.1l0-0.2V6.3z M49.3,9V8.9l-0.1-0.2l0-0.2l0-0.1v0l0,0.1l0,0.4
		L49.1,9L49.3,9L49.3,9z M49.2,22.1l0-0.2l-0.1-0.2l0,0.1V22L49.2,22.1L49.2,22.1z M49.1,7.8L49.1,7.8l0.1-0.2h-0.1V7.8z M49.1,24.6
		L49.1,24.6l0.1,0.1l0-0.1L49.1,24.6L49.1,24.6z M49.3,10.3l0-0.2l-0.1-0.2l-0.1-0.1l0,0v0.5l0,0.1L49.3,10.3z M49.3,11.5l0-0.1
		l0-0.3L49.2,11l-0.1,0.2v0.3L49.3,11.5L49.3,11.5z M49.5,13.8l0-0.2l-0.2-0.1l-0.1,0.1l0,0.2l0.1,0.1L49.5,13.8z M49.2,26.1l0-0.1
		l0,0h-0.1L49.2,26.1L49.2,26.1z M49.2,12.3l0,0.2l0.1,0.1l0-0.1l0-0.2H49.2L49.2,12.3z M49.3,14.8l0,0.1l0.1,0.1l0.1-0.1L49.3,14.8
		z M49.3,16.1l0,0.1h0.1v-0.1L49.3,16.1L49.3,16.1z M49.4,17.7L49.4,17.7l0.1-0.2l0-0.2l0-0.1l0,0V17.7z M49.5,5.3l0,0.1h0.1
		L49.5,5.3L49.5,5.3z M49.5,18.8l0,0.3l0.1,0L49.5,18.8v-0.1V18.8z M49.7,6.8l0-0.2l0,0l0.1,0l0.1,0l0-0.1l-0.1-0.1h-0.1l-0.1,0.1
		v0.1l0,0.2l0,0.3v0.1l0.1,0.1l0.2,0l0.1,0h-0.1V7.1L49.7,6.8z M49.7,5.6L49.7,5.6l-0.1,0.1v0.2l0,0l0.1-0.1V5.6z M49.6,8.2l0.1,0.2
		h0.1l0-0.2L49.6,8l-0.1,0V8.2z M49.6,9l0,0.3l0.1,0.3h0.2l0-0.2l-0.1-0.1L49.6,9L49.6,9z M49.6,21.1L49.6,21.1l0,0.2h0v-0.1
		L49.6,21.1z M49.6,24.9L49.6,24.9L49.6,24.9L49.6,24.9L49.6,24.9L49.6,24.9z M49.7,6L49.7,6L49.7,6L49.7,6L49.9,6L49.7,6z
		 M49.7,10.5l0,0.1l0,0.2l0.1,0l0-0.1L49.7,10.5L49.7,10.5z M49.7,26.4L49.7,26.4L49.7,26.4L49.7,26.4L49.7,26.4z M49.9,12l0.1-0.2
		l-0.1-0.1l-0.1,0.1l0,0.2L49.9,12z M49.8,13.2l0.2,0.1l0-0.1l-0.1-0.2l-0.1-0.1L49.7,13L49.8,13.2z M49.8,27.7L49.8,27.7v-0.1h0
		L49.8,27.7L49.8,27.7z M49.9,14.1l-0.1-0.3l0,0.2l0,0.4l0.1,0.1V14.1z M49.8,15.1v0.2l0,0.3l0.1,0.2l0.2-0.1l0-0.3l-0.2-0.3
		L49.8,15.1z M49.9,16.7L50,17l0.1-0.1v-0.3L50,16.4h-0.1L49.9,16.7z M49.9,28.9L49.9,28.9L49.9,28.9v0.2V28.9z M49.9,17.6v0.2V17.6
		l0-0.1L49.9,17.6z M50,19.1l0,0.2l0,0.2l0.1,0.1h0.1l0-0.1l0-0.1L50,19.1L50,19.1z M50,20.5l-0.1,0.1l0.1,0.2l0.1,0L50,20.5
		L50,20.5z M50,21.8V22l0.1,0.1l0.1,0l0-0.1L50,21.8L50,21.8z M50.2,24.4v-0.2l-0.1-0.1l0,0.2L50.2,24.4L50.2,24.4z M50.2,8.5
		L50.2,8.5v0.3l0.1,0.2l0.1,0V8.8L50.2,8.5l0.1-0.1l0-0.1h0L50.2,8.5z M50.2,9.5l0,0.2l0.1,0.3l0.1,0.3l0.1-0.1l0-0.2V9.8l-0.1-0.3
		V9.4h0L50.2,9.5L50.2,9.5z M50.2,23.2L50.2,23.2L50.2,23.2L50.2,23.2z M50.3,27.1L50.3,27.1v0.1h0L50.3,27.1L50.3,27.1z M50.3,11.1
		l0.1,0.3h0.1v-0.3l-0.1-0.3l-0.1,0V11.1z M50.3,28.1v0.1l0,0.2v0.1h0.1l0-0.1l-0.1-0.2L50.3,28.1L50.3,28.1z M50.4,29.7l0,0.1
		l0.1,0.1l0-0.1L50.4,29.7z M50.6,12.5l0-0.2l-0.1-0.1l-0.1,0.2l0,0.3l0.1,0L50.6,12.5z M50.4,13.5l0,0.2l0.1,0.1l0-0.1l0-0.3l0-0.2
		l0-0.1l-0.1,0.2V13.5L50.4,13.5z M50.6,31.2L50.6,31.2V31h-0.2l0,0.1v0.1l0.1,0L50.6,31.2z M50.6,32.4L50.6,32.4v-0.2l-0.1,0l0,0.1
		L50.6,32.4z M50.5,14.8V15l0.1,0l0-0.2l0-0.1l-0.1,0L50.5,14.8z M50.7,16.3l0-0.3l-0.1-0.1l-0.1,0.1L50.7,16.3L50.7,16.3z
		 M50.8,17.6v-0.2l-0.1-0.1l-0.1,0.1l0.1,0.2H50.8z M50.6,18.3L50.6,18.3L50.6,18.3L50.6,18.3L50.6,18.3z M50.7,18.7l-0.1,0.1
		l0.1,0.1l0.1-0.2L50.7,18.7z M50.6,19.8l0,0.2l0.1,0.1l0-0.2l0-0.2l-0.1-0.1l0,0L50.6,19.8z M50.7,21.2L50.7,21.2l0.2-0.1L50.7,21
		L50.7,21.2z M50.8,22.5v-0.1V22.5L50.8,22.5z M50.9,23.7L50.9,23.7l0,0.2l0.1,0l0.1,0v-0.1L50.9,23.7z M50.9,25.1l0,0.2l0.1,0
		l0-0.2L51,24.9L50.9,25.1z M51,26.1L51,26.1L51,26.3H51V26.1z M51,27.4L51,27.4h0.1v0L51,27.4z M51,12.9l0,0.2h0.1L51,12.9L51,12.9
		z M51.1,13.8L51.1,13.8l0,0.3v0.2l0,0.2l0.1,0l0-0.2l0-0.2L51.1,13.8z M51.3,15.6l0-0.2l-0.1-0.1l0,0.2L51.3,15.6L51.3,15.6z
		 M51.1,16.6l0,0.3l0.1,0.1l0.1-0.1l0-0.3l-0.1-0.3h0L51.1,16.6z M51.1,29.1L51.1,29.1V29V29.1z M51.2,17.9l0,0.1l0.1,0.3l0.1-0.1
		V18L51.2,17.9z M51.3,19.4L51.3,19.4l0,0.2l0,0L51.3,19.4z M51.3,21.6l0.1,0.4l0.1,0l0-0.2l0-0.2l0-0.1H51.3L51.3,21.6z M51.4,20.6
		L51.4,20.6L51.4,20.6l-0.1,0.1h0L51.4,20.6z M51.4,23.1l-0.1,0.1h0.1L51.4,23.1z M51.5,25.5l0,0.2l0,0.2h0.1v-0.2L51.5,25.5
		L51.5,25.5z M51.5,29.5l0.1,0.1l0.1,0l0-0.1L51.5,29.5z M51.7,15.9L51.7,15.9v0.4h0.1V16L51.7,15.9z M51.6,30.9L51.6,30.9l0.2,0
		l-0.1-0.1L51.6,30.9z M51.9,17.5l0-0.2l-0.1-0.1l0,0.1l0.1,0.3L51.9,17.5z M52,18.8l-0.1-0.2l-0.1,0l0,0.2l0.1,0.1L52,18.8z
		 M51.8,33.7L51.8,33.7l0-0.2l0,0h0L51.8,33.7L51.8,33.7z M52,19.9l-0.1-0.2l-0.1,0.1l0,0.1l0.1,0.2l0.1,0L52,19.9z M51.9,21l0,0.1
		l0.1,0.2l0,0v-0.2L51.9,21z M51.9,21.9v0.2l0,0.3l0,0.1l0-0.1v-0.3L51.9,21.9L51.9,21.9z M52,23.3L52,23.3v0.2l0,0L52,23.3z
		 M52.1,25L52.1,25L52.1,25L52.1,25z M52.2,26.5v-0.2l-0.1-0.1l0,0.1v0.2L52.2,26.5L52.2,26.5z M52.1,27.6L52.1,27.6l0-0.2l0,0V27.6
		z M52.2,15l0,0.2l0,0.2l0.1,0.2l0.1-0.2l-0.1-0.3L52.2,15L52.2,15z M52.2,16.2h0.1v-0.1L52.2,16.2L52.2,16.2L52.2,16.2z M52.5,17.8
		l0-0.3l-0.1,0l-0.1,0.2l0,0.3l0,0.2h0.2l0.1-0.2L52.5,17.8z M52.4,31.8l0-0.1l0-0.1l-0.1,0v0.1L52.4,31.8L52.4,31.8z M52.5,16.6
		l-0.1,0l0,0.3l0,0.1h0.1l0-0.1V16.6z M52.6,19.4l0-0.2l-0.1-0.3L52.4,19v0.4l0.1,0.2l0.1,0L52.6,19.4z M52.4,20.2l0,0.3l0,0.1
		l0.1-0.1v-0.3L52.4,20.2L52.4,20.2z M52.4,23l0.1,0.3l0.1,0.1l0.1-0.1V23l-0.1-0.3l-0.1,0L52.4,23z M52.7,21.6l-0.1-0.2l-0.1,0.1
		v0.4l0.1,0.1h0.1l0-0.1L52.7,21.6z M52.8,24.3L52.8,24.3l-0.2,0l0.1,0.1L52.8,24.3z M52.8,25.8v-0.2l-0.1-0.2l0-0.1l0,0.1l0,0.2
		l0.1,0.2l0.1,0L52.8,25.8z M52.8,27.1L52.8,27.1l0-0.6l0,0l0,0.2l0,0.2L52.8,27.1z M52.7,13.6c0-0.1,0-0.1,0-0.2L52.7,13.6z
		 M52.7,13.4C52.7,13.3,52.8,13.3,52.7,13.4C52.8,13.3,52.8,13.3,52.7,13.4C52.8,13.3,52.8,13.4,52.7,13.4L52.7,13.4z M52.7,14.6
		l0,0.2l0.1,0.1l0-0.2l0-0.2v-0.1l-0.1,0L52.7,14.6z M52.9,16.1l0-0.2l-0.1-0.1h0L52.9,16.1L52.9,16.1z M53,31.1L53,31.1v-0.3
		l-0.1-0.1l0,0.1L53,31.1L53,31.1z M53,17.1h-0.1v0.2l0.1,0.3l0.1,0v-0.2L53,17.1z M53.1,18.7l0.1-0.2l0-0.2L53,18.2l-0.1,0.2l0,0.3
		L53.1,18.7z M53.2,19.8l-0.1,0L53,19.9l0.1,0.2l0.1,0L53.2,19.8z M53,21l0,0.2v0.2h0.1l0-0.1l0-0.1L53,21z M53.1,22.1v0.2l0,0.3
		l0,0v-0.2L53.1,22.1L53.1,22.1z M53.3,23.6L53.3,23.6h-0.1l0,0.2l0.1,0V23.6z M53.1,24.8l0,0.2l0.1,0.1l0.1,0l0-0.1l-0.1-0.2
		L53.1,24.8L53.1,24.8L53.1,24.8z M53.3,12.8l-0.1,0.1l0.1,0.2l0.1,0l0-0.1L53.3,12.8L53.3,12.8z M53.3,26.3L53.3,26.3l-0.1-0.2
		L53.3,26.3L53.3,26.3z M53.4,14.5l0-0.1l0-0.3l-0.1-0.2h0l0,0.3L53.4,14.5L53.4,14.5z M53.4,15.6L53.4,15.6l0-0.3l-0.1-0.2l0,0.1
		L53.4,15.6z M53.4,28.9L53.4,28.9l0-0.2l-0.1,0L53.4,28.9z M53.5,16.8l0-0.1l0-0.4l0-0.1l0,0.3L53.5,16.8z M53.5,30.3v-0.2h-0.1
		L53.5,30.3L53.5,30.3z M53.5,18v-0.5l0,0.1L53.5,18z M53.6,19.4l0-0.2l-0.1,0l0,0.2L53.6,19.4z M53.6,8.4l-0.1,0.2l0.1,0.3h0.1
		l0-0.2l0-0.2L53.6,8.4z M53.6,21.5l0,0.2l0.1,0.1l0.1-0.2L53.6,21.5L53.6,21.5z M53.7,20.5L53.7,20.5L53.7,20.5l0,0.1L53.7,20.5z
		 M53.6,23l0.1,0.1l0.1-0.1l-0.1-0.2h-0.1V23z M53.9,9.9l-0.1-0.1l-0.1,0.1l0,0.2l0.1,0.1l0.1-0.1V9.9z M54,11l-0.2-0.1L53.7,11
		l0,0.3l0.1,0L54,11z M53.8,24.1l0,0.1L53.8,24.1L53.8,24.1z M53.8,26.7l0,0.3l0.1,0.1l0.1-0.2L53.8,26.7L53.8,26.7z M53.8,12.4
		l0,0.1L53.8,12.4l0.1-0.4l-0.1-0.2V12.4z M53.8,13.2l0,0.1l0,0.2l0.1,0.1l0-0.1L53.8,13.2L53.8,13.2z M53.8,25.4L53.8,25.4v0.4
		l0-0.1L53.8,25.4z M54,14.8l0-0.2l-0.1-0.3h-0.1v0.3L54,14.8z M53.8,28.1l0,0.1l0,0l0.1,0v-0.1L53.8,28.1L53.8,28.1z M53.9,15.8
		l0.1,0.3l0.1-0.1L53.9,15.8L53.9,15.8z M54,29.7l0.1-0.2L54,29.4V29.7L54,29.7z M54,16.8L54,16.8V17l0,0.2l0,0.2v0.2h0.1l0.1-0.1
		v-0.2l0-0.2L54,16.8L54,16.8L54,16.8z M54.1,6.5l0,0.2l0,0.2l0,0.1l0.1,0.1L54.3,7V6.8l-0.1-0.2L54.1,6.5z M54.1,18.2l0,0.2l0,0.2
		l0.1,0.1l0.1-0.3v-0.3l-0.1-0.1L54.1,18.2z M54.1,30.9l0-0.1L54,30.7v0.1L54.1,30.9z M54.3,8.2L54.4,8l-0.3-0.2l0,0.2l0.1,0.2H54.3
		z M54.1,9.2l0.1,0.2l0.1-0.1l0-0.3l0-0.2l-0.1-0.1L54.1,9V9.2z M54.4,21.2l0-0.2h-0.1l-0.1,0.1l0.1,0.1L54.4,21.2z M54.1,22.3
		l0,0.2l0,0l0.1-0.1v-0.2l-0.1-0.1L54.1,22.3z M54.3,20.1l0.1-0.1v-0.2l-0.1-0.1l-0.1,0L54.3,20.1L54.3,20.1z M54.5,10.5l0-0.2
		l-0.1-0.1l-0.1,0.1v0.3l0.2,0.1L54.5,10.5z M54.4,23.4L54.4,23.4l-0.2,0.1l0.1,0.2h0.1V23.4z M54.4,11.8l0.1-0.2l-0.1-0.3l-0.1-0.2
		l0,0.1v0.3L54.4,11.8z M54.6,12.7l-0.1-0.2l-0.1,0.2l0,0.2V13l0,0.1l0.1-0.1L54.6,12.7z M54.4,25.1L54.4,25.1l0-0.3l0,0v0.1
		L54.4,25.1L54.4,25.1z M54.4,26.2v-0.2h-0.1L54.4,26.2L54.4,26.2z M54.7,14.1l-0.1-0.2l-0.1-0.1l0,0v0.2l0,0.2l0.1,0.1l0.1-0.1
		L54.7,14.1z M54.5,14.9l0,0.2l0,0.3l0.1,0.2h0.1l0-0.2l0-0.3L54.5,14.9L54.5,14.9z M54.5,27.5L54.5,27.5l0.1-0.1l-0.1,0L54.5,27.5z
		 M54.8,16.7l0-0.2l-0.1-0.2l0-0.2l0,0.2l0,0.2l0,0.2L54.8,16.7L54.8,16.7z M54.5,17.7v0.2l0.1,0.2l0.1,0l0-0.2l0-0.2l-0.1-0.1
		L54.5,17.7z M54.6,29v-0.2h-0.1L54.6,29L54.6,29z M54.6,6l0,0.3l0.1,0.2l0.2,0V6.2l-0.1-0.3l-0.1,0L54.6,6z M54.9,7.2l-0.1-0.1h0
		l-0.1,0l0,0.1v0.1l0,0.1v0.1l0.1,0.1l0.1,0L55,7.6l0-0.2L54.9,7.2z M54.7,19.1l-0.1,0.2l0.1,0.2l0.2,0l0-0.2L54.7,19.1z M54.7,8.4
		l0.1,0.3l0.2,0V8.5l-0.1-0.3l0-0.1l-0.1,0L54.7,8.4z M54.7,20.3l0.1,0.3h0.1v-0.3l-0.1-0.1L54.7,20.3z M54.8,21.3l0,0.2l0,0.2
		l0.1,0.1l0.1-0.1v-0.3l-0.1-0.4L54.8,21.3z M54.8,22.9l0.1,0l0.1-0.1l0-0.2l0-0.1v-0.1l-0.1,0.1l-0.1,0.2L54.8,22.9z M54.8,9.9
		l0.1,0.3L55,10V9.8l0-0.2l-0.1-0.2l-0.1,0.1L54.8,9.9z M54.8,32.8v-0.1V32.8L54.8,32.8L54.8,32.8z M55,24.2l0-0.2L54.9,24l0,0.3
		l0.1,0.2L55,24.2z M54.8,25.4l0.1,0.3l0.1,0.1l0-0.2v-0.2L55,25.2l-0.1,0L54.8,25.4z M55.1,11.2l0.1-0.2l-0.1-0.2H55l0,0.1V11
		L55.1,11.2z M55.2,12.2L55.1,12H55l0,0.2l0,0.2l0.1,0.1l0.1-0.1L55.2,12.2z M55,13l0,0.3l0.1,0.4h0.1l0.1-0.2v-0.2l-0.1-0.2L55,13
		L55,13L55,13z M55.1,6.5l0,0.4l0.1,0.1l0.3,0L55.6,7l0-0.1l0,0l0-0.1l-0.1-0.3l0-0.2l-0.2-0.1l-0.2,0.2L55.1,6.5z M55.2,26.8
		L55,26.7L55.2,26.8l0,0.1L55.2,26.8z M55.1,14.5l0,0.2l0.1,0.1l0.1-0.1l0-0.2H55.1z M55.1,27.9L55.1,27.9l0,0.1L55.1,27.9
		L55.1,27.9z M55.2,29.6l0.1-0.1l0-0.2l0-0.1l0,0.1l0,0.2L55.2,29.6z M55.1,5.3v0.2l0.2,0.1l0.2,0l-0.1-0.2V5.2l0-0.1l-0.2,0.1
		L55.1,5.3z M55.2,30.6v-0.1l-0.1,0l0,0.1L55.2,30.6L55.2,30.6L55.2,30.6z M55.3,15.8l-0.1-0.1l0,0.2l0.1,0.1L55.3,15.8z M55.2,16.9
		l0,0.2l0,0.3l0.1,0.1l0.1-0.1v-0.2l0-0.2L55.2,16.9z M55.2,18.4l0.1,0.3l0.1,0l0-0.3l-0.1-0.2l-0.1,0L55.2,18.4z M55.6,8.1l0-0.3
		l-0.1-0.1l0-0.1l0-0.2l-0.2,0l0,0.3l0.1,0.2L55.5,8l0,0.1l0,0.1L55.6,8.1z M55.3,19.9L55.3,19.9l0.1-0.2l0-0.2l0-0.1l0,0.2V19.9z
		 M55.4,20.6l0,0.2l0.1,0.2l0-0.1L55.4,20.6L55.4,20.6z M55.4,23.3l0,0.2l0.1,0.2l0.1,0l0-0.3L55.4,23.3L55.4,23.3z M55.4,9l0.1,0.4
		h0.1l0-0.3l-0.1-0.4l-0.1,0L55.4,9z M55.4,10.2l0,0.2l0.1,0.2l0.2,0l0-0.2L55.4,10.2L55.4,10.2z M55.5,22.1l-0.1,0.2l0.1,0.2
		l0.1-0.1l0-0.2L55.5,22.1z M55.5,11.3l0,0.2l0.1,0.2h0.1v-0.3L55.5,11.3L55.5,11.3z M55.4,24.8l0.1,0.2l0.1,0l0-0.3l-0.1-0.3
		l-0.1,0.1L55.4,24.8z M55.5,12.3L55.5,12.3v0.1l0.1,0.1l0-0.1L55.5,12.3z M55.7,12.9l0-0.2l0,0l0,0.1v0L55.7,12.9L55.7,12.9z
		 M55.8,14l-0.1-0.2l-0.1,0.1l0,0.3l0.1,0.1l0.1-0.1L55.8,14z M55.7,26.2l0-0.2l-0.1-0.2v-0.1l0-0.1l0,0l0,0.2l0,0.3L55.7,26.2
		L55.7,26.2z M55.8,27.6v-0.2l-0.1-0.1l0,0.2L55.8,27.6L55.8,27.6z M56,15.3l-0.2-0.2L55.7,15v0.2l0.1,0.3l0.1,0l0.1-0.1V15.3z
		 M55.8,16.2l0,0.2l0,0.3l0,0.1L55.8,16.2v-0.1V16.2z M55.9,5.9L55.9,5.9L56,6.2V6L55.9,5.9z M55.9,7.2l-0.1,0.1l0,0.2l0.1,0.1
		L56,7.6l0-0.2L55.9,7.2L55.9,7.2z M55.9,17.6l0,0.2l0.1,0.3l0.1,0l0-0.3L55.9,17.6z M55.9,18.7v0.2l0,0.1v0.1l0,0l0-0.2L55.9,18.7
		L55.9,18.7z M55.9,8.5L56,8.7l0-0.1V8.4l0-0.2h0L55.9,8.5z M55.9,20.1v0.2l0,0.2l0,0l0-0.1L55.9,20.1L55.9,20.1z M56.2,9.8l0-0.2
		V9.4l0-0.1l-0.1,0l-0.1,0.3L56,10h0.1L56.2,9.8z M56.1,21.7L56.1,21.7l0-0.3L56,21.3l0,0l0,0.2L56.1,21.7z M56,10.8l0.1,0.3h0.1
		l0-0.2l-0.1-0.2L56,10.6L56,10.8z M56.1,23l0-0.2L56,22.6h0L56.1,23L56.1,23z M56,11.8v0.3l0.1,0.2h0.1v-0.1l0-0.2L56,11.8L56,11.8
		z M56.2,13.2l0,0.2l0.1,0.3h0.2v-0.2L56.2,13.2L56.2,13.2z M56.2,14.5l0,0.2l0.1,0l0.1-0.1v-0.2l0-0.1l0-0.1l-0.1-0.1l0,0V14.5z
		 M56.3,5.1L56.3,5.1v0.3l0.1,0.1V5.3L56.3,5.1z M56.3,15.7l0,0.2l0.1,0.2l0,0l0-0.3L56.3,15.7L56.3,15.7z M56.4,7.7l0,0.2L56.5,8
		h0.1L56.4,7.7L56.4,7.7z M56.3,16.9v0.3l0.1,0.2l0-0.1L56.3,16.9L56.3,16.9z M56.4,6.6v0.3L56.5,7L56.6,7l0-0.1v0l0-0.2V6.4l0-0.1
		l0,0.1L56.4,6.6z M56.5,18.2l-0.1,0.2l0,0.3l0.1,0l0,0v-0.2L56.5,18.2z M56.4,9l0,0.3l0.1,0.1l0-0.2l0-0.3l-0.1,0L56.4,9z
		 M56.4,19.7L56.4,19.7L56.4,19.7L56.4,19.7z M56.7,10.1L56.7,10.1h-0.2l0,0.2l0.1,0.2l0.1,0V10.1z M56.6,21.1l0-0.1l-0.1,0l0,0.2
		L56.6,21.1z M56.8,11.5l-0.1-0.2l-0.1-0.2v0.4l0.1,0.2L56.8,11.5z M56.6,6.1L56.6,6.1v0.2l0,0L56.6,6.1z M56.7,12.6l0-0.1v0h-0.1
		l0,0.1v0.2l0,0.2h0.1l0.1-0.1L56.7,12.6z M56.6,14l0.1,0.1l0.1-0.1l-0.1-0.2h-0.1L56.6,14z M56.8,16.5l0.1,0.1l0.1-0.1l-0.1-0.1
		L56.8,16.5z M57,15.5l0.1-0.1L57,15.2h-0.1v0.2L57,15.5z M56.9,5.7l0,0.1L57,6.2l0,0.1h0l0-0.2L56.9,5.7L56.9,5.7z M57,18l0-0.2
		L57,17.6h-0.1v0.2L57,18L57,18z M57.1,7.2L57.1,7.2L57,7.5h0l0-0.1V7.2z M57,8.3v0.2l0.1,0L57,8.3L57,8.3z M57.2,10L57.2,10l0-0.3
		l-0.1-0.1l0,0L57.2,10z M57.3,10.9L57.3,10.9L57.2,11h0.1V10.9z M57.2,12l0.1,0.2l0.1-0.1l-0.1-0.2L57.2,12z M57.3,13L57.3,13
		l0,0.3l0.1,0.2l0-0.1v-0.2L57.3,13z M57.5,14.8l0-0.2l-0.1-0.2l-0.1-0.2h0l0,0.2L57.5,14.8L57.5,14.8z M57.4,5.3v0.2l0.1,0.1
		l0.1-0.1V5.3H57.4L57.4,5.3z M57.6,15.5l0-0.1l-0.1,0l0,0.1l0,0.1v0.1l0,0.4l0.1,0V15.5z M57.7,6.8l-0.1-0.1h-0.1l0,0l0,0.1
		L57.7,6.8L57.7,6.8z M57.7,8l0-0.3l0-0.2h-0.1l-0.1,0.1v0.3l0,0.1l0.1,0L57.7,8L57.7,8z M57.6,9.2l0.1,0.2l0.1,0l0-0.1l0-0.2
		l-0.1-0.2l-0.1,0.1V9.2z M57.7,11.4l0.1,0.2l0.1-0.2v-0.3l-0.1,0L57.7,11.4z M57.9,12.9l0.1-0.1l0-0.2l-0.1-0.1l-0.1,0v0.2
		L57.9,12.9L57.9,12.9z M58,6l0.1,0.2h0.1v0l0-0.1l0-0.2l0-0.1l-0.1,0L58,6z M58.1,7.3v0.1l0.1,0l0-0.1L58.1,7.3L58.1,7.3z
		 M58.2,8.2L58.2,8.2L58.2,8.2L58.2,8.2z M58.4,9.9V9.7l-0.1-0.2l-0.1-0.1v0.2L58.4,9.9L58.4,9.9z M58.3,11.1l0-0.1l0-0.2h0l0,0.1
		L58.3,11.1L58.3,11.1z M58.5,5.2v0.3l0,0.1l0-0.1L58.5,5.2L58.5,5.2z M58.5,6.4v0.2l0.1,0.3l0.1,0V6.6l-0.1-0.1L58.5,6.4L58.5,6.4z
		 M58.7,7.9L58.7,7.9l0-0.3V7.3l-0.1,0l0,0.3L58.7,7.9z"/>
	<path class="st0" d="M79.5,32.6c0.3,1.2,0.2,2-0.1,2.4c-0.2,0.2-1.5,0.3-3.9,0.3c-0.3,0-0.6-0.1-0.9-0.3c-0.3-0.7-0.5-1.5-0.5-2.2
		c0,0,0-0.1,0-0.1l-0.1,0l-0.1-1c0.1-0.1,0.1-0.1,0-0.2v0c0-0.1,0-0.1,0-0.2v-0.2c0,0,0-0.1,0-0.3c0-0.2-0.1-0.4-0.1-0.5
		c0-0.2-0.1-0.4-0.2-0.6c-0.1-0.2-0.2-0.4-0.3-0.6c-0.1-0.2-0.3-0.3-0.5-0.4c-0.2-0.1-0.4-0.2-0.6-0.2h-0.1l0.1-0.2c0,0-0.1,0-0.1,0
		l-0.1,0c0-0.3,0-0.5-0.1-0.5c-0.1,0.2-0.1,0.3,0,0.4c-0.1,0.1-0.1,0.2,0,0.4l-0.1,0h-0.9V28h-0.1c0,0,0,0-0.1,0v0.3
		c-0.5,0-1,0.2-1.3,0.5c-0.3,0.6-0.5,1.2-0.5,1.8l-0.6,3.5c-0.1,0.5-0.5,0.9-1,1l0,0v0h0c-0.3,0-0.6,0-0.9,0h0c-1.2,0-2.1,0-2.5,0
		c-0.2,0-0.3-0.1-0.5-0.1l0,0c0,0-0.1-0.1-0.3-0.2c-0.2-0.4-0.2-0.8-0.1-1.2l0.1,0.1c0-0.1,0-0.2-0.1-0.3c0-0.1,0-0.2,0-0.3
		c0-0.1,0-0.1,0-0.2l0-0.4c0,0,0.1,0,0.1,0v-0.1c-0.1-0.1-0.1,0-0.1,0c0-0.1,0-0.3,0.1-0.4c0-0.2,0.1-0.3,0.1-0.5
		c0-0.1,0.1-0.3,0.1-0.5c0-0.1,0-0.3,0-0.4c0.2,0,0.2-0.2,0.1-0.5l0.4-1.9c0,0.1,0,0.1,0.1,0.1c0,0,0,0,0,0c0-0.1,0-0.2-0.1-0.3
		c0,0,0-0.1,0-0.3c0-0.1,0.1-0.2,0.1-0.3h0v-0.3l0.1,0c0,0.1,0,0.1,0,0c0,0,0-0.1,0-0.1H64c0,0-0.1,0-0.1,0c0-0.2,0.1-0.4,0.1-0.8
		c0.1-0.3,0.1-0.6,0.1-0.8h0.2c0.1-0.2,0.1-0.4-0.1-0.4l0.3-1.8c0-0.1,0.1-0.7,0.3-1.8c0,0,0.1-0.4,0.2-1.1c0,0.1,0.1,0.2,0.2,0.3
		c0.1-0.2,0.1-0.4,0-0.6c0,0-0.1,0-0.1-0.1l0.4-2.5c0.2,0.1,0.3,0,0.3-0.1c0-0.1-0.1-0.2-0.1-0.4h-0.1c0.1-1,0.3-1.9,0.5-2.6v0
		c0-0.1,0.1-0.4,0.1-0.9c0.1-0.5,0.1-0.8,0.1-0.9c0,0,0.1,0,0.1,0h0c0,0,0,0,0-0.1c0.1-0.1,0-0.1,0-0.1c0.1,0,0.1,0,0.1,0v-0.2h-0.1
		l0.2-1.3c0-0.4,0.1-0.9,0.2-1.3c0.1,0,0.1-0.1,0.2,0l-0.1-0.2l0.3-1.5c0,0,0.1,0.1,0.2,0c0,0,0,0,0,0c-0.1-0.1-0.1-0.1-0.1-0.2
		c0-0.1,0-0.2,0-0.2c0,0,0-0.1,0-0.1V7.4l0.2-1.3c0.1-0.5,0.2-0.9,0.5-1.3c0.3-0.3,0.7-0.4,1.1-0.4c0.1,0,0.1,0.1,0,0.1l0,0
		c0,0,0.1,0,0.1,0c0,0,0-0.1,0-0.1h1l0,0.1h0l0.1,0c-0.1-0.1-0.1-0.1,0-0.1l0.1,0l0,0h0.9c0,0,0,0.1,0.1,0.1V4.4h1.1l0,0v0h1.1
		c0.3,0,0.6,0.1,0.9,0.2c0.2,0.1,0.3,0.3,0.4,0.5l0,0c0,0.1,0,0.1,0.1,0.2V5.3l0.1,0.4C75,6,75.1,6.3,75.1,6.4l0.3,1.7
		c0,0.3,0.1,0.6,0.2,1c0.1,0.2,0.1,0.5,0.1,0.7c0,0-0.1,0-0.1,0l0,0.3c0.1,0,0.1,0,0.1,0l0,0.1v0.1l-0.1-0.1c0,0.2,0,0.4,0.1,0.5
		v-0.1c0.1,0.4,0.2,0.8,0.2,1.2c0.1,0.6,0.1,1,0.2,1.3l0.4,2.5l0,0.3c0.1,0.1,0.1,0.1,0.1,0c0.1,0.6,0.3,1.6,0.5,3
		c0.3,1.9,0.5,2.9,0.5,3v0l0,0.2l0,0.2c0,0,0,0.1,0,0.2l1.1,6.4c0,0.1,0,0.2,0.1,0.3c0.1,0.5,0.2,1.1,0.3,1.9S79.4,32.3,79.5,32.6z
		 M63.5,31.7l-0.1,0.2l0.1,0.1l0-0.2L63.5,31.7z M63.6,34.5l0-0.2l0-0.1L63.5,34l-0.1,0v0.1L63.6,34.5L63.6,34.5z M63.6,33l0-0.1
		L63.6,33L63.6,33z M63.8,28.6L63.8,28.6L63.8,28.6L63.8,28.6z M63.9,29.9v-0.3l-0.1-0.1l0,0.3L63.9,29.9L63.9,29.9z M64,31.1
		L64,31.1v0.2V31.1z M64.1,32.5l0.1,0L64.1,32.5L64,32.2L64,32.4L64.1,32.5z M64.1,33.7L64.1,33.7L64.1,33.7L64.1,33.7L64.1,33.7z
		 M64.3,26.5l-0.1,0.2l0.2,0.1l0-0.1l0-0.1L64.3,26.5z M64.4,27.7l-0.3-0.2l0.1,0.5L64.4,27.7z M64.3,28.6v0.5l0.3,0.2v-0.2L64.4,29
		l0-0.2l0-0.1L64.3,28.6L64.3,28.6L64.3,28.6L64.3,28.6z M64.4,30.2L64.4,30.2l0,0.4l0.1-0.2L64.4,30.2z M64.4,31.6l0.1,0.3l0.1,0.1
		l0.1-0.3L64.4,31.6z M64.5,32.7l0,0.3l0,0.2h0.2l0-0.3L64.5,32.7z M64.7,23.4L64.7,23.4l0,0.3l0.1-0.1L64.7,23.4z M64.7,34.2
		l0.1,0.2L64.7,34.2L64.6,34L64.7,34.2z M64.9,24.8l0-0.2l-0.1-0.1h0v0.2l0,0v0.1L64.9,24.8z M65,25.9l-0.1-0.3l-0.1-0.1v0.2
		l0.1,0.2H65z M65,27.2l-0.2,0l0.1,0.3l0.1,0L65,27.2z M64.9,27.9l0,0.1L64.9,27.9L64.9,27.9z M65.1,28.5l-0.1-0.2l-0.1,0v0.2l0,0.2
		l0.1,0L65.1,28.5z M65,29.4L65,29.4l0,0.3v0.2h0l0-0.1l0.1-0.1L65,29.4L65,29.4z M65.1,30.5L65,30.8l0.1,0.4l0.1,0l0.1-0.1l0-0.3
		L65.1,30.5z M65.1,32.3l0,0.1l0.1-0.3L65.1,32L65.1,32.3z M65.1,21.4v0.4l0,0.1h0.1l0-0.2L65.1,21.4L65.1,21.4z M65.3,33.3l0,0.2
		l0,0.1l0.1,0.1l0-0.2L65.3,33.3z M65.5,24.1l0-0.2l-0.1,0h-0.1V24l0.2,0.3L65.5,24.1z M65.4,35l0-0.1l0-0.3l-0.1-0.1l0,0.3L65.4,35
		z M65.5,18.3L65.5,18.3v0.2l0.3,0.4l0-0.4l-0.2-0.1l0.1-0.2l0-0.1l-0.2,0.1L65.5,18.3z M65.6,25.3l0-0.2l-0.1-0.2v0.3l0.1,0.3V25.3
		z M65.5,26.4l0.1,0.3l0.1-0.2l-0.2-0.3V26.4z M65.8,19.4l-0.1-0.1l0-0.1h-0.1l-0.1,0.4l0.2,0.5l0.2-0.1v-0.1l-0.1-0.2l-0.2-0.2
		L65.8,19.4z M65.5,20.8l0,0.4l0.1,0.1l0.1-0.1l0-0.1l-0.1-0.4L65.5,20.8z M65.8,28.7l-0.2,0l0.1,0.4l0.1,0.1L65.8,28.7z M65.7,22.1
		l0.1,0.2l0,0.1l0.2-0.3l-0.3-0.2V22.1L65.7,22.1z M65.8,30l-0.1,0.2l0.2,0.2v-0.2L65.8,30z M65.7,31.4l0,0.4l0.1,0.2l0-0.4v-0.3
		h-0.1L65.7,31.4z M65.8,23.3l0,0.2l0,0.1l0.2-0.2L65.8,23.3z M66.1,34.3l0-0.1l0-0.1l0-0.2v-0.2l-0.2,0.4L66.1,34.3z M66.1,15.4
		l-0.2,0.1l0.2,0.3l0.1,0l0-0.1L66.1,15.4z M66.1,24.7L66.1,24.7l-0.2-0.2v0.1L66.1,24.7L66.1,24.7z M66,25.6l-0.1,0.1l0.1,0.2
		l0.1,0v-0.2L66,25.6z M66.2,16.7l-0.1-0.3v0l0.1,0h0l-0.1-0.1l-0.1,0l0,0.4l0.1,0.4l0.1,0L66.2,16.7z M66.2,18.3l0.1-0.3l-0.1-0.2
		l-0.1-0.1L66,17.7l0,0.3L66.2,18.3z M66,26.9v0.4l0.2,0.2l0.1-0.3l-0.2-0.3l0-0.2l-0.1,0L66,26.9z M66.1,28.3l0.3,0.1l-0.1-0.4
		L66.1,28.3z M66.2,19.5l0.1-0.4L66.1,19l0,0.2h0.1l0,0.1L66.2,19.5L66.2,19.5z M66.2,29.6l0.1,0.3l0-0.2L66.2,29.6L66.2,29.6z
		 M66.4,20.2L66.3,20l0.1-0.2l-0.2,0l0,0.3v0.6l0.2,0.2l0.1-0.2L66.4,20.2z M66.4,13.4l-0.1,0.1l0,0.1l0,0l0,0.1l-0.1,0l0.1,0.1
		l0.1-0.2L66.4,13.4l0.2,0L66.4,13.4L66.4,13.4z M66.3,21.6l0.1,0.2l0.1,0v-0.2l-0.1-0.4l-0.1,0.1V21.6z M66.3,30.9l0,0.2l0,0.1h0.1
		L66.3,30.9L66.3,30.9z M66.3,32.2l0.1,0.1l0.1,0v-0.2L66.4,32L66.3,32.2z M66.5,22.4l-0.2,0.3l0.1,0.4l0-0.3V22.4z M66.6,24
		l-0.2-0.2l0,0.3L66.6,24z M66.5,15.2l0.1-0.2l-0.1-0.2v-0.1l-0.1-0.1l0,0l0,0.3L66.5,15.2z M66.7,16l-0.2-0.2l0,0.2l0.3,0.4h0.1
		l-0.1-0.1L66.7,16z M66.5,17.1L66.5,17.1l0-0.1L66.5,17.1L66.5,17.1z M66.5,34.6L66.5,34.6l0,0.1L66.5,34.6z M66.7,35L66.7,35h-0.2
		H66.7z M66.5,15.7L66.5,15.7L66.5,15.7L66.5,15.7L66.5,15.7z M66.5,25.2v0.2V25.2L66.5,25.2L66.5,25.2z M66.7,18.4L66.7,18.4v0.4
		l0.1,0.1l0.1-0.2L66.7,18.4L66.7,18.4z M66.6,26.6l0,0.1l0.1-0.1H66.6z M66.8,11.9L66.7,12l0,0.1l0.1,0v0.1l0.2,0l0.1-0.1L67,11.9
		l-0.1-0.2l0,0L66.8,11.9L66.8,11.9z M66.9,19.7l-0.2-0.2l0,0.2l0,0.3L66.9,19.7z M66.9,10.9h-0.2l0,0.1l0,0L66.9,10.9L66.9,10.9z
		 M66.8,27.9l0-0.2l-0.1-0.2l0,0.2L66.8,27.9z M66.8,20.9l0.1,0.4h0.1L67,21l-0.1-0.4l-0.1-0.2L66.8,20.9z M67,10.6l-0.1,0l0,0.1H67
		V10.6z M67.1,13.2V13L67,12.8h0l0-0.1l-0.1,0l0.1,0.1L66.9,13l0,0.1l0.1,0l0,0.1l-0.1,0.1l0.1,0L67.1,13.2z M67,19.3L67,19.3
		L67,19.3L67,19.3z M67,22.2L66.9,22l0,0.2l0,0.3L67,22.2z M67,31.5L67,31.5v0.4V31.5z M67.2,14l-0.1-0.1L66.9,14l0.1,0v0.1l0,0.1
		l0,0.1l0,0.2l0.1,0l0-0.1l0-0.2V14z M67,15.2l0.1,0.4v0.2l0.1,0v-0.4L67,15.2z M67.1,23.3L67,23.5l0,0.1h0.1l0-0.2L67.1,23.3z
		 M67,24.4L67,24.4l0.2,0L67,24.4z M67.2,25.8v-0.1l-0.2,0L67.2,25.8z M67.2,34.2L67.2,34.2V34l-0.1,0l0,0l0,0L67.2,34.2L67.2,34.2
		L67.2,34.2L67.2,34.2z M67.1,24.6v0.2l0.2,0L67.1,24.6z M67.3,9.1L67.3,9.1l0,0.2l0.1-0.2l-0.1-0.1L67.3,9.1z M67.2,16.7V17V16.7
		L67.2,16.7z M67.3,10l0,0.1l-0.1,0l0,0.1h0.1l0,0v-0.1L67.3,10z M67.3,18.2l0-0.2v0.1L67.3,18.2z M67.4,26.9L67.2,27h0.1V26.9z
		 M67.2,28l0,0.3l0,0.2l0.1,0l0-0.2V28L67.2,28z M67.3,18.9V19l0.1,0L67.3,18.9z M67.4,27.1L67.4,27.1l0,0.1L67.4,27.1L67.4,27.1z
		 M67.4,11.7L67.4,11.7v-0.2v-0.2l0-0.1l0,0.2l0,0.2L67.4,11.7L67.4,11.7z M67.4,29.6l-0.1-0.2L67.4,29.6l0,0.2l0,0.1V29.6z
		 M67.5,12.5l-0.1-0.2l0,0L67.5,12.5l-0.1,0.1l0,0.1l0-0.1V12.5L67.5,12.5z M67.4,20.4L67.4,20.4v-0.3V20.4z M67.4,31L67.4,31
		l0.1-0.2v-0.2l-0.1-0.1V31z M67.5,13.8L67.5,13.8v-0.3l-0.1,0L67.5,13.8L67.5,13.8z M67.5,21.4l0,0.3l0.1,0.1L67.5,21.4L67.5,21.4z
		 M67.4,31.8L67.4,31.8L67.4,31.8L67.4,31.8L67.4,31.8L67.4,31.8z M67.6,13.9L67.6,13.9L67.6,13.9L67.6,13.9L67.6,13.9L67.6,13.9z
		 M67.6,15l0-0.1l-0.1-0.2l0,0l-0.1,0v0.2L67.6,15z M67.5,32.5L67.5,32.5l0.2-0.2l-0.2-0.2v0.2L67.5,32.5z M67.5,15.6L67.5,15.6h0.1
		H67.5L67.5,15.6z M67.7,16.3l0-0.3l0.1-0.1l0,0l-0.1,0l-0.1-0.1l0.1,0.3L67.7,16.3z M67.6,22.7l0,0.2l0,0.1h0.1l0,0L67.6,22.7
		L67.6,22.7z M67.7,7.1L67.7,7.1l0,0.2l0.1,0.1V7.4L67.7,7.1z M67.7,23.8l-0.1-0.1L67.7,23.8V24V23.8z M67.8,25.1L67.6,25L67.8,25.1
		L67.8,25.1z M67.8,17.6l0.1,0l-0.1-0.4l-0.1,0.1L67.8,17.6z M67.8,34.8v-0.1l-0.1-0.1l0,0l0,0.1l0,0.1L67.8,34.8z M67.8,8.2h-0.1
		l0,0.3l0.1,0.1V8.2z M67.9,9.7l0-0.2h-0.1l0-0.1L67.9,9.7v0.1V9.7z M67.8,26.5l0.1,0.2l0.1-0.2l-0.1-0.3l-0.1,0V26.5z M67.9,10.9
		v-0.2l0,0l0-0.1l0,0v0.2l0.1,0.2L67.9,10.9z M67.9,20.8l0,0.3v0.1H68l-0.1-0.3L67.9,20.8z M68,12l0-0.2v0l-0.1,0v0.2L68,12z
		 M67.9,12.8l0,0.2l0.1,0.2l0.1,0L67.9,12.8L67.9,12.8L67.9,12.8z M67.9,27.8L67.9,27.8l0.1-0.1l0-0.1l-0.1,0V27.8z M68,5.4L68,5.4
		v0.1l0,0.1l0.1,0L68,5.4V5.3V5.4z M68.1,22.1l-0.1,0l0.1,0.4V22.1z M68.1,29.2l0-0.4l-0.1-0.4v0.3L68.1,29.2L68.1,29.2z M68,29.9
		l0,0.2l0.1,0.1l0-0.1L68,29.9z M68,14.2l0,0.3l0.1,0v-0.3L68,14.2z M68,31.3l0,0.2v0.2l0.1,0v-0.4L68,31.3L68,31.3z M68.1,15.3
		l0,0.3l0.1,0.1l0-0.1l0-0.2l0-0.1v-0.1l-0.1-0.1L68.1,15.3z M68.1,7.8h0.1l-0.1-0.2V7.8z M68.1,32.9l0.1-0.1l-0.1-0.1L68.1,32.9z
		 M68.4,16.6l-0.2-0.1l-0.1,0.2l0.2,0.2l0.1-0.1V16.6z M68.3,24.5l-0.1,0.2l0.2,0L68.3,24.5L68.3,24.5z M68.2,17.7L68.2,17.7
		l0.1,0.1L68.2,18l0.1,0.1h0.1v-0.2l-0.1-0.2l0,0v-0.1l-0.1-0.1l0,0.1L68.2,17.7z M68.3,8.9L68.3,8.9L68.3,8.9l0,0.1l0,0.1l0.1,0.1
		V8.9z M68.4,25.8v-0.2l0,0v-0.1l-0.1,0v0.1L68.4,25.8L68.4,25.8L68.4,25.8z M68.3,10L68.3,10l0-0.2l0,0V10L68.3,10z M68.3,19.1
		l0.1,0.3l0.1-0.2l0-0.3l-0.1-0.1l0.1,0l0-0.1l0-0.1l-0.1,0.1L68.3,19.1z M68.4,7.1L68.4,7.1L68.4,7.1v0.2V7.1L68.4,7.1z M68.4,10
		L68.4,10l0,0.4l0,0V10z M68.4,20.1l0,0.3l0.3-0.1L68.4,20.1z M68.4,12.5L68.4,12.5l0.1,0.1l0-0.1l0-0.1L68.4,12.5z M68.4,28.6
		l0.1-0.3v-0.2l0-0.1l0,0V28.6z M68.5,4.7L68.5,4.7L68.5,4.7l0,0.2l0.1,0.1V4.7H68.5z M68.6,29.7L68.6,29.7l0,0.2L68.6,29.7z
		 M68.7,13.8v-0.2l0-0.1l-0.1,0.1l0,0.2L68.7,13.8L68.7,13.8z M68.6,21.8l0-0.3l-0.2-0.1L68.6,21.8z M68.5,22.5l0.1,0.3v0.1l0.1,0
		l0-0.3L68.5,22.5z M68.6,30.7L68.6,30.7v0.2V30.7z M68.6,14.9l0.2,0.1l0,0v0h0l0,0l0-0.2l0-0.1l-0.1,0.1L68.6,14.9z M68.7,15.5
		l-0.1,0L68.7,15.5L68.7,15.5L68.7,15.5z M68.6,22.4L68.6,22.4l0-0.3l0,0l-0.1,0.1L68.6,22.4L68.6,22.4z M68.9,24l-0.1-0.3l-0.1-0.1
		l0,0.1l0,0.4L68.9,24z M68.7,24.7L68.7,24.7l0,0.2v-0.1L68.7,24.7z M68.8,6.2L68.8,6.2L68.8,6.2L68.8,6.2z M68.8,15.8L68.8,15.8
		L68.8,15.8L68.8,15.8z M68.8,16.2L68.8,16.2l0-0.2L68.8,16.2L68.8,16.2z M68.7,25.3l0.2-0.1l-0.1-0.1L68.7,25.3z M68.8,7.1v0.2
		l0,0.1l0,0V7.1L68.8,7.1z M68.8,16.7h0.1v-0.1l0,0L68.8,16.7z M68.8,17.1l0,0.2l0.1,0.2l0.1-0.1L68.8,17.1L68.8,17.1z M68.9,18.6
		l0.1-0.2l-0.1-0.1L68.9,18.6z M68.8,26.2v0.3l0.1,0.1l0.1-0.1L69,26.3L68.8,26.2z M69,27.7l0.1,0l0-0.2l-0.2,0L69,27.7z M69,9.6
		L69,9.6v0.2l0.1,0L69,9.6L69,9.6z M68.9,19.3v0.4H69L68.9,19.3z M69.1,10.9v-0.2L69,10.6v0L69.1,10.9L69.1,10.9z M69,20.7l0.1,0.3
		l0.1,0.1l0-0.3L69,20.7z M69.2,5.2L69,5.3l0,0.1l0.1,0L69.2,5.2z M69,12L69,12l0-0.1L69,12z M69.2,5.7L69.2,5.7L69.2,5.7L69.2,5.7z
		 M69.3,6.5L69.3,6.5L69.3,6.5L69.3,6.5l-0.2,0.2l0,0.1l0.1,0l0-0.1V6.5L69.3,6.5z M69.2,13.9l0,0.2l0.1,0.3l0.1,0.1v0l0.1,0
		l-0.1-0.3L69.2,13.9z M69.1,21.9l0,0.3l0.1-0.2L69.1,21.9z M69.2,15.2L69.2,15.2l0.1,0.2v-0.1L69.2,15.2L69.2,15.2z M69.2,23.2v0.1
		l0.1,0.2l0.1,0l0-0.1L69.2,23.2L69.2,23.2z M69.3,7.9L69.3,7.9L69.3,8l0-0.1H69.3z M69.4,16.5l-0.2-0.2L69.4,16.5l-0.1,0.4l0.2,0.1
		L69.4,16.5z M69.5,8.8l-0.1-0.2l-0.1-0.1l0,0.1l0.1,0.3l0.1,0.1V8.8z M69.5,15.5h-0.1l0,0.2l0.1,0.1l0.1-0.1V15.5z M69.3,25.7
		l0.2,0.3l0.1-0.2l-0.2-0.3L69.3,25.7z M69.5,7.9L69.5,7.9l0-0.3l-0.1,0L69.5,7.9L69.5,7.9z M69.4,17.6l0,0.3l0.1,0.3l0.1-0.1l0-0.3
		l-0.1,0L69.4,17.6L69.4,17.6l0.2-0.1l-0.1-0.1l-0.1,0.1V17.6z M69.5,10.2l0.1-0.1l-0.1-0.2l-0.1,0L69.5,10.2z M69.4,18.9l0,0.3
		l-0.1,0l0,0.1l0.2-0.1l0-0.3l-0.1-0.2l-0.1,0L69.4,18.9z M69.6,11.5l0.1,0L69.6,11.5l0-0.3L69.4,11l0,0.1l0.1,0.2V11.5z M69.5,20.1
		l0,0.3v0.2h0.1l0.1,0v-0.3L69.5,20.1z M69.5,12.2L69.5,12.2h0.1H69.5L69.5,12.2z M69.7,10.1L69.7,10.1l-0.2,0.1l0.2,0.2l0-0.1
		L69.7,10.1L69.7,10.1L69.7,10.1z M69.7,12.5l-0.1,0.1L69.7,12.5L69.7,12.5L69.7,12.5z M69.7,28.4v-0.3l-0.2,0L69.7,28.4L69.7,28.4z
		 M69.7,13.8L69.7,13.8L69.7,13.8l0-0.4l-0.1-0.1v0.2L69.7,13.8z M69.8,6l-0.1,0L69.8,6L69.8,6z M69.8,15.3L69.8,15.3v0.1V15.3
		l0.1,0L69.8,15.3z M69.9,7.3L69.9,7.3l-0.1-0.1v0.2L69.9,7.3L69.9,7.3z M69.8,15.8l0,0.1l0,0.3l0.1-0.2L69.8,15.8z M69.8,23.7
		l0.1,0.4l0.1-0.3l-0.1-0.4L69.8,23.7z M70,8.5l0-0.2h0L70,8.5L70,8.5z M70,17.2l-0.1-0.1l0,0.3L70,17.2z M70,9.6V9.3l-0.1,0L70,9.6
		L70,9.6L70,9.6z M70.1,18.4l-0.2-0.1l0,0.2l0.1,0.1l0.1,0L70.1,18.4z M69.9,24.9v0.2h0.2L69.9,24.9L69.9,24.9z M70,26.3l0.1,0.3
		l0.1-0.2L70,26.1l-0.1,0V26.3z M70.1,10.5L70.1,10.5L70.1,10.5l-0.1,0l0,0.3l0.1,0.2L70.1,10.5z M71.7,23.3c0.5,0,0.8-0.1,0.9-0.3
		c0.1-0.3,0.1-0.6,0-0.9V22h0c0.1-0.1,0.1-0.2,0-0.3c-0.1,0-0.1-0.1,0-0.2h-0.1c-0.3-1.7-0.5-2.6-0.5-2.7c0-0.2-0.1-0.5-0.3-0.7
		c-0.1-0.2-0.3-0.3-0.5-0.3c-0.3,0.1-0.4,0.4-0.5,0.9c0-0.1,0-0.1,0-0.2h-0.1c0,0.1,0.1,0.2,0,0.3v0.3c-0.1,0.2-0.1,0.7-0.3,1.3
		v-0.1h-0.1c-0.1,0.2-0.1,0.4,0,0.6c0,0.2-0.1,0.6-0.2,1.3c0,0.2,0,0.4,0,0.6c0,0.2,0.1,0.4,0.4,0.4l0,0.2c0.1,0,0.1-0.1,0-0.1
		c0.3,0,0.6,0.1,0.9,0h0.1v0.1L71.7,23.3L71.7,23.3z M70,19l0,0.1l0,0V19L70,19z M70.1,19.5L70.1,19.5v0.2l0.1,0.1l0,0L70.1,19.5
		L70.1,19.5z M70.1,27.7l0.2-0.1l-0.1-0.2l0,0V27.7z M70.1,11.6v0.2l0.1,0L70.1,11.6z M70.3,12.9L70.3,12.9v-0.1l-0.1,0.1L70.3,12.9
		L70.3,12.9L70.3,12.9z M70.1,14L70.1,14l0.2-0.1h-0.1L70.1,14L70.1,14z M70.3,5.4L70.3,5.4l0,0.2l0.1,0V5.6L70.3,5.4z M70.3,13.1
		L70.3,13.1L70.3,13.1L70.3,13.1z M70.4,6.5L70.4,6.5l0-0.2l0-0.1l0,0.2L70.4,6.5L70.4,6.5z M70.4,15.1l-0.1,0.1l0.1,0.3l0,0.2
		l0-0.1l0-0.3v-0.2L70.4,15.1L70.4,15.1z M70.5,7.9l0-0.2l-0.1-0.2l-0.1,0.2L70.5,7.9L70.5,7.9z M70.4,16.3l0,0.1l-0.1,0.2l0,0.1
		l0.1,0l0.1-0.2L70.4,16.3l0-0.3l-0.1,0.1L70.4,16.3z M70.4,24.4l0.1,0l-0.1-0.2L70.4,24.4z M70.6,9L70.6,9l0-0.3l-0.1,0.2L70.6,9
		L70.6,9z M70.5,25.8L70.5,25.8l0.1,0v-0.2h-0.1l0,0.1l0,0L70.5,25.8z M70.5,10.1l0.1-0.1l-0.1-0.3V10.1z M70.7,18L70.7,18h-0.2
		H70.7L70.7,18z M70.7,27.2l0.1-0.2l-0.1-0.2v0.2L70.7,27.2z M70.7,11.7L70.7,11.7L70.7,11.7L70.7,11.7z M70.7,12.2l0,0.1l0.1,0l0,0
		l0.1,0.1l0,0L70.7,12.2L70.7,12.2z M70.7,13.4L70.7,13.4L70.7,13.4L70.7,13.4L70.7,13.4z M70.8,4.6l-0.1,0.2l0.2,0L70.8,4.6
		L70.8,4.6z M70.8,14.4L70.8,14.4v0.2l0,0L70.8,14.4z M70.9,6L70.9,6L70.9,6L70.9,6L70.9,6z M70.9,14.7l0,0.2l0,0l0.1,0h0.1l0,0
		L70.9,14.7L70.9,14.7z M71.1,7.2l0-0.2l-0.2,0L71,7.2H71.1z M70.9,15.8L70.9,15.8L71,16l0.1-0.1L70.9,15.8L70.9,15.8z M71.1,24
		L71.1,24v-0.2l0-0.1l0-0.2l-0.1,0.1l0,0.4H71.1z M71.1,7.9l-0.1,0L71,8.1L71.1,7.9L71.1,7.9z M71.1,17.1L71,17.2l0,0.2l0,0l0-0.1
		V17.1z M71.1,7.6L71.1,7.6H71H71.1z M71.2,8.3L71.2,8.3l0-0.1l0-0.1l-0.1,0l0,0.2l0,0.2l0.1,0L71.2,8.3z M71.1,9.4L71.1,9.4
		L71.1,9.4L71.1,9.4z M71.3,10.5l-0.1-0.3l-0.1,0.1v0.3l0.1,0.2L71.3,10.5z M71.2,26.5L71.2,26.5L71.2,26.5L71.2,26.5L71.2,26.5z
		 M71.3,17.3L71.3,17.3L71.3,17.3L71.3,17.3z M71.2,11.9L71.2,11.9L71.2,11.9l0.2,0l0-0.1l-0.1-0.1V11.9L71.2,11.9z M71.3,13.1
		L71.3,13.1l0,0.1l0.1-0.1l0-0.1l-0.1,0L71.3,13.1z M71.5,5.3l-0.2,0l0,0.2h0.1V5.4L71.5,5.3L71.5,5.3z M71.4,12.8L71.4,12.8
		L71.4,12.8L71.4,12.8z M71.4,13.8L71.4,13.8l0,0.4l0,0.1l0-0.2L71.4,13.8L71.4,13.8z M71.5,6.7V6.6l-0.1-0.2l0,0v0.2L71.5,6.7z
		 M71.6,7.7L71.6,7.7l-0.1-0.2h-0.1l0,0.1l0.1,0.1l0.1,0.1h0V7.7L71.6,7.7L71.6,7.7z M71.5,14.9l0,0.2v0.1l0.1,0.1l0,0.1v0.2l0-0.1
		v-0.4L71.5,14.9L71.5,14.9z M71.5,24.4l0.1,0l0-0.1l-0.1-0.1L71.5,24.4z M71.5,8.6L71.5,8.6l0-0.2L71.5,8.6z M71.7,16.3l-0.1,0.2
		l0.1,0.3l0-0.1V16.3z M71.6,8.8l0.1,0.2V9l0-0.1V8.7L71.6,8.8z M71.7,25.4l-0.1,0.1l0.1,0.1L71.7,25.4z M71.7,10.2l0.1-0.2
		l-0.2-0.2l0,0.3V10.2z M71.6,17.6v0.3l0,0l0-0.1L71.6,17.6L71.6,17.6z M71.8,27v-0.3l-0.2,0l0,0V27L71.8,27L71.8,27z M71.7,12.1
		L71.7,12.1l0.1,0.3l0.1,0v-0.2L71.8,12L71.7,12.1z M71.9,11.1l0-0.1L71.9,11.1h-0.1l0,0.2l0.1,0.2l0.1-0.2V11.1z M71.7,24.4
		L71.7,24.4L71.7,24.4L71.7,24.4z M71.8,12.4L71.8,12.4l0,0.1l0.1,0L71.8,12.4z M72,13.5l-0.2,0l0.1,0.3L72,13.5z M71.9,4.8l0,0.1
		h0.1L71.9,4.8L71.9,4.8z M71.9,5.9L71.9,5.9l0-0.1L71.9,5.9L71.9,5.9z M71.9,6L71.9,6L72,6.2L71.9,6L71.9,6z M71.9,14.8l0.1,0
		L71.9,14.8l0.1,0.1l0.1,0L72,14.7l0-0.2L72,14.4l0,0l0,0.1L71.9,14.8z M72.2,7L72.2,7H72H72.2l0,0.1l0,0.1h0.1V7z M72,15.6l0,0.3
		l0,0.1l0.1,0.1l0.1,0v-0.2L72,15.6L72,15.6z M72.1,16.9l0,0.1v0.2l0.1-0.1L72.1,16.9L72.1,16.9z M72.3,8.1l0-0.1l-0.1,0.1v0.2
		l0.1,0h0.1l-0.1,0L72.3,8.1z M72.1,23.8l0.1,0.1l0-0.2l0-0.1l-0.1-0.1V23.8z M72.3,18.2h-0.2l0,0.1l0,0L72.3,18.2z M72.2,25h0.2
		l0-0.3L72.2,25z M72.2,9.4L72.2,9.4L72.2,9.4v0.1l0.1,0L72.2,9.4L72.2,9.4L72.2,9.4L72.2,9.4L72.2,9.4z M72.4,10.6h-0.1l0.1,0.2
		L72.4,10.6z M72.3,11.8l0.1-0.2l-0.1-0.2l0,0.1l0.1,0v0L72.3,11.8z M72.3,19.7l0.3,0.1v-0.2l-0.1-0.1l-0.1-0.2l0,0L72.3,19.7z
		 M72.5,12.9l0-0.2v-0.1l-0.1,0.2l0,0.2L72.5,12.9z M72.5,5.3L72.5,5.3v0.2V5.3L72.5,5.3z M72.5,20.7L72.5,20.7h-0.1l0,0.2
		L72.5,20.7z M72.5,6.3l0.1,0L72.5,6.3l0-0.2l-0.1,0L72.5,6.3L72.5,6.3l0,0.1L72.5,6.3z M72.8,7.4L72.8,7.4L72.8,7.4l-0.3,0h0.1v0.1
		l0,0.2l0,0.1l0-0.1h0l0,0l-0.1,0h0L72.8,7.4L72.8,7.4z M72.5,14.1l0,0.2h0l0-0.1L72.5,14.1L72.5,14.1z M72.5,15.3L72.5,15.3
		l0.1,0.2h0l0.1,0l-0.1-0.2l0-0.2h0l0,0V15.3z M72.6,22.1L72.6,22.1L72.6,22.1L72.6,22.1z M72.6,24.1l0,0.2v0.1l0,0.1h0.1l0,0v-0.2
		l-0.1,0L72.6,24.1L72.6,24.1z M72.7,8.7L72.7,8.7v0.1l0,0.1h0.2V8.8L72.7,8.7L72.7,8.7z M72.8,9.6l-0.1,0.1l0,0.2l0.1,0.2l0.1,0
		L73,10l0-0.1v0l0-0.1h-0.1l0,0h0.1L72.8,9.6L72.8,9.6z M72.8,25.7l0.1-0.1l-0.2-0.1L72.8,25.7z M72.8,16.8l0-0.2l0-0.1L72.8,16.8
		L72.8,16.8z M72.7,17.5v0.1V17.5L72.7,17.5z M73,10.6L73,10.6l-0.2-0.1h0l0-0.1h-0.1l0,0.1l0,0l0,0.2v0H73L73,10.6z M72.8,18.7v0.2
		l0.1,0.2l0-0.1L72.8,18.7L72.8,18.7L72.8,18.7z M73,11.4l0.1-0.1l0-0.1l-0.1,0l0,0l0-0.1l-0.2,0.1l0,0.2L73,11.4z M73,12.2L72.9,12
		v-0.1l-0.1-0.1v0.3l0.2,0.3L73,12.2L73,12.2z M72.9,19.8L72.9,20l0.1,0.2h0l0-0.2L72.9,19.8z M72.9,27L72.9,27l0.1,0l0-0.3
		l-0.1,0.1V27z M72.9,4.6L72.9,4.6L73,4.7l0,0l0,0.1H73l0-0.2L72.9,4.6L72.9,4.6z M73,13.2L73,13.2l0,0.2L73,13.2L73,13.2z M73,27.9
		L73,27.9l0,0.1v0.1l0,0V27.9z M73.2,7l-0.1-0.2V6.7l-0.1,0l0,0.2L73.1,7l0,0v0.2l0.1,0.1L73.2,7z M73.1,14L73.1,14L73.1,14L73.1,14
		L73.1,14z M73,14.7l0,0.1l0.2,0l0.1-0.1l-0.1-0.2l-0.1,0L73,14.7z M73,21.2l0,0.3l0.1,0l0-0.1v-0.2l0,0l0-0.1L73,21L73,21.2z
		 M73.2,6l-0.1-0.1h-0.1V6L73.2,6L73.2,6z M73.2,15.8l0,0.1h0.1L73.2,15.8l0.1,0.1l0-0.1l-0.1-0.2v-0.1l0,0.1V15.8z M73.2,22.4
		l0,0.2h0.2L73.2,22.4L73.2,22.4z M73.2,23.5v0.1l0.1,0.2l0.1,0v-0.2l0-0.2L73.2,23.5z M73.3,8.2l0-0.3l-0.1,0v0.1l0,0.2l0,0
		L73.3,8.2z M73.3,15.9L73.2,16l0.1,0.1V15.9z M73.4,9.4l0-0.2l-0.1-0.1l-0.1,0l0,0.1L73.4,9.4L73.4,9.4z M73.4,16.9l-0.2,0l0.1,0.3
		L73.4,16.9z M73.2,24.9l0,0.1l0.1,0v-0.2L73.2,24.9L73.2,24.9z M73.5,9.4L73.5,9.4l-0.2,0L73.5,9.4L73.5,9.4L73.5,9.4z M73.6,19.4
		l-0.3-0.2l0.2,0.4L73.6,19.4z M73.5,26.1l-0.2,0l0.1,0.3L73.5,26.1z M73.5,17.9L73.5,17.9L73.5,17.9L73.5,17.9L73.5,17.9L73.5,17.9
		z M73.4,27.5l0.1,0.2l0,0l0.1-0.2l0-0.1l-0.1,0l0-0.1l-0.1-0.1L73.4,27.5z M73.6,12.8L73.6,12.8L73.6,12.8l0.1,0.1v-0.1l0-0.2
		L73.6,12.8z M73.7,28.2L73.7,28.2l-0.1,0L73.7,28.2L73.7,28.2z M73.7,30L73.7,30l0-0.3l-0.1,0.1L73.7,30z M73.9,14.1l0-0.1l0,0
		h-0.1l-0.2,0l0,0.1l0.2,0.2L73.9,14.1z M73.7,21.8L73.7,21.8l-0.1,0.3l0.1-0.1L73.7,21.8z M73.8,23.2l0,0.1l0.1,0L73.8,23l-0.1,0
		l0,0.2H73.8z M73.8,28.9v-0.1l0-0.2l0-0.1l0,0v0.4L73.8,28.9L73.8,28.9L73.8,28.9z M73.8,7.4L73.8,7.4v0.2v0.2l0-0.1L73.8,7.4z
		 M73.8,15.2L73.8,15.2l0,0.2l0.1-0.1L73.7,15L73.8,15.2z M73.9,9l0-0.3l-0.2,0l0,0.2l0.1,0V9L73.9,9z M73.8,16.1l0,0.3l0.2,0.3
		l0-0.1l0-0.1v0l0.1,0l-0.1-0.1L73.8,16.1l0.1,0L73.8,16.1L73.8,16.1z M73.9,21.4l-0.1,0L73.9,21.4L73.9,21.4z M74,10.1l0-0.3
		l-0.2-0.2v0.1l0.1,0.2L74,10.1z M73.9,17.4l0.1,0.3l0.1,0.1v-0.5L73.9,17.4z M74.1,25.7L74.1,25.7L74.1,25.7l-0.1-0.3l-0.1,0
		L74.1,25.7z M74.1,10.9l0-0.2l-0.1,0L74.1,10.9L74.1,10.9L74,11l0,0.1l0.1,0l0,0l0.1,0.1l0-0.1V10.9z M74.1,18.7l-0.1,0l0.1,0.3
		h0.1v0L74.1,18.7z M73.9,26.8l0.1,0L74,26.5L73.9,26.8z M74,12.1l0.2-0.1L74,12V12.1z M74.1,20.1l0,0.1l0,0h0.1v-0.1l0-0.2l0-0.3
		l-0.1,0l0,0.2L74.1,20.1L74.1,20.1z M74.1,4.6v0.2l0,0l0.1,0h-0.1L74.1,4.6L74.1,4.6z M74.3,13.3l-0.2,0.1l0.1,0.3L74.3,13.3z
		 M74.1,12.3L74.1,12.3v-0.1V12.3z M74.1,14.3l0.1,0.3l0.1,0.2h0.1l0-0.1l0-0.2l0-0.1L74.1,14.3L74.1,14.3z M74.3,21.5l0.1-0.2
		L74.3,21l-0.1,0.1L74.3,21.5L74.3,21.5z M74.3,29.3L74.3,29.3v0.2V29.3z M74.3,6.8L74.3,6.8L74.3,6.8l0,0.1L74.3,6.8z M74.2,15.6
		v0.1V15.6l0.1,0L74.2,15.6L74.2,15.6z M74.2,30.4v0.2l0.2,0L74.2,30.4L74.2,30.4z M74.3,7.1L74.3,7.1L74.3,7.1L74.3,7.1L74.3,7.1
		L74.3,7.1z M74.3,26.9L74.3,26.9L74.3,26.9L74.3,26.9L74.3,26.9z M74.4,16L74.4,16L74.4,16l0-0.1v-0.1h-0.1L74.4,16L74.4,16z
		 M74.4,8.2L74.4,8.2L74.4,8.2l-0.1,0.2l0.1,0V8.2z M74.4,22.7L74.4,22.7l0-0.2L74.4,22.7L74.4,22.7z M74.4,23.6l0-0.1L74.4,23.6
		L74.4,23.6z M74.5,32.2V32h-0.1L74.5,32.2L74.5,32.2z M74.6,10l-0.1,0.1l0,0.1L74.6,10z M74.5,18.2l0,0.1l0.1-0.2L74.5,18
		L74.5,18.2z M74.6,24.9L74.6,24.9l0-0.2L74.6,24.9L74.6,24.9L74.6,24.9z M74.8,11.7l-0.1-0.2l-0.1,0v0.1l0,0.2h0.1l0,0L74.8,11.7z
		 M74.7,27.6L74.7,27.6l-0.1-0.2L74.7,27.6L74.7,27.6z M74.7,6.3v0.1V6.3L74.7,6.3z M74.9,14.1v-0.3h-0.1L74.9,14.1z M74.8,14.6
		L74.8,14.6v0.1V14.6L74.8,14.6z M75,15l-0.2,0.1l0.2,0.4l0.1-0.1l0-0.1L75,15z M74.9,21.9L74.9,21.9l0,0.3L74.9,21.9z M74.9,7.4
		l0,0.1L75,7.7V7.5L74.9,7.4z M74.8,22.9l0,0.3L75,23L75,22.8L74.8,22.9z M75.1,8.7L75,8.5l-0.1-0.2v0.1l0,0v0.2L75,8.7L75.1,8.7
		l0,0.1L75.1,8.7z M75,14.5L75,14.5h-0.1H75L75,14.5z M74.9,16.5l0.1,0.1l0-0.2L75,16.2l0-0.2l0,0C74.9,16,74.9,16.5,74.9,16.5z
		 M75,17.2L75,17.2L75,17.2l0.1,0.1l0-0.1L75,17.2z M74.9,9.5L74.9,9.5L75,9.9l0.1,0.1V9.6L75,9.4L74.9,9.5L74.9,9.5z M75,24.3
		l0,0.2l0,0l0-0.2H75z M75,16.8L75,16.8l0,0.1L75,16.8L75,16.8z M75,25.5v0.2l0.1,0L75,25.5l0-0.2L75,25.5z M75.2,11L75.2,11
		l-0.1,0.1l0.1,0.1l0-0.1l0-0.2l0-0.1l0,0L75.2,11v-0.1V11z M75.2,11.7L75.2,11.7v-0.1V11.7L75.2,11.7z M75.2,17.6l-0.1-0.2
		L75.2,17.6l0,0.2L75.2,17.6z M75.2,33.8L75.2,33.8l0-0.1l-0.1,0L75.2,33.8L75.2,33.8z M75.1,11.8L75.1,11.8L75.1,11.8L75.1,11.8z
		 M75.1,18.5v0.3l0.1,0.3v-0.3L75.1,18.5L75.1,18.5z M75.3,12l-0.1,0.2l0.2,0L75.3,12z M75.2,26.8l0-0.2l0-0.1l0-0.1v0.3L75.2,26.8z
		 M75.3,13.4l0.1,0.2l-0.1-0.4l0-0.4l-0.1,0.4L75.3,13.4z M75.3,20l-0.1,0.1h0.2L75.3,20z M75.3,21.3l0.1,0.1l0.1,0l0.1-0.2
		l-0.1-0.1l-0.1-0.1l0,0.1L75.3,21.3z M75.5,14.4l-0.1-0.1L75.5,14.4v0.2l0.1,0l0-0.1l0,0h-0.1V14.4z M75.4,15.7l0.1,0.2v-0.3
		l-0.1-0.2V15.7z M75.4,22.2l0,0.2l0.1,0.3l0.1-0.3l0-0.2L75.4,22.2z M75.7,17L75.7,17h-0.1H75.7L75.7,17z M75.5,23.5v0.2l0.3,0
		l-0.1-0.1L75.5,23.5z M75.6,24.7l0,0.2l0.1,0.1l0.1,0v-0.2L75.6,24.7z M75.7,18l0,0.2v0.1l0.1,0l0-0.1L75.7,18L75.7,18z M75.7,11.4
		L75.7,11.4l0,0.3l0.2,0.1v-0.2L75.7,11.4L75.7,11.4z M75.8,26.3l0-0.2L75.7,26v0l0,0.1L75.8,26.3L75.8,26.3z M75.9,19.1l-0.1,0
		l0,0.2l0.1,0.2l0.1-0.1v-0.1L75.9,19.1z M75.9,12.7L75.9,12.7v-0.2v-0.1l0,0l0,0.2L75.9,12.7z M75.8,19.1L75.8,19.1l0-0.1h0V19.1z
		 M76,20.5L76,20.5L76,20.5L76,20.5z M76,14L76,14v-0.2v-0.1l0,0.1L76,14z M76.1,28.5l-0.2,0l0.1,0.2l0.1,0V28.5z M76.1,23l0-0.1
		l-0.1,0L76.1,23L76.1,23L76.1,23z M76.1,15.2l0-0.3v-0.1L76,14.8v0.3l0.1,0.3L76.1,15.2z M76.1,29.7l0,0.2l0.2,0L76.1,29.7z
		 M76.3,16.3l-0.1-0.2l-0.1,0.2l0,0.2l0.1,0L76.3,16.3z M76.1,31.4l0.1,0v-0.1l0-0.2L76.1,31V31.4z M76.2,17.8l0.1-0.2l0-0.2
		l-0.1,0.1l0,0.2L76.2,17.8z M76.3,24.2L76.3,24.2l0,0.2L76.3,24.2z M76.2,18.7L76.2,18.7l0.2,0.2v-0.2H76.2L76.2,18.7z M76.2,32.4
		l0.1,0.1v-0.1L76.2,32.4L76.2,32.4v-0.2V32.4z M76.4,20.2l0.1-0.3l-0.1-0.3l-0.1,0.1l0,0.3l0,0.1L76.4,20.2L76.4,20.2z M76.3,34.9
		l0.2,0.2l0-0.2L76.3,34.9z M76.6,22.4v0.2h0.2L76.6,22.4L76.6,22.4z M76.8,23.6l-0.2-0.2l0,0.3L76.8,23.6z M76.7,30.4L76.7,30.4
		L76.7,30.4L76.7,30.4l0-0.3L76.7,30.4L76.7,30.4z M76.7,16.7l0,0.2l0,0.1l0,0l0-0.2L76.7,16.7L76.7,16.7z M76.8,18.2l0.1-0.2
		l-0.2,0L76.8,18.2L76.8,18.2z M76.9,24.9l0.1-0.2l-0.1-0.1l-0.1,0.2L76.9,24.9z M76.8,31.8h0.1l0-0.2l-0.1-0.1V31.8z M76.8,19.1
		l0,0.3v-0.7l0,0l0,0.2L76.8,19.1z M76.9,32.9L76.9,32.9v0.2l0,0L76.9,32.9L76.9,32.9z M76.9,26.1L76.9,26.1l0.1-0.2L76.9,26.1z
		 M77,34.6l0-0.2l0-0.3l0-0.1l-0.1,0.1l0,0.3L77,34.6z M77,27.1v0.1l0.1,0v-0.1L77,27.1z M77.1,21.6l0,0.2l0.2,0.1v-0.3H77.1
		L77.1,21.6z M77.1,28.6l0.1,0.1l0.1-0.1l-0.1-0.2l-0.1,0V28.6z M77.3,29.7L77.3,29.7l0,0.2L77.3,29.7L77.3,29.7z M77.3,23L77.3,23
		l0,0.2l0.1,0L77.3,23z M77.5,24l-0.2,0.1l0.2,0.1L77.5,24z M77.3,31.1L77.3,31.1l0-0.2h-0.1L77.3,31.1z M77.4,25.4v0.2l0.1,0
		L77.4,25.4L77.4,25.4z M77.6,26.6L77.6,26.6h-0.1H77.6z M77.6,33.7v-0.1V33.7L77.6,33.7z M77.7,28.1l0.2-0.1l-0.2-0.1l0,0
		L77.7,28.1z M77.8,23.6L77.8,23.6L77.8,23.6l0-0.1L77.8,23.6z M78,24.8l0.1-0.2l-0.1-0.1L78,24.8z M78.2,26.1L78.2,26.1l0-0.1
		L78.2,26.1L78.2,26.1z M78.2,27.3L78.2,27.3v-0.2V27.3z M78.5,29.5l-0.1,0.2l0.1,0.2l0,0l0-0.1L78.5,29.5z M78.6,31.1L78.6,31.1
		l-0.1-0.3l0,0L78.6,31.1L78.6,31.1l0,0.2L78.6,31.1L78.6,31.1L78.6,31.1z M78.7,33.6L78.7,33.6l0-0.2l-0.1,0l0,0.1V33.6z M79,31.7
		l0.2,0.1l0-0.2l-0.1-0.2l-0.1,0v0.1l0,0L79,31.7z M79.4,34.3L79.4,34.3L79.4,34.3L79.4,34.3z"/>
</g>
</svg>
