<?xml version="1.0" encoding="UTF-8"?>
<!-- Creator: CorelDRAW -->
<svg xmlns="http://www.w3.org/2000/svg" xmlns:xlink="http://www.w3.org/1999/xlink" xmlns:xodm="http://www.corel.com/coreldraw/odm/2003" xml:space="preserve" width="145px" height="132px" version="1.1" style="shape-rendering:geometricPrecision; text-rendering:geometricPrecision; image-rendering:optimizeQuality; fill-rule:evenodd; clip-rule:evenodd" viewBox="0 0 145 131.82">
 <defs>
  <style type="text/css">
   <![CDATA[
    .fil0 {fill:yellow;fill-rule:nonzero}
   ]]>
  </style>
 </defs>
 <g id="Layer_x0020_1">
  <metadata id="CorelCorpID_0Corel-Layer"></metadata>
  <g id="_2381894037648">
   <g id="_2346656316864">
    <path class="fil0" d="M33.55 79.09c7.19,0 11.99,-4.79 11.99,-10.78 0,-6 -4.8,-11.99 -11.99,-11.99 -5.99,0 -10.78,5.99 -10.78,11.99 0,5.99 4.79,10.78 10.78,10.78z"></path>
    <path class="fil0" d="M73.1 79.09c5.99,0 10.79,-4.79 10.79,-10.78 0,-6 -4.8,-11.99 -10.79,-11.99 -7.19,0 -11.98,5.99 -11.98,11.99 0,5.99 4.79,10.78 11.98,10.78z"></path>
    <path class="fil0" d="M111.45 79.09c5.99,0 10.78,-4.79 10.78,-10.78 0,-6 -4.79,-11.99 -10.78,-11.99 -5.99,0 -11.99,5.99 -11.99,11.99 0,5.99 6,10.78 11.99,10.78z"></path>
    <path class="fil0" d="M33.55 111.45c7.19,0 11.99,-4.8 11.99,-11.99 0,-5.99 -4.8,-10.78 -11.99,-10.78 -5.99,0 -10.78,4.79 -10.78,10.78 0,7.19 4.79,11.99 10.78,11.99z"></path>
    <path class="fil0" d="M73.1 111.45c5.99,0 10.79,-4.8 10.79,-11.99 0,-5.99 -4.8,-10.78 -10.79,-10.78 -7.19,0 -11.98,4.79 -11.98,10.78 0,7.19 4.79,11.99 11.98,11.99z"></path>
    <path class="fil0" d="M111.45 111.45c5.99,0 10.78,-4.8 10.78,-11.99 0,-5.99 -4.79,-10.78 -10.78,-10.78 -5.99,0 -11.99,4.79 -11.99,10.78 0,7.19 6,11.99 11.99,11.99z"></path>
    <path class="fil0" d="M136.61 109.05c0,7.19 -5.99,13.18 -14.38,13.18l-99.46 0c-7.19,0 -13.18,-5.99 -13.18,-13.18l0 -63.51 127.02 0 0 63.51zm-14.38 -99.46l0 5.99c0,5.99 -4.79,11.98 -10.78,11.98 -5.99,0 -11.99,-5.99 -11.99,-11.98l0 -5.99 -53.92 0 0 5.99c0,5.99 -4.8,11.98 -11.99,11.98 -5.99,0 -10.78,-5.99 -10.78,-11.98l0 -5.99c-11.98,0 -22.77,9.58 -22.77,22.77l0 13.18 0 63.51c0,11.98 10.79,22.77 22.77,22.77l99.46 0c13.19,0 22.77,-10.79 22.77,-22.77l0 -63.51 0 -13.18c0,-13.19 -9.59,-22.77 -22.77,-22.77l0 0z"></path>
    <path class="fil0" d="M33.55 22.77c4.8,0 7.19,-3.6 7.19,-7.19l0 -8.39c0,-3.59 -2.39,-7.19 -7.19,-7.19 -3.59,0 -5.99,3.59 -5.99,7.19l0 8.39c0,3.59 2.4,7.19 5.99,7.19z"></path>
    <path class="fil0" d="M111.45 22.77c3.59,0 5.99,-3.6 5.99,-7.19l0 -8.39c0,-3.59 -2.4,-7.19 -5.99,-7.19 -3.6,0 -7.19,3.59 -7.19,7.19l0 8.39c0,3.59 3.59,7.19 7.19,7.19z"></path>
   </g>
  </g>
 </g>
</svg>
