<?xml version="1.0" encoding="utf-8"?>
<!-- Generator: Adobe Illustrator 23.0.2, SVG Export Plug-In . SVG Version: 6.00 Build 0)  -->
<svg version="1.1" id="Layer_1" xmlns="http://www.w3.org/2000/svg" xmlns:xlink="http://www.w3.org/1999/xlink" x="0px" y="0px"
	 viewBox="0 0 144 92" style="enable-background:new 0 0 144 92;" xml:space="preserve">
<style type="text/css">
	.st0{enable-background:new    ;}
	.st1{fill:#BDBCBC;}
</style>
<g>
	<g class="st0">
		<path class="st1" d="M17.6,67.8c-3.2,4.3-9.8,6.4-14.8,4.6c-0.9-0.3-1.3-0.9-1.2-1.8l0.7-4.8c0.2-1,0.8-1.6,1.8-1.7
			c0.2-0.1,0.7-0.1,1.2-0.1c0.5,0,0.9-0.1,1.2-0.1c5.9-0.7,4.5-3.6,4.5-15.2V23.3c0-2.4-0.2-4.2,1.6-4.2c1.9-0.1,3.9-0.1,5.7,0
			c1.8,0.1,1.7,1.8,1.7,4.2v36.6C20.1,62.9,19.2,65.5,17.6,67.8z"/>
		<path class="st1" d="M56.1,72.5c-0.7,0.7-6.2,0.5-6.8,0.5c-0.8-0.1-1.2-0.2-1.5-0.5c-0.7-0.6-0.8-1.8-1.1-4.2
			c-0.2-1.2-0.2-2.1-0.4-2.7c-0.1-0.8-0.2-4.5-2.9-4.5c-0.4-0.1-0.6-0.1-0.6-0.1c-4,0-4.6,0.2-5.1,4.1c-0.1,0.6-0.5,2.7-1.1,6.2
			c-0.2,1.2-0.8,1.7-1.9,1.7c-2.4,0.1-4.4,0.1-6,0c-2.2-0.1-1.6-1.7-1.3-3.9c1.8-10.5,7.3-42.7,8-46.9c0.5-2.5,1.1-3,3.5-3h7
			c0.8,0.1,1.4,0.2,1.7,0.5c0.5,0.5,0.8,1.9,1.1,3.2c2.2,12.8,7.6,45,7.7,45.7C56.7,70.6,56.7,72,56.1,72.5z M44.2,50.1
			c-0.2-1.4-1-5.5-1-5.7c-0.1-0.3-0.2-0.7-0.5-1.2c-0.5-0.8-1.3-0.5-1.6,0c-0.5,1.5-1,3.8-1.2,7.1c-0.1,0.4-0.1,0.8-0.1,1
			c0,1.2,4.3,1.1,4.5,0.1C44.3,51.3,44.3,50.8,44.2,50.1z"/>
		<path class="st1" d="M97.3,69.8c0,0.2,0,0.3-0.1,0.5v0.5c-0.3,1.8-0.8,2.3-2.5,2.4c-1.6,0-3.4,0-5.2-0.1c-1.2-0.1-1.7-0.6-1.8-1.7
			c-0.2-1.5-0.5-3.7-0.9-6.3c-0.5-3.1-0.9-5.1-1.1-6.3c-0.2-1.8-0.5-3.2-0.8-4.2c-0.3-0.5-1-0.6-1.5-0.1c-0.3,0.3-0.5,1.2-0.8,2.3
			c-0.8,6.3-1.5,10.5-1.8,12.6c-0.5,3.6-0.8,3.8-4.5,3.8c-2.2,0-4.8,0.5-5.2-1.8l-1.1-5.9c-0.5-2.8-6.1-36.7-7.1-42.6
			c-0.6-3.3,0-3.8,3.1-3.7h1.2v0.1c3.7,0,4.5-0.5,4.9,1.7l1.3,7.8c0.2,1.2,0.8,5.4,1.1,7.2c0.2,0.8,0.5,1.3,1,1.5
			c0.5,0.2,1.2-0.5,1.2-1.5c0.3-1.7,0.8-5.9,0.9-6.6c0.6-4.1,1-6.9,1.3-8.4c0.2-1,0.8-1.6,1.8-1.6c1.5-0.1,3.5-0.1,5.7,0
			c2.3,0.1,2.7,5.1,2.7,5.5c0.3,1.8,1.1,7.3,1.5,9.6c0,0.4,0.2,1,0.5,1.8c0.4,1.2,1.8,1.1,2-0.2c0.5-3.2,0.8-5.3,1.5-10
			c0.2-1.7,0.5-3,0.7-4.1c0.4-2.4,0.7-2.6,3.2-2.7c1.7,0,3.2,0,4.6,0.1c1.5,0,1.9,0.7,1.8,2.2c0,0.5-0.3,2.2-0.8,5.4
			C102.6,36.6,98.8,60.1,97.3,69.8z"/>
		<path class="st1" d="M140.1,72.5c-0.7,0.7-6.2,0.5-6.8,0.5c-0.8-0.1-1.2-0.2-1.5-0.5c-0.7-0.6-0.8-1.8-1.1-4.2
			c-0.2-1.2-0.2-2.1-0.4-2.7c-0.1-0.8-0.2-4.5-2.9-4.5c-0.4-0.1-0.6-0.1-0.6-0.1c-4,0-4.6,0.2-5.1,4.1c-0.1,0.6-0.5,2.7-1.1,6.2
			c-0.2,1.2-0.8,1.7-1.9,1.7c-2.4,0.1-4.4,0.1-6,0c-2.2-0.1-1.6-1.7-1.3-3.9c1.8-10.5,7.3-42.7,8-46.9c0.5-2.5,1.1-3,3.5-3h7
			c0.8,0.1,1.4,0.2,1.7,0.5c0.5,0.5,0.8,1.9,1.1,3.2c2.2,12.8,7.6,45,7.7,45.7C140.8,70.6,140.7,72,140.1,72.5z M128.2,50.1
			c-0.2-1.4-1-5.5-1-5.7c-0.1-0.3-0.2-0.7-0.5-1.2c-0.5-0.8-1.3-0.5-1.6,0c-0.5,1.5-1,3.8-1.2,7.1c-0.1,0.4-0.1,0.8-0.1,1
			c0,1.2,4.3,1.1,4.5,0.1C128.3,51.3,128.3,50.8,128.2,50.1z"/>
	</g>
	<g class="st0">
		<path class="st1" d="M2.9,85.3H1v-0.9h4.8v0.9H3.9V90h-1V85.3z"/>
		<path class="st1" d="M13.6,84.4V90h-1v-2.4H9.6V90h-1v-5.6h1v2.3h2.9v-2.3H13.6z"/>
		<path class="st1" d="M21.3,89.1V90h-4.2v-5.6h4.1v0.9h-3v1.5h2.7v0.9h-2.7v1.5H21.3z"/>
		<path class="st1" d="M33.4,87.6c0.2,0.2,0.3,0.5,0.3,0.9c0,0.5-0.2,0.9-0.6,1.1c-0.4,0.3-0.9,0.4-1.6,0.4h-2.8v-5.6h2.6
			c0.7,0,1.2,0.1,1.5,0.4s0.5,0.6,0.5,1.1c0,0.3-0.1,0.5-0.2,0.7c-0.1,0.2-0.3,0.4-0.5,0.5C33,87.2,33.3,87.4,33.4,87.6z M29.8,85.2
			v1.5h1.5c0.4,0,0.6-0.1,0.8-0.2c0.2-0.1,0.3-0.3,0.3-0.6c0-0.3-0.1-0.4-0.3-0.6c-0.2-0.1-0.5-0.2-0.8-0.2H29.8z M32.7,88.4
			c0-0.5-0.4-0.8-1.2-0.8h-1.7v1.6h1.7C32.3,89.2,32.7,88.9,32.7,88.4z"/>
		<path class="st1" d="M40.5,90l-1.1-1.6c0,0-0.1,0-0.2,0h-1.3V90h-1v-5.6h2.3c0.5,0,0.9,0.1,1.3,0.2c0.4,0.2,0.6,0.4,0.8,0.7
			c0.2,0.3,0.3,0.7,0.3,1.1c0,0.4-0.1,0.8-0.3,1.1c-0.2,0.3-0.5,0.5-0.9,0.7l1.3,1.8H40.5z M40.2,85.6c-0.2-0.2-0.6-0.3-1-0.3h-1.2
			v2.2h1.2c0.5,0,0.8-0.1,1-0.3c0.2-0.2,0.4-0.5,0.4-0.8C40.5,86,40.4,85.8,40.2,85.6z"/>
		<path class="st1" d="M48.4,88.7h-2.8L45,90H44l2.5-5.6h1L50,90h-1.1L48.4,88.7z M48,87.9L47,85.4l-1,2.4H48z"/>
		<path class="st1" d="M57.6,84.4L55.2,90h-1l-2.4-5.6h1.1l1.9,4.3l1.9-4.3H57.6z"/>
		<path class="st1" d="M64.4,89.1V90h-4.2v-5.6h4.1v0.9h-3v1.5H64v0.9h-2.7v1.5H64.4z"/>
		<path class="st1" d="M76,90.1l-0.7-0.7c-0.5,0.4-1.2,0.7-1.9,0.7c-0.4,0-0.7-0.1-1-0.2c-0.3-0.1-0.6-0.3-0.7-0.5
			c-0.2-0.2-0.3-0.5-0.3-0.8c0-0.3,0.1-0.7,0.3-0.9s0.5-0.5,1-0.8c-0.2-0.2-0.4-0.4-0.5-0.6c-0.1-0.2-0.1-0.4-0.1-0.6
			c0-0.4,0.1-0.7,0.4-1c0.3-0.2,0.7-0.4,1.2-0.4c0.5,0,0.8,0.1,1.1,0.3c0.3,0.2,0.4,0.5,0.4,0.9c0,0.3-0.1,0.5-0.3,0.8
			s-0.5,0.5-0.9,0.7l1.2,1.2c0.1-0.3,0.2-0.6,0.3-0.9l0.8,0.3c-0.1,0.5-0.3,0.9-0.5,1.3l0.7,0.7L76,90.1z M74.8,88.8l-1.5-1.4
			c-0.3,0.2-0.5,0.3-0.7,0.5c-0.1,0.2-0.2,0.3-0.2,0.5c0,0.2,0.1,0.4,0.3,0.6c0.2,0.1,0.5,0.2,0.8,0.2C74,89.3,74.4,89.1,74.8,88.8z
			 M73.2,85.2c-0.1,0.1-0.2,0.3-0.2,0.4c0,0.1,0,0.3,0.1,0.4c0.1,0.1,0.2,0.3,0.4,0.5c0.3-0.2,0.5-0.3,0.7-0.5
			c0.1-0.1,0.2-0.3,0.2-0.4c0-0.2-0.1-0.3-0.2-0.4c-0.1-0.1-0.3-0.1-0.5-0.1C73.5,85,73.3,85.1,73.2,85.2z"/>
		<path class="st1" d="M84.9,85.3H83v-0.9h4.8v0.9h-1.9V90h-1V85.3z"/>
		<path class="st1" d="M95.6,84.4V90h-1v-2.4h-2.9V90h-1v-5.6h1v2.3h2.9v-2.3H95.6z"/>
		<path class="st1" d="M103.3,89.1V90h-4.2v-5.6h4.1v0.9h-3v1.5h2.7v0.9h-2.7v1.5H103.3z"/>
		<path class="st1" d="M115.5,87.6c0.2,0.2,0.3,0.5,0.3,0.9c0,0.5-0.2,0.9-0.6,1.1c-0.4,0.3-0.9,0.4-1.6,0.4h-2.8v-5.6h2.6
			c0.7,0,1.2,0.1,1.5,0.4s0.5,0.6,0.5,1.1c0,0.3-0.1,0.5-0.2,0.7c-0.1,0.2-0.3,0.4-0.5,0.5C115,87.2,115.3,87.4,115.5,87.6z
			 M111.8,85.2v1.5h1.5c0.4,0,0.6-0.1,0.8-0.2c0.2-0.1,0.3-0.3,0.3-0.6c0-0.3-0.1-0.4-0.3-0.6c-0.2-0.1-0.5-0.2-0.8-0.2H111.8z
			 M114.7,88.4c0-0.5-0.4-0.8-1.2-0.8h-1.7v1.6h1.7C114.3,89.2,114.7,88.9,114.7,88.4z"/>
		<path class="st1" d="M120,89.7c-0.5-0.2-0.8-0.6-1.1-1c-0.3-0.4-0.4-0.9-0.4-1.5s0.1-1,0.4-1.5c0.3-0.4,0.6-0.8,1.1-1
			s1-0.4,1.5-0.4c0.6,0,1.1,0.1,1.5,0.4s0.8,0.6,1.1,1c0.3,0.4,0.4,0.9,0.4,1.5c0,0.5-0.1,1-0.4,1.5c-0.3,0.4-0.6,0.8-1.1,1
			s-1,0.4-1.5,0.4C120.9,90.1,120.4,90,120,89.7z M122.5,88.9c0.3-0.2,0.5-0.4,0.7-0.7c0.2-0.3,0.3-0.6,0.3-1s-0.1-0.7-0.3-1
			c-0.2-0.3-0.4-0.5-0.7-0.7s-0.6-0.3-1-0.3c-0.4,0-0.7,0.1-1,0.3s-0.5,0.4-0.7,0.7c-0.2,0.3-0.3,0.6-0.3,1s0.1,0.7,0.3,1
			c0.2,0.3,0.4,0.5,0.7,0.7s0.6,0.3,1,0.3C121.9,89.2,122.2,89.1,122.5,88.9z"/>
		<path class="st1" d="M127.6,84.4h1v4.7h2.9V90h-4V84.4z"/>
		<path class="st1" d="M134.5,84.4h2.4c0.6,0,1.1,0.1,1.6,0.3s0.8,0.6,1.1,1c0.3,0.4,0.4,0.9,0.4,1.5s-0.1,1-0.4,1.5s-0.6,0.8-1.1,1
			c-0.5,0.2-1,0.3-1.6,0.3h-2.4V84.4z M136.9,89.1c0.4,0,0.8-0.1,1.1-0.2c0.3-0.2,0.6-0.4,0.7-0.7s0.3-0.6,0.3-1s-0.1-0.7-0.3-1
			c-0.2-0.3-0.4-0.5-0.7-0.7c-0.3-0.2-0.7-0.2-1.1-0.2h-1.4v3.8H136.9z"/>
	</g>
</g>
</svg>
