<?xml version="1.0" encoding="utf-8"?>
<!-- Generator: Adobe Illustrator 27.5.0, SVG Export Plug-In . SVG Version: 6.00 Build 0)  -->
<svg version="1.1" id="Layer_3" xmlns="http://www.w3.org/2000/svg" xmlns:xlink="http://www.w3.org/1999/xlink" x="0px" y="0px"
	 viewBox="0 0 768.28 263.5" style="enable-background:new 0 0 768.28 263.5;" xml:space="preserve">
<style type="text/css">
	.st0{fill:#FFFFFF;}
</style>
<g>
	<g>
		<path class="st0" d="M13.41,131.23l-1.87,0.01l0.01,1.87c0.04,5.23,6.85,9.33,15.5,9.33l587.48,0h127.3
			c8.35-0.18,14.76-4.13,14.9-9.35v-1.85L13.41,131.23z"/>
	</g>
	<g>
		<path class="st0" d="M66.1,159.37l0.05,1.9c0.14,5.1,6.59,9.05,15.04,9.2H621.3h65.98c8.49-0.19,14.9-4.21,14.9-9.35l0-1.86H68
			L66.1,159.37z"/>
	</g>
	<g>
		<path class="st0" d="M122.48,227.17l-9.32-30.36h-0.24c0.34,6.18,0.5,10.3,0.5,12.36v18h-7.33v-38.7h11.17l9.16,29.59h0.16
			l9.72-29.59h11.17v38.7h-7.65v-18.32c0-0.86,0.01-1.86,0.04-2.99c0.03-1.13,0.15-4.13,0.36-9h-0.24L130,227.17H122.48z"/>
		<path class="st0" d="M208.6,207.77c0,6.41-1.59,11.33-4.76,14.77c-3.18,3.44-7.73,5.16-13.66,5.16s-10.48-1.72-13.66-5.16
			c-3.18-3.44-4.77-8.38-4.77-14.82c0-6.44,1.59-11.36,4.78-14.76c3.19-3.4,7.75-5.1,13.7-5.1c5.95,0,10.5,1.71,13.65,5.14
			C207.02,196.42,208.6,201.34,208.6,207.77z M180.36,207.77c0,4.32,0.82,7.58,2.46,9.77c1.64,2.19,4.09,3.28,7.36,3.28
			c6.55,0,9.82-4.35,9.82-13.05c0-8.72-3.26-13.08-9.77-13.08c-3.26,0-5.73,1.1-7.39,3.3C181.18,200.18,180.36,203.44,180.36,207.77
			z"/>
		<path class="st0" d="M247.81,227.17h-8.2V195.3H229.1v-6.83h29.23v6.83h-10.51V227.17z"/>
		<path class="st0" d="M315.67,207.77c0,6.41-1.59,11.33-4.77,14.77c-3.18,3.44-7.73,5.16-13.66,5.16c-5.93,0-10.48-1.72-13.66-5.16
			c-3.18-3.44-4.76-8.38-4.76-14.82c0-6.44,1.59-11.36,4.78-14.76c3.19-3.4,7.75-5.1,13.7-5.1s10.5,1.71,13.64,5.14
			C314.09,196.42,315.67,201.34,315.67,207.77z M287.42,207.77c0,4.32,0.82,7.58,2.46,9.77c1.64,2.19,4.09,3.28,7.36,3.28
			c6.55,0,9.82-4.35,9.82-13.05c0-8.72-3.26-13.08-9.77-13.08c-3.26,0-5.73,1.1-7.39,3.3C288.25,200.18,287.42,203.44,287.42,207.77
			z"/>
		<path class="st0" d="M348.16,212.32v14.85h-8.2v-38.7h11.28c5.26,0,9.15,0.96,11.67,2.87c2.52,1.91,3.79,4.82,3.79,8.72
			c0,2.28-0.63,4.3-1.88,6.08s-3.03,3.16-5.32,4.17c5.82,8.7,9.62,14.32,11.38,16.86h-9.11l-9.24-14.85H348.16z M348.16,205.65h2.65
			c2.6,0,4.51-0.43,5.74-1.3c1.23-0.86,1.85-2.22,1.85-4.08c0-1.83-0.63-3.14-1.89-3.92c-1.26-0.78-3.22-1.16-5.86-1.16h-2.49
			V205.65z"/>
		<path class="st0" d="M408.44,194.74c-3.09,0-5.48,1.16-7.17,3.48c-1.7,2.32-2.54,5.56-2.54,9.7c0,8.63,3.24,12.94,9.71,12.94
			c2.72,0,6.01-0.68,9.87-2.04v6.88c-3.18,1.32-6.72,1.98-10.64,1.98c-5.63,0-9.94-1.71-12.92-5.12c-2.98-3.42-4.47-8.32-4.47-14.7
			c0-4.02,0.73-7.55,2.2-10.58c1.46-3.03,3.57-5.35,6.31-6.96c2.74-1.62,5.96-2.42,9.65-2.42c3.76,0,7.54,0.91,11.33,2.73
			l-2.65,6.67c-1.45-0.69-2.9-1.29-4.37-1.8C411.29,195,409.85,194.74,408.44,194.74z"/>
		<path class="st0" d="M454.86,204.4l8.07-15.94h8.84l-12.84,23.64v15.06h-8.15v-14.8l-12.84-23.9h8.89L454.86,204.4z"/>
		<path class="st0" d="M509.34,194.74c-3.09,0-5.48,1.16-7.17,3.48c-1.69,2.32-2.54,5.56-2.54,9.7c0,8.63,3.24,12.94,9.71,12.94
			c2.72,0,6.01-0.68,9.87-2.04v6.88c-3.18,1.32-6.72,1.98-10.64,1.98c-5.63,0-9.94-1.71-12.92-5.12c-2.98-3.42-4.47-8.32-4.47-14.7
			c0-4.02,0.73-7.55,2.2-10.58c1.46-3.03,3.57-5.35,6.31-6.96c2.74-1.62,5.96-2.42,9.65-2.42c3.76,0,7.54,0.91,11.33,2.73
			l-2.65,6.67c-1.45-0.69-2.9-1.29-4.37-1.8C512.19,195,510.76,194.74,509.34,194.74z"/>
		<path class="st0" d="M543.71,227.17v-38.7h8.2v31.92h15.7v6.78H543.71z"/>
		<path class="st0" d="M612.89,227.17H590.6v-38.7h22.29v6.72h-14.08v8.5h13.1v6.72h-13.1v9.98h14.08V227.17z"/>
		<path class="st0" d="M660.07,216.42c0,3.49-1.26,6.25-3.77,8.26c-2.52,2.01-6.01,3.02-10.5,3.02c-4.13,0-7.78-0.77-10.96-2.33
			v-7.62c2.61,1.16,4.82,1.98,6.63,2.46c1.81,0.48,3.46,0.72,4.96,0.72c1.8,0,3.18-0.34,4.14-1.03c0.96-0.69,1.44-1.71,1.44-3.07
			c0-0.76-0.21-1.43-0.64-2.02c-0.42-0.59-1.04-1.16-1.87-1.71c-0.82-0.55-2.49-1.42-5.02-2.62c-2.36-1.11-4.14-2.18-5.32-3.2
			c-1.18-1.02-2.13-2.21-2.83-3.57c-0.71-1.36-1.06-2.95-1.06-4.76c0-3.42,1.16-6.12,3.48-8.07c2.32-1.96,5.53-2.94,9.62-2.94
			c2.01,0,3.93,0.24,5.76,0.71c1.83,0.48,3.74,1.15,5.73,2.01l-2.65,6.38c-2.06-0.85-3.77-1.44-5.12-1.77
			c-1.35-0.34-2.68-0.5-3.98-0.5c-1.55,0-2.74,0.36-3.57,1.08c-0.83,0.72-1.24,1.67-1.24,2.83c0,0.72,0.17,1.36,0.5,1.89
			c0.33,0.54,0.87,1.06,1.6,1.56c0.73,0.5,2.47,1.41,5.2,2.71c3.62,1.73,6.1,3.46,7.44,5.2C659.4,211.77,660.07,213.9,660.07,216.42
			z"/>
	</g>
	<g>
		<polygon class="st0" points="443.88,45.83 431.87,63.55 423.46,51.36 414.08,37.39 395.72,37.39 395.72,39.57 423.2,79.04 
			423.2,106.81 440.31,106.81 440.31,79.04 467.68,39.57 467.68,37.39 449.55,37.39 		"/>
		<polygon class="st0" points="501.21,77.45 530.86,77.45 530.86,64.46 501.21,64.46 501.21,50.38 532.91,50.38 532.91,37.39 
			483.99,37.39 483.99,106.81 533.82,106.81 533.82,93.32 501.21,93.32 		"/>
		<polygon class="st0" points="611.37,39.57 611.37,37.39 552.53,37.39 552.53,50.38 585.94,50.38 549.33,104.73 549.33,106.81 
			611.71,106.81 611.71,93.52 575.22,93.52 		"/>
		<path class="st0" d="M661.66,37.48h-29.65v69.32h29.65c25.77,0,39.46-17.16,39.12-34.91C700.78,54.25,687.09,37.48,661.66,37.48z
			 M661.44,93.42H649V50.87h12.43c14.48,0,22.35,10.02,22.35,21.12C683.79,83.1,676.15,93.42,661.44,93.42z"/>
		<polygon class="st0" points="744.57,95.01 744.57,48.89 754.95,48.89 754.95,37.39 717.09,37.39 717.09,48.89 727.47,48.89 
			727.47,95.01 716.18,95.01 716.18,106.81 755.86,106.81 755.86,95.01 		"/>
		<path class="st0" d="M123.15,35.8l-36.72,68.03v1.98h17.79l6.16-11.5h33.19l6.27,11.5h17.68v-1.98L131.02,35.8H123.15z
			 M115.97,81.82l11.06-22.91l11.06,22.91H115.97z"/>
		<polygon class="st0" points="252.02,57.52 251.67,58.73 244.1,78.49 227.73,37.58 220.77,37.58 204.74,79.04 196.86,58.46 
			196.6,57.62 188.5,36.39 170.59,36.39 170.59,38.58 198.19,106.41 208.68,106.41 224.08,68.92 224.42,68.92 240.27,106.41 
			250.42,106.41 277.91,38.58 277.91,36.39 260,36.39 		"/>
		<path class="st0" d="M317.71,35.8l-36.72,68.03v1.98h17.79l6.16-11.5h33.19l6.27,11.5h17.68v-1.98L325.58,35.8H317.71z
			 M310.53,81.82l11.06-22.91l11.06,22.91H310.53z"/>
		<path class="st0" d="M41.38,49.19h14.26v33.32c0,7.24-5.36,11.11-13.46,11.11s-13.91-3.67-13.91-11.11v-0.97H12.42v1.26
			c0,15.07,13.23,24,29.77,24c15.93,0,29.53-8.29,30.5-22.38V36.39h-31.3V49.19z"/>
	</g>
</g>
</svg>
