<svg xmlns="http://www.w3.org/2000/svg" viewBox="0 0 134.98 42.21">
    <defs>
        <style>.a{fill:#d0d0d0;}</style>
    </defs>
    <path class="a" d="M111.41,35.44q-1.74,4.609-3.49,9.22c-.2.52-.36,1.21-.76,1.47a21.026,21.026,0,0,1-2.88,1.37c-.07-1-.45-2-.17-2.86.88-2.64,2-5.19,3-7.78l-.76-.72c-.24.57-.33,1.3-.74,1.68-2.83,2.53-5.73,5-8.62,7.47a2.555,2.555,0,0,1-1.12.66c-1.48.2-3.16.77-4.44.3-1.6-.59-1.37-2.55-1.13-4,.42-2.5,1.08-5,1.71-7.75-.61.72-1.1,1.22-1.5,1.78-3.08,4.28-6.39,8.34-11,11.13-1.45.88-3.13,1.91-4.68.59s-1.46-3.15-1.15-5.05A30.07,30.07,0,0,1,82.15,26.5a22.321,22.321,0,0,1,5-3.86c3-1.67,5.19-1.32,9.27.94a14.423,14.423,0,0,1,1.9-1.92,2,2,0,0,1,1.66-.34,1.721,1.721,0,0,1,.6,1.55c-.64,1.8-1.59,3.5-2.21,5.32-1.29,3.77-2.5,7.57-3.57,11.41a3.072,3.072,0,0,0,.6,2.51c.28.31,1.7,0,2.32-.47,6.35-4.57,12.09-9.69,14.72-17.44.92-2.72,1.93-5.42,3.08-8a28.373,28.373,0,0,1,3-5.36,3,3,0,0,1,2.61-.67c1.3.38.46,1.44.15,2.18-2.64,6.39-5.32,12.77-8.2,19.67.73-.51,1.1-.72,1.42-1,3-2.57,5.91-5.19,8.92-7.72A7.214,7.214,0,0,1,126,22.03a1.611,1.611,0,0,1,1.45.41,1.5,1.5,0,0,1-.1,1.48,18.255,18.255,0,0,1-2.71,2.26c-2.46,1.71-5,3.38-7.43,5.05a2.08,2.08,0,0,0-1,2.75v.1c.88,2.05,1.64,4.16,2.4,6.26s2.39,2.58,4.32,2.64q4.78.17,9.57.28c1.16,0,2.51.1,2.48,1.6a2.121,2.121,0,0,1-2.2,2,1.405,1.405,0,0,1-.29,0c-4.31-.18-8.64-.21-12.91-.73a6.327,6.327,0,0,1-3.84-2.63,50.232,50.232,0,0,1-3.31-6.85c-.17-.37-.31-.76-.47-1.14ZM95.28,27.8a20.15,20.15,0,0,1-1.71-1.19c-3-2.73-5.81-2.62-8.64.35a26.265,26.265,0,0,0-6.59,13c-.24,1.14-.15,3,.55,3.54,1.27,1,2.61-.34,3.5-1.32C86.63,37.55,90.78,32.84,95.28,27.8Z" transform="translate(0 -6.42)"/>
    <path class="a" d="M57.08,36.05c-3.95,3.15-7.79,6.53-12,9.42a21.587,21.587,0,0,1-7.23,2.88c-4.08.95-6.76-1.38-6.68-5.56.09-5.12,2.09-9.58,5.07-13.64a20,20,0,0,1,7.47-6.41,10,10,0,0,1,2.83-.93c1.86-.25,3.92-.56,5.14,1.31s.76,3.77,0,5.58c-1.79,4.12-5.26,6.44-9.21,8.07-1.65.68-3.51.82-5.22,1.4a3.4,3.4,0,0,0-1.47,1.46,3.188,3.188,0,0,0-.19,1.47c-.16,2.85,1.6,4.48,4.35,3.71a20.835,20.835,0,0,0,6-2.56A57.174,57.174,0,0,0,59.31,29.5a14.416,14.416,0,0,0,1.2-2.31c.38-.71.62-1.63,1.2-2.06a7.931,7.931,0,0,1,2.52-.77c.12.79.55,1.69.31,2.35-1.18,3.15-2.53,6.23-3.83,9.34a4.759,4.759,0,0,0-.52,2c2.18-2.77,4.19-5.69,6.58-8.26a70.96,70.96,0,0,1,7.58-6.92c1.82-1.48,3.83-1.54,4.58-.46,1.28,1.84-.2,3.09-1.23,4.23-.82.9-1.77,2.71-3.3.52-.19-.27-1.4-.17-1.86.15a23.282,23.282,0,0,0-4.05,3.19A73.407,73.407,0,0,0,56.74,46.9a2.88,2.88,0,0,1-1.57,1.38,2.472,2.472,0,0,1-2-.31A2.121,2.121,0,0,1,53,46.14c1.21-3.13,2.55-6.23,3.83-9.34a6.392,6.392,0,0,0,.26-.75ZM37,35.32c3.88.61,10.34-3.7,11.33-7.47a12.017,12.017,0,0,0-.16-3.49c-1.24.22-2.72.09-3.68.74C40.81,27.5,38.72,31.2,37,35.32Z" transform="translate(0 -6.42)"/>
    <path class="a" d="M10.8,33.93H3.64a4.539,4.539,0,0,1-1.85,0A8.96,8.96,0,0,1,0,32.28c.61-.51,1.19-1.43,1.83-1.46a81.079,81.079,0,0,1,8.25,0,2.66,2.66,0,0,0,3-1.87c2.86-6.92,5.85-13.78,8.81-20.65.25-.56.49-1.36.95-1.54a9.732,9.732,0,0,1,2.63-.34c0,.72,0,1.45-.05,2.18a6.383,6.383,0,0,1-.26.93c.58-.3.9-.44,1.18-.62,2.06-1.41,4.26-1.92,6.52-.65a6.281,6.281,0,0,1,3.45,6c-.24,5.11-2.36,9.49-5.48,13.47a14.641,14.641,0,0,1-13.43,6,3.21,3.21,0,0,0-3.75,2.42c-1.1,3-2.41,5.88-3.71,8.78a9.226,9.226,0,0,1-1.76,2.83c-.49.47-1.5.42-2.27.6-.09-.74-.44-1.6-.2-2.21,1.4-3.53,3-7,4.45-10.51C10.37,35.15,10.53,34.64,10.8,33.93Zm5.38-3.43c3.51.2,6.76.24,9.48-1.93,4.23-3.38,5.88-8.09,6.2-13.3a2.809,2.809,0,0,0-2.476-3.108l-.014,0a2.6,2.6,0,0,0-.88,0c-2.45.49-4.9,1.56-6,3.77-2.32,4.69-4.18,9.57-6.32,14.57Z" transform="translate(0 -6.42)"/>
    <path class="a" d="M82.87,20.59c.45-.49.88-1,1.37-1.44,1.47-1.33,2.94-2.65,4.46-3.9a4.276,4.276,0,0,1,1.93-1.06A8.012,8.012,0,0,1,93,14.5c-.3.87-.32,2.13-.93,2.55a62.931,62.931,0,0,1-6.75,3.91,7.259,7.259,0,0,1-2.26.36Z" transform="translate(0 -6.42)"/>
    <path class="a" d="M50.64,15.05a5.873,5.873,0,0,1-1.2,1.55c-2.16,1.46-4.37,2.86-6.62,4.15-.48.28-1.26.05-1.89.05.21-.6.24-1.42.66-1.76,2.11-1.72,4.26-3.41,6.52-4.93C49.34,13.29,50.6,13.77,50.64,15.05Z" transform="translate(0 -6.42)"/>
</svg>