<?xml version="1.0" encoding="utf-8"?>
<!-- Generator: Adobe Illustrator 27.5.0, SVG Export Plug-In . SVG Version: 6.00 Build 0)  -->
<svg version="1.1" id="Layer_3" xmlns="http://www.w3.org/2000/svg" xmlns:xlink="http://www.w3.org/1999/xlink" x="0px" y="0px"
	 viewBox="0 0 2017.03 672.34" style="enable-background:new 0 0 2017.03 672.34;" xml:space="preserve">
<style type="text/css">
	.st0{fill:#FFFFFF;}
</style>
<g id="Jawa-Yezdi-Nomads-Logo">
	<g>
		<path class="st0" d="M672.05,288.31c-60.82-4.23-86.37,27.89-86.68,74.14c-0.13,62.02-0.27,124.04-0.42,186.07
			c-0.14,46.58,43.45,70.22,86.31,66.62c41.79-3.51,86.55-32.11,86.22-77.67c0.1-48.66,0.3-90.31,0.3-138.98
			c0-15.36-12.67-29.29-30.68-30.98c-18.44-1.73-39.22-6.48-39.22-6.48c-0.14,59.09-0.29,124.96-0.43,184.04
			c0.03,8.75-7.91,14.17-16.06,14.73c-7.94,0.56-16.64-3.74-16.52-12.62c0.15-63.33,0.31-122.25,0.46-185.58
			c-0.03-8.86,7.92-17.7,16.58-18.42c19.9-1.68,31.66,6.25,69.55,6.82c37.87,0.56,43.33-35.54,43.33-45.09v-16.6
			C784.8,288.31,750.35,293.76,672.05,288.31z"/>
		<path class="st0" d="M553.79,294.23h-15.56v-0.02c-3.35,0.01-6.71,0.02-10.06,0.02h-0.48l0,0c-16.42,0.03-32.84,0.07-49.25,0.11
			c-0.06,37.79-0.12,75.57-0.18,113.36l49.82,163.51c1.62,5.33,9.58,4.18,9.59-1.38c0.15-73.09,0.3-146.17,0.45-219.27l0,0
			C538.1,310.38,553.79,294.23,553.79,294.23z"/>
		<path class="st0" d="M361.65,294.23h-52.58c0,0,42.14,16.15,42.14,56.33l23.07-18.95L361.65,294.23z"/>
		<path class="st0" d="M1214.17,293.81c-25.11-0.01-50.24-0.03-75.35-0.04l-0.01-0.02h-26.11c0,0,17.38,19,12.91,55.73
			c-13.98,81.9-27.99,163.81-42.08,245.7c20.07,0.29,40.13,0.7,60.2,1.24c0,0,26.3-180.75,30.53-213.28
			c3.98,39.44,21.15,198.7,22.79,215.06c23.01,0.92,46.02,2.01,69.02,3.28C1248.88,498.89,1231.57,396.35,1214.17,293.81z"/>
		<g>
			<path class="st0" d="M912.13,293.77c-26.63,0.01-53.27,0.03-79.89,0.05l-0.03-0.09h-26.11c0,0,15.68,16.15,15.68,56.32h0.01
				c-0.11,55.73-0.21,111.47-0.32,167.2c-0.21,4.58-3.61,71.68-16.03,86.81c-0.77,0.94,0.27,2.3,1.46,1.94
				c6.24-1.91,17.87-5.43,33.26-6.55c13.88-0.62,27.74-1.28,41.62-1.8c0.11-72.7,0.22-145.41,0.33-218.11
				c3.34,23.97,6.69,47.94,10.04,71.91c7.41,48.38,14.84,96.75,22.29,145.13c14.63-0.42,29.27-0.77,43.9-1.05
				c0.01-0.03,0.01-0.05,0.02-0.09L926.9,374.15C921.97,347.36,917.04,320.57,912.13,293.77z"/>
			<path class="st0" d="M1075.81,293.74h-26.11l0,0c-26.1,0-52.2,0-78.3,0.01c-6.44,35.5-12.88,71-19.32,106.51l14.9,107.06
				c0.51,3.6,5.76,3.67,6.37,0.09c3.23-19.02,6.48-38.05,9.71-57.07c3.76-23.85,7.51-47.7,11.27-71.55
				c-0.03,72.08-0.07,144.16-0.1,216.23c21.96-0.22,43.91-0.29,65.88-0.21c-0.01-81.61-0.03-163.21-0.05-244.8l0.06,0.05
				C1060.12,309.89,1075.81,293.74,1075.81,293.74z"/>
		</g>
		<path class="st0" d="M1463.43,369.59l0.04-7.14c-0.3-46.25-26.05-80.56-86.67-74.14c-88.07,9.34-112.75,0-112.75,0
			s-1.9,13.3,0,25.47c1.88,12.17,14.06,31.42,51.94,30.86c37.89-0.57,40.79-6.72,60.67-4.82c13.34,1.27,18.37,11.6,18.37,24.34
			l0.07,3.34c0.13,57.08,0.26,114.15,0.41,171.23c0.39,12.27-6.77,19.48-19.17,18.65c-4.64-0.32-9.26-0.64-13.89-0.96
			c-0.12-52.02-0.25-112.52-0.37-164.54c-0.04-16.09-13.29-29.13-29.61-29.13h-25.11h-14.25h-8.12c0,0,8.2,11.03,8.2,36.91
			c0.14,65.26,0.3,138.99,0.44,204.25c29.59,1.93,59.16,4.14,88.71,6.64c19.79,1.65,41.63-0.24,58.21-12.05
			c16.72-11.91,23.5-32.03,23.29-51.78C1463.69,487.69,1463.56,428.63,1463.43,369.59z"/>
		<path class="st0" d="M422.49,318.11c-5.13-14.17-18.73-23.63-33.99-23.63c-38.5,0.01-132.93,0.01-132.93,0.01l0,0
			c0,30.18,24.82,54.65,55.43,54.65h40.29c0,98.72,0,197.42,0,296.14c19.98-3.05,39.99-5.97,60.02-8.77
			c0.06-62.65,0.11-125.31,0.18-187.96c5.28,15.49,10.59,30.98,15.93,46.45c14.82,44.55,27.81,76.42,47.16,129.57
			c14.04-1.74,47.07-3.42,61.13-5.04C535.69,619.51,450.25,394.91,422.49,318.11z"/>
		<path class="st0" d="M1616.6,339.43c33.54,5.86,44.98,2.75,44.98,2.75c30.61,0,55.43-24.47,55.43-54.65l0,0h-77.88
			c-23.09-0.98-44.21-3.91-56.77-2.83c-26.79,2.31-46.82,17.59-58.88,37.16c-12.13,19.69-16.2,39.97-12.08,60.27
			c2.7,13.33,8.93,26.34,18.54,38.7c9.61,12.35,22.93,24.43,39.61,35.9c2.04,1.4,4.12,2.82,6.23,4.25
			c15.79,10.77,32.11,21.89,43.94,35.19c11.39,12.8,16.68,25.71,16.67,40.58c-0.02,21.95-18.11,39.79-40.32,39.79
			c-22.23,0-40.32-17.83-40.32-39.76c0-11.37,10.03-17.75,16.79-18.1c0.36-0.02,0.5-0.48,0.23-0.72l-56.97-47.75
			c-15.87,18.6-24.62,42.25-24.62,66.57c0,27.62,10.91,53.6,30.72,73.13c19.81,19.53,46.15,30.29,74.17,30.29
			c28.01,0,54.35-10.75,74.15-30.29c19.79-19.53,30.7-45.47,30.74-73.1c0.03-30.4-10.97-58.2-32.7-82.63
			c-17.09-19.21-37.63-33.22-55.77-45.57c-2.03-1.38-4.03-2.75-6-4.1c-25.92-17.82-30.86-30.31-31.77-34.85
			c-0.63-3.11-1.16-7.51,2.83-15.29C1581.59,346.48,1590.14,334.8,1616.6,339.43z"/>
	</g>
	<path class="st0" d="M1967.73,287.59l-310.07-0.05l-17.75,54.98c2.59,0.21,4.77,0.32,6.41,0.39c5.78,0.24,8.48,0.04,9.21-0.01
		c2.09-0.16,3.61-0.4,3.89-0.45c12.38-1.83,234.34-1.2,252.89-0.89c0.24,0,0.57,0,0.99-0.01c3.49-0.06,22.45-0.38,37.68-14.68
		C1967.28,311.56,1967.71,291.13,1967.73,287.59z"/>
	<path class="st0" d="M47.73,294.26l310.07-0.05l17.75,54.98c-2.59,0.21-4.77,0.32-6.41,0.39c-5.78,0.24-8.48,0.04-9.21-0.01
		c-2.09-0.16-3.61-0.4-3.89-0.45c-8.55-1.27-16.6-0.9-16.6-0.9c-4.27,0.21-7.39,0.77-8.25,0.91c-24.51,4.03-226.41-0.9-228.04-0.9
		c-0.02,0-0.43,0-0.99-0.01c-3.49-0.06-22.45-0.38-37.68-14.68C48.18,318.24,47.75,297.8,47.73,294.26z"/>
	<g>
		<path class="st0" d="M1880.46,492.9c0,30.16-12.22,53.98-27.26,53.98h-120.91v-54.02L1880.46,492.9z"/>
		<path class="st0" d="M1923.2,387.15c0,30.74-15.63,57.63-34.91,57.63h-98.36l-57.63-1.23v-56.4H1923.2z"/>
	</g>
	<g>
		<path class="st0" d="M160.91,492.9c0,30.16,12.22,53.98,27.26,53.98h120.91v-54.02L160.91,492.9z"/>
		<path class="st0" d="M118.17,387.15c0,30.74,15.63,57.63,34.91,57.63h98.36l57.63-1.23v-56.4H118.17z"/>
	</g>
	<g>
		<g>
			<rect x="934.04" y="65.97" class="st0" width="17.65" height="139.7"/>
			<g>
				<path class="st0" d="M657.88,207.29c8.24-37.51,16.5-72.65,24.67-108.12l0.48-1.66c8.24,35.51,16.52,71.07,24.78,106.57
					c8.73,0,17.12,0.17,25.57,0.03c0.54,0,1.43-0.61,1.57-1.25c1.7-7.58,3.25-14.69,4.87-22.24c7.72-36.44,15.46-71.95,23.14-108.33
					c0.74-3.36,1.4-8.25,2.08-8.25H739.6c-6.35,27.29-12.7,65.31-18.99,98.35l-0.44-0.96c-7.3-33.1-14.53-70.09-21.83-97.39h-30.08
					c-7.56,27.29-15.13,61.4-22.65,92.1h-0.57c-6.22-30.69-12.41-64.8-18.64-92.1h-25.89c9.96,47.75,19.95,92.1,29.91,143.27H657.88
					z"/>
				<path class="st0" d="M755.69,203.96c8.73,0,17.23,0.03,25.72-0.09c0.53,0,1.39-0.95,1.56-1.56c3.12-9.71,6.22-19.36,9.26-29.06
					c0.36-1.21,0.75-1.92,2.31-1.92c6.63,0.03,13.19,0.03,19.81,0.03c9,0,18.01,0,27.05-0.03c0.67,0,1.17,0.13,1.47,0.42
					c0.36,0.24,0.58,0.65,0.81,1.27c2.2,6.78,4.46,15.19,6.7,21.88c1.2,3.62,2.41,8.99,3.62,12.39h27.41c-0.22,0-0.36-3.04-0.6-3.61
					c-2.71-7.85-5.44-16.49-8.12-24.24c-13.55-38.73-27.09-77.91-40.57-116.65c-0.3-0.93-0.62-1.68-1.1-2l-0.09-0.2l-0.72-0.34
					l-0.35-0.07c-0.28-0.08-0.58-0.09-0.94-0.09c-7.48,0.13-14.94,0.08-22.45,0.05c-1.48-0.07-2.15,0.32-2.63,1.82
					c-3.5,10.58-7.16,21.22-10.73,31.78c-10.65,31.35-21.33,62.69-32.02,94.05C759.32,193.07,757.58,198.4,755.69,203.96
					 M817.39,91.31h0.5c5.64,20.46,11.22,34.12,16.99,54.57h-34.11C806.32,125.43,811.87,111.77,817.39,91.31"/>
				<path class="st0" d="M519.99,173.06c16.45,0,32.67-0.85,48.86-0.9l0.7-0.3l0.28-0.1H570l0.24,0.18l0.31,0.55l0.21,0.63
					c2.71,7.99,5.34,15.88,8.01,23.75c0.76,2.3,0.93,5.5,2.55,6.6c1.71,1.17,4.74,0.48,7.24,0.48c6.57,0.03,13.19,0,19.93,0
					c-0.27-0.9-0.45-1.63-0.67-2.29c-16.28-46.59-32.54-93.19-48.76-139.77c-0.51-1.28-1-1.84-2.47-1.81
					c-7.69,0.07-15.37,0.11-23.06-0.03c-1.52,0-2.17,0.55-2.61,1.94c-3.51,10.53-7.06,21.05-10.63,31.59
					c-10.23,30.02-20.48,61.79-30.71,91.81c-2.24,6.61-4.48,18.47-6.8,21.87h26.82C513.04,190.24,516.49,183.89,519.99,173.06
					 M544.43,91.31h0.48c5.64,20.46,11.33,34.12,17.1,54.57h-34.24C533.4,125.43,538.94,111.77,544.43,91.31"/>
				<path class="st0" d="M416.49,205.24c5.17,1.16,10.75,1.39,16.05,0.96c14.95-1.22,26.26-8.47,32.46-22.1
					c3.9-8.56,5.9-17.71,5.95-26.89c0.14-31.06,2.66-62.12,2.73-93.19H443c0,30.3,0.19,60.63,0.06,90.96
					c-0.05,5.26-0.56,10.51-1.41,15.7c-1.61,9.62-9.34,11.93-16.95,10.61c-6.79-1.26-9.94-6.31-11.29-12.57
					c-0.81-3.98-1.15-8.09-1.68-12.24c-7.69,1.02-15.42,2.01-23.46,3.07c0,10.14,1.31,19.75,5.89,28.62
					C398.88,197.3,406.46,203.02,416.49,205.24"/>
			</g>
			<g>
				<path class="st0" d="M1429.22,177.82c-1.2,3.2-2.02,6.49-2.25,9.89c-0.55,8.19,3.06,13.68,10.12,16.43
					c1.45,0.57,2.99,0.94,4.51,1.27c3.86,0.85,7.79,0.85,11.7,0.89c24.98,0.23,49.95,0.42,74.93,0.63c0.78,0,1.56,0.02,2.34-0.04
					c3.12-0.21,5.47-1.64,6.81-4.52c0.44-0.94,0.81-1.91,1.18-2.89c13.23-35.36,26.43-70.7,39.66-106.04
					c8.35-22.32,16.87-44.57,24.81-67.03c0.39-1.05,0.72-2.11,1.18-3.5c-0.95-0.09-1.54-0.17-2.13-0.18
					c-2.19-0.02-4.36-0.03-6.54-0.02c-10.26,0.09-20.53,0.28-30.8,0.22c-2.55-0.01-4.14,1.01-5.28,3.05
					c-0.64,1.14-1.17,2.34-1.62,3.56c-5.74,14.94-11.43,29.88-17.15,44.83c-0.41,1.05-0.83,2.11-1.37,3.09
					c-0.98,1.75-2.46,2.96-4.48,3.28c-1.26,0.21-2.58,0.3-3.87,0.3c-13.06,0.02-26.11,0.02-39.16,0c-3.77,0-7.48,0.3-11.14,1.11
					c-9.08,2.01-16.08,6.9-20.65,15.04c-1.27,2.26-2.34,4.67-3.25,7.1c-5.56,14.73-11.03,29.47-16.54,44.22
					C1436.59,158.29,1432.89,168.06,1429.22,177.82 M1475.64,175.44c0.76-2.4,1.53-4.8,2.41-7.17
					c7.18-19.12,14.39-38.24,21.59-57.35c0.28-0.74,0.56-1.48,0.91-2.16c1.39-2.63,3.55-4.29,6.51-4.7
					c1.98-0.27,3.98-0.38,5.98-0.45c2.36-0.1,4.7-0.13,7.05-0.06c1.29,0.03,2.61,0.2,3.87,0.51c2.22,0.56,3.14,1.97,2.87,4.27
					c-0.15,1.1-0.37,2.24-0.72,3.3c-1.29,3.88-2.56,7.76-3.99,11.59c-5.97,15.97-11.98,31.92-17.99,47.86
					c-0.62,1.63-1.32,3.22-2.02,4.81c-1.41,3.3-3.94,4.95-7.53,5.06c-2.52,0.07-5.03,0.21-7.66,0.32c-2.43-0.1-4.95-0.18-7.48-0.35
					c-0.85-0.05-1.72-0.25-2.52-0.52c-1.11-0.36-1.72-1.19-1.65-2.36C1475.32,177.15,1475.38,176.26,1475.64,175.44"/>
				<path class="st0" d="M1025.13,200.47c4.39,1.78,8.95,2.92,13.64,3.29c6.76,0.52,13.55,0.76,20.34,1.07
					c5.82,0.27,11.65,0.48,17.47,0.73c0.53,0.01,1.05,0.03,1.55,0.12c0.48,0.09,0.92,0.28,1.52,0.46
					c-1.83,4.98-3.62,9.78-5.39,14.59c-1.78,4.81-3.57,9.61-5.36,14.42c-1.83,4.9-3.69,9.76-5.47,14.66
					c-1.74,4.8-3.7,9.52-5.32,14.61c1.2,0.01,2.15,0.04,3.1,0.04c11.22,0.05,22.44,0.12,33.68,0.17c0.69,0,1.38-0.03,2.08-0.08
					c3.24-0.17,5.61-1.72,7.11-4.55c0.74-1.37,1.35-2.82,1.9-4.28c18.26-48.39,36.54-96.8,54.76-145.21
					c3.67-9.76,7.19-19.59,10.76-29.39c0.2-0.56,0.62-1.1,0.16-1.71c-2.25-0.27-41.27-0.27-43.8,0.04c-0.3,0.71-0.58,1.35-0.83,1.99
					c-8.03,21.13-16.05,42.27-24.07,63.4c-2.71,7.15-5.37,14.33-8.12,21.48c-0.66,1.69-1.49,3.33-2.38,4.92
					c-1.2,2.1-3.1,3.28-5.54,3.42c-2.16,0.11-4.33,0.21-6.51,0.21c-3.13,0.01-6.26-0.07-9.39-0.12c-0.79-0.01-1.57,0.02-2.35-0.06
					c-2.4-0.26-3.22-1.28-2.8-3.68c0.22-1.18,0.68-2.34,1.1-3.47c6.91-18.11,13.86-36.22,20.73-54.35
					c3.96-10.48,7.76-21.04,11.63-31.56c0.26-0.69,0.8-1.38,0.3-2.19c-2.22-0.3-42.18-0.29-44.43,0.02
					c-0.23,0.49-0.54,1.01-0.75,1.55c-0.64,1.63-1.25,3.25-1.87,4.89c-9.38,24.7-18.81,49.4-28.17,74.11
					c-2.34,6.18-4.54,12.41-6.78,18.62c-1.18,3.29-2.04,6.64-1.88,10.2c0.16,3.39,1.46,6.21,4.04,8.45
					C1021.38,198.67,1023.2,199.69,1025.13,200.47"/>
				<path class="st0" d="M1156.14,179.05c-1.16,3.5-1.7,7.11-1.45,10.79c0.35,5.1,2.52,9.21,7,11.84c1.56,0.91,3.28,1.6,5,2.15
					c3.59,1.15,7.34,1.45,11.08,1.48c9.05,0.07,18.1,0.1,27.14,0.13c21.67,0.07,43.32,0.13,65,0.2c0.77,0.01,1.52-0.07,2.75-0.13
					c-0.8-2.05-1.44-3.75-2.12-5.41c-1.36-3.31-2.64-6.63-3.39-10.13c-0.19-0.84-0.48-1.68-0.81-2.48c-1.2-2.89-3.38-4.6-6.48-5.03
					c-1.89-0.25-3.79-0.3-5.71-0.34c-1.29-0.03-2.6,0.14-3.91,0.14c-15.67,0.03-31.32,0.05-46.98,0.06c-0.48,0-1.03,0.14-1.53-0.47
					c0.23-0.71,0.46-1.54,0.74-2.35c2.06-5.99,4.11-12,6.18-17.99c0.27-0.82,0.59-1.65,0.97-2.41c0.98-1.92,2.52-3.11,4.67-3.37
					c1.54-0.17,3.13-0.27,4.68-0.25c3.04,0.01,6.09,0.15,9.13,0.17c17.49,0.03,34.97,0.05,52.46,0.05c1.12,0,2.24-0.15,3.36-0.34
					c2.07-0.32,3.44-1.61,4.24-3.47c0.46-1.03,0.76-2.13,1.07-3.22c1.23-4.35,2.39-8.72,3.61-13.07c2.57-9.21,5.16-18.41,7.74-27.61
					c0.88-3.15,1.1-6.33,0.86-9.57c-0.25-3.28-1.23-6.3-3.02-9.06c-3.64-5.62-9.04-8.36-15.54-8.69c-9.4-0.49-18.79-0.76-28.18-0.98
					c-13.93-0.31-27.84,0.24-41.76,0.43c-1.9,0.03-3.83,0.33-5.67,0.71c-7.05,1.47-12.59,5.31-16.91,10.98
					c-2.81,3.71-4.84,7.83-6.5,12.16c-6.89,18.12-13.85,36.21-20.65,54.36C1160.68,165.16,1158.44,172.12,1156.14,179.05
					 M1219.39,131.67c2.95-7.99,5.89-15.98,8.85-23.97c0.11-0.32,0.23-0.65,0.4-0.96c0.86-1.67,2.19-2.68,4.11-2.73
					c2.51-0.07,5.04-0.12,7.56-0.12c6.1,0,12.18,0.01,18.27,0.03c0.51,0,1.02,0.05,1.87,0.09c-0.18,0.78-0.25,1.3-0.43,1.78
					c-2.8,7.86-5.7,15.68-8.4,23.57c-0.95,2.76-2.82,3.78-5.48,3.85c-1.39,0.03-2.79,0.05-4.19,0.05
					c-6.87,0.01-13.74,0.01-20.61,0.01h-2.25C1219.21,132.63,1219.22,132.12,1219.39,131.67"/>
				<path class="st0" d="M1315.8,98.41c0.17,0.58,0.43,1.14,0.68,1.69c0.93,1.93,2.4,3.11,4.55,3.54c1.82,0.37,3.63,0.26,5.46,0.25
					c13.99-0.06,28.01-0.11,42.02-0.16c0.48,0,1.04-0.15,1.52,0.44c-0.13,0.74-0.77,1.24-1.24,1.83
					c-19,23.35-38.02,46.69-57.03,70.04c-7.52,9.24-15.06,18.48-22.58,27.73c-0.41,0.51-1.06,0.92-0.94,1.92
					c0.94,0.04,1.87,0.1,2.8,0.1c41.23,0,82.49,0,123.72,0c0.61,0,1.22,0.02,1.83-0.01c0.41-0.02,0.89,0.04,1.17-0.6
					c-0.07-0.22-0.14-0.56-0.24-0.87c-1.69-4.93-3.37-9.88-5.08-14.79c-0.38-1.07-0.86-2.1-1.43-3.07
					c-1.34-2.18-3.26-3.63-5.83-4.04c-1.53-0.25-3.1-0.37-4.65-0.37c-1.81,0-3.64,0.27-5.47,0.27c-11.31,0.03-22.62,0.01-33.94-0.01
					c-0.35,0-0.72-0.2-1.36-0.39c28.91-34.13,57.66-68.03,86.66-102.25c-1.36-0.4-2.32-0.27-3.25-0.27
					c-43.59-0.01-87.19-0.01-130.77-0.01c-0.52,0-1.05-0.03-1.57,0.02c-0.5,0.03-0.97,0.13-1.68,0.22c0.32,0.98,0.54,1.8,0.86,2.6
					C1312.04,87.57,1314.16,92.91,1315.8,98.41"/>
				<path class="st0" d="M1601.74,94.14c-8.06,21.39-16.13,42.77-24.18,64.17c-5.71,15.22-11.39,30.45-17.05,45.68
					c-0.28,0.77-0.87,1.54-0.48,2.61c0.66,0.06,1.32,0.17,1.98,0.17c12.88,0.11,25.75,0.15,38.62-0.24c1.73-0.05,2.99-0.67,4.1-1.89
					c1.25-1.39,1.94-3.07,2.57-4.79c13.5-36.62,27.12-73.19,39.99-110.03c0.31-0.89,0.6-1.79,1-3.01c-0.89-0.08-1.39-0.17-1.9-0.17
					c-3.13,0.01-6.26,0.06-9.39,0.08c-7.91,0.03-15.82,0.23-23.75-0.27c-1.04-0.06-2.09-0.09-3.13-0.03
					c-3.21,0.2-5.61,1.68-7.05,4.61C1602.6,92.05,1602.14,93.09,1601.74,94.14"/>
			</g>
		</g>
		<circle class="st0" cx="324.02" cy="128.29" r="12.28"/>
		<circle class="st0" cx="1721.73" cy="128.29" r="12.28"/>
	</g>
</g>
</svg>
